<svg width="208" height="153" viewBox="0 0 208 153" fill="none" xmlns="http://www.w3.org/2000/svg">
<path d="M120.85 22.9423C107.516 22.4805 94.815 18.1751 82.6884 13.4686C70.5618 8.76209 58.5475 3.54593 45.5337 1.05101C37.1622 -0.553397 27.5886 -0.776027 20.8443 3.70601C14.3521 8.02245 12.2555 15.4815 11.129 22.3903C10.2805 27.5936 9.78163 33.0619 12.1046 37.9395C13.7189 41.3194 16.5849 44.1621 18.5673 47.4003C25.4608 58.6716 20.5921 72.5685 13.1151 83.5712C9.6178 88.734 5.54432 93.6576 2.84032 99.1534C0.136318 104.649 -1.11536 110.944 1.24995 116.548C3.59685 122.105 9.18524 126.277 15.2393 129.212C27.5371 135.173 42.029 136.881 56.1601 137.847C87.4429 139.977 118.891 139.058 150.255 138.138C161.863 137.794 173.52 137.446 184.94 135.652C191.279 134.656 197.825 133.076 202.426 129.258C208.271 124.412 209.719 116.206 205.802 110.123C199.235 99.9317 181.072 97.4 176.482 86.4617C173.954 80.4415 176.55 73.735 180.222 68.1509C188.1 56.1712 201.305 45.6634 202.001 31.9708C202.48 22.567 196.131 13.1485 186.317 8.69954C176.027 4.03535 161.762 4.62229 154.17 12.3426C146.358 20.2928 132.623 23.3508 120.85 22.9423Z" fill="#FAFAFA"/>
<path d="M122.256 139.077L86.3623 138.617L86.4672 137.697L88.203 122.518H119.725L122.044 137.697L122.221 138.847L122.256 139.077Z" fill="#D0D2D5"/>
<path opacity="0.1" d="M122.221 138.847H104.309L86.3623 138.617L86.4672 137.697H122.044L122.221 138.847Z" fill="black"/>
<path d="M128.008 137.927H80.38V139.077H128.008V137.927Z" fill="#D0D2D5"/>
<path d="M173.45 31.3466C173.452 30.9535 173.376 30.5639 173.228 30.1999C173.079 29.836 172.86 29.5049 172.583 29.2256C172.306 28.9462 171.977 28.7241 171.615 28.5719C171.252 28.4196 170.863 28.3403 170.47 28.3384H37.4584C37.065 28.3401 36.6757 28.4192 36.3129 28.5713C35.9501 28.7235 35.6208 28.9455 35.3439 29.2249C35.0669 29.5043 34.8478 29.8355 34.699 30.1995C34.5501 30.5636 34.4745 30.9534 34.4765 31.3466V111.935H173.45V31.3466Z" fill="#444053"/>
<path d="M34.4764 111.135V120.573C34.4764 121.364 34.7906 122.122 35.3498 122.681C35.9091 123.24 36.6675 123.554 37.4584 123.554H170.47C171.26 123.554 172.018 123.239 172.577 122.68C173.136 122.121 173.45 121.364 173.45 120.573V111.135H34.4764Z" fill="#D0D2D5"/>
<path opacity="0.1" d="M168.388 33.3981H40.2286V105.845H168.388V33.3981Z" fill="#6C63FF"/>
<path d="M104.653 119.972C105.124 119.972 105.589 119.865 106.012 119.66C106.435 119.455 106.807 119.156 107.098 118.787V118.787C107.186 118.674 107.267 118.555 107.339 118.432L105.634 118.152L107.475 118.167C107.653 117.782 107.75 117.365 107.76 116.942C107.77 116.518 107.693 116.097 107.534 115.705L105.062 116.993L107.343 115.319C107.128 114.951 106.841 114.632 106.498 114.38C106.155 114.128 105.764 113.95 105.349 113.855C104.934 113.761 104.504 113.753 104.086 113.831C103.668 113.91 103.271 114.073 102.918 114.312C102.566 114.55 102.267 114.859 102.039 115.218C101.81 115.577 101.659 115.979 101.592 116.399C101.526 116.819 101.547 117.248 101.654 117.66C101.761 118.072 101.951 118.457 102.213 118.792V118.792C102.504 119.161 102.875 119.458 103.297 119.662C103.72 119.867 104.184 119.972 104.653 119.972Z" fill="#2196F3"/>
<path opacity="0.1" d="M107.761 123.554L122.079 137.927L119.884 123.554H107.761Z" fill="black"/>
<path d="M127.635 46.4689H44.4715C44.2072 46.4689 43.9929 46.6831 43.9929 46.9473V96.4042C43.9929 96.6684 44.2072 96.8826 44.4715 96.8826H127.635C127.899 96.8826 128.113 96.6684 128.113 96.4042V46.9473C128.113 46.6831 127.899 46.4689 127.635 46.4689Z" fill="white"/>
<path d="M168.425 33.4055H40.3115V37.6373H168.425V33.4055Z" fill="white"/>
<path d="M44.4016 34.1415H41.0073C40.9281 34.1415 40.8638 34.2057 40.8638 34.285V36.5738C40.8638 36.6531 40.9281 36.7174 41.0073 36.7174H44.4016C44.4809 36.7174 44.5452 36.6531 44.5452 36.5738V34.285C44.5452 34.2057 44.4809 34.1415 44.4016 34.1415Z" fill="#2196F3"/>
<path opacity="0.3" d="M123.221 34.1415H84.7792C84.7203 34.1415 84.6725 34.1893 84.6725 34.2482V36.6106C84.6725 36.6696 84.7203 36.7174 84.7792 36.7174H123.221C123.28 36.7174 123.327 36.6696 123.327 36.6106V34.2482C123.327 34.1893 123.28 34.1415 123.221 34.1415Z" fill="#2196F3"/>
<path d="M122.181 35.6944H122.087L122.052 35.6649C122.17 35.5248 122.235 35.3477 122.236 35.1645C122.235 35.014 122.189 34.8672 122.105 34.7426C122.02 34.618 121.901 34.5213 121.761 34.4645C121.622 34.4077 121.469 34.3936 121.321 34.4237C121.174 34.4539 121.038 34.527 120.932 34.634C120.826 34.7409 120.755 34.8768 120.726 35.0245C120.697 35.1723 120.713 35.3252 120.771 35.464C120.829 35.6029 120.927 35.7214 121.052 35.8046C121.178 35.8878 121.325 35.9321 121.476 35.9317C121.659 35.9306 121.836 35.8655 121.976 35.7477L122.011 35.7772V35.8728L122.6 36.4616L122.784 36.2776L122.181 35.6944ZM121.474 35.6944C121.368 35.6947 121.265 35.6638 121.178 35.6055C121.09 35.5472 121.021 35.4642 120.981 35.367C120.94 35.2697 120.93 35.1627 120.95 35.0593C120.971 34.956 121.021 34.8611 121.096 34.7866C121.17 34.7122 121.265 34.6615 121.369 34.641C121.472 34.6206 121.579 34.6313 121.676 34.6717C121.774 34.7122 121.857 34.7806 121.915 34.8684C121.973 34.9561 122.004 35.0591 122.004 35.1645C122.004 35.2342 121.991 35.3033 121.965 35.3678C121.938 35.4323 121.899 35.4909 121.85 35.5403C121.8 35.5896 121.742 35.6286 121.677 35.655C121.613 35.6815 121.544 35.6949 121.474 35.6944V35.6944Z" fill="#444053"/>
<path d="M166.584 36.7174C167.296 36.7174 167.873 36.1407 167.873 35.4294C167.873 34.7181 167.296 34.1415 166.584 34.1415C165.873 34.1415 165.296 34.7181 165.296 35.4294C165.296 36.1407 165.873 36.7174 166.584 36.7174Z" fill="#70B696"/>
<path d="M145.705 42.2371H134.635C134.388 42.2371 134.188 42.4373 134.188 42.6842V49.8856C134.188 50.1326 134.388 50.3327 134.635 50.3327H145.705C145.952 50.3327 146.152 50.1326 146.152 49.8856V42.6842C146.152 42.4373 145.952 42.2371 145.705 42.2371Z" fill="white"/>
<path d="M164.631 42.2371H149.394C149.332 42.2371 149.281 42.2874 149.281 42.3494V43.4128C149.281 43.4748 149.332 43.5251 149.394 43.5251H164.631C164.693 43.5251 164.743 43.4748 164.743 43.4128V42.3494C164.743 42.2874 164.693 42.2371 164.631 42.2371Z" fill="white"/>
<path d="M164.631 44.9969H149.394C149.332 44.9969 149.281 45.0472 149.281 45.1092V46.1727C149.281 46.2346 149.332 46.2849 149.394 46.2849H164.631C164.693 46.2849 164.743 46.2346 164.743 46.1727V45.1092C164.743 45.0472 164.693 44.9969 164.631 44.9969Z" fill="white"/>
<path d="M164.631 47.7568H149.394C149.332 47.7568 149.281 47.8071 149.281 47.8691V48.9325C149.281 48.9945 149.332 49.0448 149.394 49.0448H164.631C164.693 49.0448 164.743 48.9945 164.743 48.9325V47.8691C164.743 47.8071 164.693 47.7568 164.631 47.7568Z" fill="white"/>
<path d="M145.705 54.9325H134.635C134.388 54.9325 134.188 55.1327 134.188 55.3796V62.581C134.188 62.828 134.388 63.0281 134.635 63.0281H145.705C145.952 63.0281 146.152 62.828 146.152 62.581V55.3796C146.152 55.1327 145.952 54.9325 145.705 54.9325Z" fill="white"/>
<path d="M164.631 54.9325H149.394C149.332 54.9325 149.281 54.9827 149.281 55.0447V56.1082C149.281 56.1702 149.332 56.2204 149.394 56.2204H164.631C164.693 56.2204 164.743 56.1702 164.743 56.1082V55.0447C164.743 54.9827 164.693 54.9325 164.631 54.9325Z" fill="white"/>
<path d="M164.631 57.6924H149.394C149.332 57.6924 149.281 57.7426 149.281 57.8046V58.8681C149.281 58.9301 149.332 58.9803 149.394 58.9803H164.631C164.693 58.9803 164.743 58.9301 164.743 58.8681V57.8046C164.743 57.7426 164.693 57.6924 164.631 57.6924Z" fill="white"/>
<path d="M164.622 60.4522H149.403C149.336 60.4522 149.281 60.5066 149.281 60.5736V61.6187C149.281 61.6858 149.336 61.7402 149.403 61.7402H164.622C164.689 61.7402 164.743 61.6858 164.743 61.6187V60.5736C164.743 60.5066 164.689 60.4522 164.622 60.4522Z" fill="white"/>
<path d="M145.705 67.6279H134.635C134.388 67.6279 134.188 67.8281 134.188 68.075V75.2765C134.188 75.5234 134.388 75.7236 134.635 75.7236H145.705C145.952 75.7236 146.152 75.5234 146.152 75.2765V68.075C146.152 67.8281 145.952 67.6279 145.705 67.6279Z" fill="white"/>
<path d="M164.622 67.6279H149.403C149.336 67.6279 149.281 67.6823 149.281 67.7494V68.7944C149.281 68.8615 149.336 68.9159 149.403 68.9159H164.622C164.689 68.9159 164.743 68.8615 164.743 68.7944V67.7494C164.743 67.6823 164.689 67.6279 164.622 67.6279Z" fill="white"/>
<path d="M164.622 70.3878H149.403C149.336 70.3878 149.281 70.4421 149.281 70.5092V71.5543C149.281 71.6213 149.336 71.6757 149.403 71.6757H164.622C164.689 71.6757 164.743 71.6213 164.743 71.5543V70.5092C164.743 70.4421 164.689 70.3878 164.622 70.3878Z" fill="white"/>
<path d="M164.622 73.1477H149.403C149.336 73.1477 149.281 73.2021 149.281 73.2691V74.3142C149.281 74.3813 149.336 74.4356 149.403 74.4356H164.622C164.689 74.4356 164.743 74.3813 164.743 74.3142V73.2691C164.743 73.2021 164.689 73.1477 164.622 73.1477Z" fill="white"/>
<path d="M145.705 80.3233H134.635C134.388 80.3233 134.188 80.5235 134.188 80.7704V87.9718C134.188 88.2188 134.388 88.4189 134.635 88.4189H145.705C145.952 88.4189 146.152 88.2188 146.152 87.9718V80.7704C146.152 80.5235 145.952 80.3233 145.705 80.3233Z" fill="white"/>
<path d="M164.622 80.3233H149.403C149.336 80.3233 149.281 80.3777 149.281 80.4447V81.4898C149.281 81.5569 149.336 81.6112 149.403 81.6112H164.622C164.689 81.6112 164.743 81.5569 164.743 81.4898V80.4447C164.743 80.3777 164.689 80.3233 164.622 80.3233Z" fill="white"/>
<path d="M164.622 83.0833H149.403C149.336 83.0833 149.281 83.1376 149.281 83.2047V84.2497C149.281 84.3168 149.336 84.3712 149.403 84.3712H164.622C164.689 84.3712 164.743 84.3168 164.743 84.2497V83.2047C164.743 83.1376 164.689 83.0833 164.622 83.0833Z" fill="white"/>
<path d="M164.622 85.8431H149.403C149.336 85.8431 149.281 85.8975 149.281 85.9646V87.0097C149.281 87.0767 149.336 87.1311 149.403 87.1311H164.622C164.689 87.1311 164.743 87.0767 164.743 87.0097V85.9646C164.743 85.8975 164.689 85.8431 164.622 85.8431Z" fill="white"/>
<path d="M145.705 93.0188H134.635C134.388 93.0188 134.188 93.219 134.188 93.4659V100.667C134.188 100.914 134.388 101.114 134.635 101.114H145.705C145.952 101.114 146.152 100.914 146.152 100.667V93.4659C146.152 93.219 145.952 93.0188 145.705 93.0188Z" fill="white"/>
<path d="M164.622 93.0188H149.403C149.336 93.0188 149.281 93.0732 149.281 93.1402V94.1853C149.281 94.2524 149.336 94.3067 149.403 94.3067H164.622C164.689 94.3067 164.743 94.2524 164.743 94.1853V93.1402C164.743 93.0732 164.689 93.0188 164.622 93.0188Z" fill="white"/>
<path d="M164.622 95.7786H149.403C149.336 95.7786 149.281 95.833 149.281 95.9001V96.9451C149.281 97.0122 149.336 97.0666 149.403 97.0666H164.622C164.689 97.0666 164.743 97.0122 164.743 96.9451V95.9001C164.743 95.833 164.689 95.7786 164.622 95.7786Z" fill="white"/>
<path d="M164.622 98.5385H149.403C149.336 98.5385 149.281 98.5929 149.281 98.6599V99.705C149.281 99.7721 149.336 99.8265 149.403 99.8265H164.622C164.689 99.8265 164.743 99.7721 164.743 99.705V98.6599C164.743 98.5929 164.689 98.5385 164.622 98.5385Z" fill="white"/>
<path opacity="0.1" d="M75.0548 59.8286H56.1268V60.8092H75.0548V59.8286Z" fill="#6C63FF"/>
<path opacity="0.1" d="M59.6316 54.6437H57.8093V59.8286H59.6316V54.6437Z" fill="#6C63FF"/>
<path opacity="0.1" d="M62.2951 54.6437H60.4728V59.8286H62.2951V54.6437Z" fill="#6C63FF"/>
<path opacity="0.1" d="M64.9587 54.6437H63.1364V59.8286H64.9587V54.6437Z" fill="#6C63FF"/>
<path opacity="0.1" d="M67.6221 54.6437H65.7998V59.8286H67.6221V54.6437Z" fill="#6C63FF"/>
<path opacity="0.1" d="M70.2856 54.6437H68.4633V59.8286H70.2856V54.6437Z" fill="#6C63FF"/>
<path opacity="0.1" d="M72.951 54.6437H71.1287V59.8286H72.951V54.6437Z" fill="#6C63FF"/>
<path opacity="0.1" d="M59.6316 55.6243H57.8093V56.1854H59.6316V55.6243Z" fill="#6C63FF"/>
<path opacity="0.1" d="M62.2951 55.6243H60.4728V56.1854H62.2951V55.6243Z" fill="#6C63FF"/>
<path opacity="0.1" d="M64.9587 55.6243H63.1364V56.1854H64.9587V55.6243Z" fill="#6C63FF"/>
<path opacity="0.1" d="M67.6221 55.6243H65.7998V56.1854H67.6221V55.6243Z" fill="#6C63FF"/>
<path opacity="0.1" d="M70.2856 55.6243H68.4633V56.1854H70.2856V55.6243Z" fill="#6C63FF"/>
<path opacity="0.1" d="M72.951 55.6243H71.1287V56.1854H72.951V55.6243Z" fill="#6C63FF"/>
<path opacity="0.1" d="M59.6316 58.1469H57.8093V58.708H59.6316V58.1469Z" fill="#6C63FF"/>
<path opacity="0.1" d="M62.2951 58.1469H60.4728V58.708H62.2951V58.1469Z" fill="#6C63FF"/>
<path opacity="0.1" d="M64.9587 58.1469H63.1364V58.708H64.9587V58.1469Z" fill="#6C63FF"/>
<path opacity="0.1" d="M67.6221 58.1469H65.7998V58.708H67.6221V58.1469Z" fill="#6C63FF"/>
<path opacity="0.1" d="M70.2856 58.1469H68.4633V58.708H70.2856V58.1469Z" fill="#6C63FF"/>
<path opacity="0.1" d="M72.951 58.1469H71.1287V58.708H72.951V58.1469Z" fill="#6C63FF"/>
<path opacity="0.1" d="M116.554 62.3511H97.6256V63.3317H116.554V62.3511Z" fill="#6C63FF"/>
<path opacity="0.1" d="M101.13 57.1661H99.3081V62.351H101.13V57.1661Z" fill="#6C63FF"/>
<path opacity="0.1" d="M103.794 57.1661H101.971V62.351H103.794V57.1661Z" fill="#6C63FF"/>
<path opacity="0.1" d="M106.457 57.1661H104.635V62.351H106.457V57.1661Z" fill="#6C63FF"/>
<path opacity="0.1" d="M109.123 57.1661H107.3V62.351H109.123V57.1661Z" fill="#6C63FF"/>
<path opacity="0.1" d="M111.786 57.1661H109.964V62.351H111.786V57.1661Z" fill="#6C63FF"/>
<path opacity="0.1" d="M114.45 57.1661H112.627V62.351H114.45V57.1661Z" fill="#6C63FF"/>
<path opacity="0.1" d="M101.13 58.1469H99.3081V58.708H101.13V58.1469Z" fill="#6C63FF"/>
<path opacity="0.1" d="M103.794 58.1469H101.971V58.708H103.794V58.1469Z" fill="#6C63FF"/>
<path opacity="0.1" d="M106.457 58.1469H104.635V58.708H106.457V58.1469Z" fill="#6C63FF"/>
<path opacity="0.1" d="M109.123 58.1469H107.3V58.708H109.123V58.1469Z" fill="#6C63FF"/>
<path opacity="0.1" d="M111.786 58.1469H109.964V58.708H111.786V58.1469Z" fill="#6C63FF"/>
<path opacity="0.1" d="M114.45 58.1469H112.627V58.708H114.45V58.1469Z" fill="#6C63FF"/>
<path opacity="0.1" d="M101.13 60.6694H99.3081V61.2306H101.13V60.6694Z" fill="#6C63FF"/>
<path opacity="0.1" d="M103.794 60.6694H101.971V61.2306H103.794V60.6694Z" fill="#6C63FF"/>
<path opacity="0.1" d="M106.457 60.6694H104.635V61.2306H106.457V60.6694Z" fill="#6C63FF"/>
<path opacity="0.1" d="M109.123 60.6694H107.3V61.2306H109.123V60.6694Z" fill="#6C63FF"/>
<path opacity="0.1" d="M111.786 60.6694H109.964V61.2306H111.786V60.6694Z" fill="#6C63FF"/>
<path opacity="0.1" d="M114.45 60.6694H112.627V61.2306H114.45V60.6694Z" fill="#6C63FF"/>
<path opacity="0.1" d="M116.554 69.4973H97.6256V70.478H116.554V69.4973Z" fill="#6C63FF"/>
<path opacity="0.1" d="M101.13 64.3124H99.3081V69.4973H101.13V64.3124Z" fill="#6C63FF"/>
<path opacity="0.1" d="M103.794 64.3124H101.971V69.4973H103.794V64.3124Z" fill="#6C63FF"/>
<path opacity="0.1" d="M106.457 64.3124H104.635V69.4973H106.457V64.3124Z" fill="#6C63FF"/>
<path opacity="0.1" d="M109.123 64.3124H107.3V69.4973H109.123V64.3124Z" fill="#6C63FF"/>
<path opacity="0.1" d="M111.786 64.3124H109.964V69.4973H111.786V64.3124Z" fill="#6C63FF"/>
<path opacity="0.1" d="M114.45 64.3124H112.627V69.4973H114.45V64.3124Z" fill="#6C63FF"/>
<path opacity="0.1" d="M101.13 65.2931H99.3081V65.8543H101.13V65.2931Z" fill="#6C63FF"/>
<path opacity="0.1" d="M103.794 65.2931H101.971V65.8543H103.794V65.2931Z" fill="#6C63FF"/>
<path opacity="0.1" d="M106.457 65.2931H104.635V65.8543H106.457V65.2931Z" fill="#6C63FF"/>
<path opacity="0.1" d="M109.123 65.2931H107.3V65.8543H109.123V65.2931Z" fill="#6C63FF"/>
<path opacity="0.1" d="M111.786 65.2931H109.964V65.8543H111.786V65.2931Z" fill="#6C63FF"/>
<path opacity="0.1" d="M114.45 65.2931H112.627V65.8543H114.45V65.2931Z" fill="#6C63FF"/>
<path opacity="0.1" d="M101.13 67.8156H99.3081V68.3768H101.13V67.8156Z" fill="#6C63FF"/>
<path opacity="0.1" d="M103.794 67.8156H101.971V68.3768H103.794V67.8156Z" fill="#6C63FF"/>
<path opacity="0.1" d="M106.457 67.8156H104.635V68.3768H106.457V67.8156Z" fill="#6C63FF"/>
<path opacity="0.1" d="M109.123 67.8156H107.3V68.3768H109.123V67.8156Z" fill="#6C63FF"/>
<path opacity="0.1" d="M111.786 67.8156H109.964V68.3768H111.786V67.8156Z" fill="#6C63FF"/>
<path opacity="0.1" d="M114.45 67.8156H112.627V68.3768H114.45V67.8156Z" fill="#6C63FF"/>
<path opacity="0.1" d="M67.7381 70.9178C67.597 70.7369 67.4678 70.547 67.3516 70.3492L70.0777 69.9021L67.1325 69.9242C66.8501 69.3094 66.6959 68.6435 66.6794 67.9672C66.663 67.2909 66.7846 66.6183 67.0368 65.9905L70.9852 68.0365L67.3387 65.3575C67.6779 64.7626 68.1366 64.2442 68.6858 63.8349C69.235 63.4255 69.8629 63.1341 70.5302 62.9789C71.1974 62.8237 71.8896 62.8081 72.5632 62.933C73.2368 63.058 73.8772 63.3207 74.4444 63.7049C75.0115 64.089 75.4931 64.5862 75.8589 65.1652C76.2246 65.7442 76.4667 66.3925 76.5698 67.0695C76.6729 67.7465 76.6349 68.4375 76.4582 69.0991C76.2815 69.7607 75.9698 70.3786 75.5427 70.9141C75.7646 71.194 75.9548 71.4976 76.1097 71.8193L72.5718 73.6592L76.3434 72.3952C76.6073 73.1769 76.6722 74.0119 76.5325 74.8249C76.3927 75.6379 76.0525 76.4033 75.5427 77.0521C76.1207 77.7845 76.4806 78.6648 76.5813 79.5922C76.682 80.5196 76.5195 81.4566 76.1123 82.2959C75.7052 83.1353 75.0698 83.8431 74.2789 84.3383C73.4881 84.8335 72.5737 85.0962 71.6404 85.0962C70.7072 85.0962 69.7928 84.8335 69.002 84.3383C68.2111 83.8431 67.5757 83.1353 67.1685 82.2959C66.7614 81.4566 66.5988 80.5196 66.6996 79.5922C66.8003 78.6648 67.1602 77.7845 67.7381 77.0521C67.0498 76.1767 66.6756 75.0956 66.6756 73.9822C66.6756 72.8687 67.0498 71.7876 67.7381 70.9123V70.9178Z" fill="#6C63FF"/>
<path opacity="0.1" d="M76.6067 73.9867C76.6068 75.0989 76.232 76.1788 75.5427 77.052C76.1206 77.7844 76.4806 78.6647 76.5813 79.5921C76.682 80.5195 76.5195 81.4565 76.1123 82.2958C75.7051 83.1352 75.0698 83.843 74.2789 84.3382C73.488 84.8334 72.5737 85.0961 71.6404 85.0961C70.7072 85.0961 69.7928 84.8334 69.002 84.3382C68.2111 83.843 67.5757 83.1352 67.1685 82.2958C66.7614 81.4565 66.5988 80.5195 66.6996 79.5921C66.8003 78.6647 67.1602 77.7844 67.7381 77.052C67.07 76.2111 76.6067 73.4292 76.6067 73.9867Z" fill="#6C63FF"/>
<path opacity="0.2" d="M72.4356 86.4134C72.4442 86.4265 72.4522 86.44 72.4595 86.4539H70.7734C70.7826 86.441 70.7882 86.4263 70.7974 86.4134C70.6522 86.1611 70.5772 85.8746 70.5802 85.5836C70.5794 85.3842 70.6136 85.1861 70.6814 84.9985V84.9985C70.7753 85.0133 70.8912 85.0298 71.0256 85.0445C71.4167 85.0836 71.8107 85.0836 72.2018 85.0445C72.3147 85.0335 72.4307 85.0188 72.5497 85.0004C72.5488 85.0034 72.5488 85.0066 72.5497 85.0096C72.6167 85.1941 72.6504 85.3891 72.6491 85.5855C72.6528 85.8755 72.5791 86.1613 72.4356 86.4134Z" fill="#3F3D56"/>
<path opacity="0.1" d="M66.376 86.4539H56.9883C56.9681 86.4005 56.9497 86.3435 56.9331 86.2883C56.6024 85.2251 56.6407 84.0814 57.0417 83.0427C56.1253 82.4093 55.4483 81.4866 55.1195 80.4225C54.7907 79.3584 54.8291 78.2148 55.2286 77.1752C55.04 77.0454 54.861 76.9021 54.693 76.7465L57.1632 75.5156L54.3543 76.4061C53.9026 75.9024 53.5586 75.3118 53.3434 74.6705C53.1282 74.0292 53.0462 73.3507 53.1026 72.6766L57.4853 73.4678L53.2112 71.983C53.3586 71.3135 53.6431 70.6817 54.0467 70.1274C54.4503 69.5732 54.9643 69.1084 55.5564 68.7624C56.1485 68.4164 56.8058 68.1966 57.4869 68.1169C58.1681 68.0372 58.8584 68.0992 59.5144 68.2992C60.1704 68.4991 60.7779 68.8326 61.2987 69.2787C61.8195 69.7247 62.2423 70.2737 62.5405 70.891C62.8387 71.5084 63.0058 72.1807 63.0314 72.8658C63.0569 73.5509 62.9404 74.2338 62.689 74.8716C62.9855 75.0778 63.2588 75.3153 63.5044 75.58L60.6661 78.3785L63.8965 76.0565C64.3806 76.7261 64.6901 77.5058 64.7968 78.325C64.9035 79.1443 64.8041 79.9771 64.5076 80.7483C65.3991 81.3654 66.0642 82.257 66.4016 83.2871C66.7389 84.3172 66.7299 85.4293 66.376 86.4539V86.4539Z" fill="#6C63FF"/>
<path opacity="0.1" d="M66.3759 86.4539H56.9883C56.9681 86.4006 56.9497 86.3436 56.9331 86.2884C56.6024 85.2252 56.6406 84.0815 57.0417 83.0427C56.1582 82.4319 64.4469 76.9581 64.6107 77.4917C64.9414 78.5555 64.9031 79.6998 64.5021 80.7392C65.3965 81.356 66.064 82.2488 66.4024 83.2809C66.7408 84.3131 66.7315 85.4276 66.3759 86.4539V86.4539Z" fill="#6C63FF"/>
<path opacity="0.1" d="M108.85 79.7309C108.28 80.6873 107.404 81.4237 106.363 81.821C106.408 82.175 106.415 82.5327 106.384 82.8882L102.406 82.649L106.292 83.4917C106.177 84.0211 105.977 84.5282 105.699 84.993C105.36 85.5623 104.909 86.0568 104.374 86.4466H98.9583V86.5882H93.4362C93.4472 86.5404 93.4582 86.4944 93.4711 86.4466C93.6726 85.6853 94.0522 84.9829 94.5787 84.3971C95.1052 83.8114 95.7634 83.3592 96.4991 83.0777C96.3578 81.9732 96.5919 80.8533 97.1637 79.8977C97.7355 78.9421 98.6119 78.2062 99.6522 77.8081C99.6231 77.5806 99.6096 77.3513 99.6117 77.1219L102.18 78.1357L99.6393 76.6435C99.7142 75.971 99.9258 75.3209 100.261 74.7331C100.596 74.1452 101.048 73.632 101.589 73.2249L103.928 77.0115L102.174 72.8422C103.13 72.3137 104.233 72.1145 105.313 72.2754C106.393 72.4363 107.39 72.9483 108.15 73.7324C108.91 74.5164 109.39 75.5288 109.517 76.613C109.643 77.6973 109.409 78.793 108.85 79.7309V79.7309Z" fill="#6C63FF"/>
<path opacity="0.1" d="M105.699 85.0004C105.36 85.5696 104.909 86.0641 104.374 86.4539H98.9583V86.5956H93.4362C93.4472 86.5478 93.4582 86.5018 93.4711 86.4539C93.6726 85.6927 94.0522 84.9903 94.5787 84.4045C95.1052 83.8188 95.7634 83.3665 96.4991 83.085C96.4531 82.7171 97.5225 82.7723 98.9491 83.0114C101.745 83.4806 105.889 84.6839 105.699 85.0004Z" fill="#6C63FF"/>
<path d="M82.2262 71.7512C82.2262 71.7512 82.9073 75.431 81.3869 76.6325C79.8664 77.834 82.6753 85.0354 87.3102 84.1946C91.9451 83.3537 93.8337 77.3133 93.8337 77.3133C93.8337 77.3133 89.1915 76.3528 90.9125 71.4716L82.2262 71.7512Z" fill="#EE8E9E"/>
<path opacity="0.1" d="M82.2262 71.7512C82.2262 71.7512 82.9073 75.431 81.3869 76.6325C79.8664 77.834 82.6753 85.0354 87.3102 84.1946C91.9451 83.3537 93.8337 77.3133 93.8337 77.3133C93.8337 77.3133 89.1915 76.3528 90.9125 71.4716L82.2262 71.7512Z" fill="black"/>
<path d="M86.3292 74.4522C90.5735 74.4522 94.0142 71.013 94.0142 66.7705C94.0142 62.5281 90.5735 59.0889 86.3292 59.0889C82.085 59.0889 78.6443 62.5281 78.6443 66.7705C78.6443 71.013 82.085 74.4522 86.3292 74.4522Z" fill="#EE8E9E"/>
<path d="M98.9583 81.3739V86.5956H73.5823V81.6113C73.5822 80.9792 73.7685 80.3612 74.1178 79.8344C74.4671 79.3075 74.964 78.8952 75.5463 78.649L76.2734 78.3399C78.1141 77.5561 80.3506 76.5828 81.0813 76.178C81.1614 76.1381 81.2367 76.0893 81.3059 76.0326C81.7053 75.6334 81.6262 76.1522 81.6262 76.1522C81.6262 76.1522 81.6151 76.2516 81.6078 76.4227C81.5636 77.5984 81.7329 82.2184 87.1501 81.8339C92.4348 81.4659 92.6723 77.8928 92.6189 76.8422C92.6159 76.745 92.6079 76.6479 92.595 76.5515C92.9605 76.6384 93.3182 76.7553 93.6644 76.9011C94.7688 77.3095 96.3997 77.9646 96.836 78.2737C96.9722 78.3693 97.1378 78.4687 97.3182 78.5699C97.5229 78.6839 97.7142 78.8203 97.8888 78.9765C98.2255 79.2787 98.4947 79.6484 98.6789 80.0614C98.8632 80.4745 98.9584 80.9217 98.9583 81.3739Z" fill="#2196F3"/>
<path opacity="0.1" d="M93.6644 76.9011C93.2171 78.9728 91.8127 82.8532 86.7507 82.9544C81.3574 83.0611 81.0445 77.6996 81.0795 76.178C81.1607 76.1391 81.2367 76.0903 81.3059 76.0326C81.7072 75.6334 81.6262 76.1522 81.6262 76.1522C81.6262 76.1522 80.947 82.2736 87.1483 81.8339C93.3497 81.3942 92.5876 76.5533 92.5876 76.5533C92.5876 76.5239 93.0496 76.684 93.6644 76.9011Z" fill="black"/>
<path d="M77.2325 67.1551C77.4876 67.0913 77.7561 67.1054 78.0031 67.1956C78.2502 67.2858 78.4645 67.4479 78.6185 67.661C78.8983 68.0529 78.9407 68.5258 78.9756 68.9784C79.3088 69.0483 79.4966 68.6711 79.5278 68.386C79.6512 67.225 79.6604 66.0419 80.0506 64.9196C80.4408 63.7972 81.2931 62.7117 82.6018 62.283C83.049 62.1281 83.5269 62.0827 83.9952 62.1505C84.2732 62.1965 84.5346 62.294 84.8107 62.3345C85.7678 62.4927 86.8078 62.0401 87.7043 62.3547C88.2675 62.5534 88.6246 63.0116 88.8878 63.4697C89.0023 63.7168 89.1579 63.9426 89.348 64.1376C89.729 64.4798 90.3254 64.5681 90.8721 64.6749C91.4188 64.7816 92.0152 64.9674 92.249 65.3887C92.4588 65.7696 92.3042 66.2093 92.2342 66.6215C92.1261 67.2744 92.2354 67.9447 92.5453 68.5295C92.6466 68.7135 92.8527 68.9361 93.0975 68.8754C93.2072 68.8383 93.2999 68.7633 93.3589 68.6638C93.9866 67.7843 93.97 66.6399 94.7579 65.8469C95.0211 65.5819 95.3616 65.3759 95.6175 65.1109C95.8111 64.9146 95.9531 64.6734 96.0308 64.4088C96.1086 64.1443 96.1196 63.8646 96.0629 63.5948C95.9212 62.9876 95.4352 62.4909 95.0432 61.9573C94.534 61.2813 94.1631 60.5117 93.9516 59.6924C93.9147 59.5971 93.9147 59.4914 93.9516 59.3961C94.026 59.2995 94.1218 59.2214 94.2314 59.168C94.4448 59.025 94.5987 58.8092 94.6645 58.561C94.7302 58.3128 94.7032 58.0491 94.5885 57.8193C94.3658 57.3649 93.8762 57.019 93.3239 56.8129C92.7638 56.629 92.1856 56.5056 91.5992 56.4449C91.2127 56.5001 90.7598 56.2812 90.6402 55.9721C90.5868 55.8341 90.5868 55.685 90.5334 55.547C90.461 55.4084 90.3563 55.2893 90.2282 55.1996C90.1 55.11 89.9522 55.0524 89.7972 55.0319C89.4679 54.9786 89.1308 55.0026 88.8124 55.1018C88.4442 55.2048 88.0264 55.3594 87.7079 55.179C87.5404 55.0852 87.4484 54.9141 87.268 54.8368C86.8999 54.6823 86.5207 54.9951 86.2575 55.2526C86.0038 55.5229 85.6924 55.7324 85.3463 55.8653C85.1636 55.9349 84.968 55.9642 84.773 55.9512C84.5779 55.9381 84.3879 55.8831 84.2161 55.7899C83.9639 55.6298 83.8369 55.3722 83.6363 55.168C83.2573 54.8302 82.7724 54.635 82.265 54.616C81.7432 54.5884 81.2204 54.6455 80.7169 54.7853C79.756 55.0194 78.8384 55.4044 77.9982 55.9261C77.5756 56.1582 77.217 56.4913 76.9545 56.8957C76.7992 57.2057 76.7191 57.548 76.7208 57.8948C76.6803 58.9822 77.041 60.1266 77.9816 60.8883C77.4073 61.1275 77.2141 61.7144 77.0797 62.2351C76.8643 63.0668 76.649 63.9113 76.73 64.7576C76.7705 65.1955 76.8901 65.6334 76.8257 66.0695C76.774 66.2748 76.7456 66.4853 76.741 66.6969C76.7681 66.8135 76.8293 66.9193 76.9168 67.0009C77.0044 67.0825 77.1143 67.1362 77.2325 67.1551V67.1551Z" fill="#454B69"/>
<g opacity="0.1">
<path opacity="0.1" d="M95.9431 63.2526C95.8605 63.4329 95.7485 63.5983 95.6118 63.742C95.356 64.0106 95.0154 64.2185 94.7522 64.4779C93.9644 65.2654 93.981 66.4172 93.3533 67.2967C93.2947 67.3962 93.2017 67.4708 93.0919 67.5064C92.8526 67.569 92.6464 67.3519 92.5397 67.1605C92.418 66.9276 92.3259 66.6803 92.2654 66.4246C92.2525 66.489 92.2396 66.5534 92.2286 66.6086C92.1204 67.2615 92.2297 67.9318 92.5397 68.5166C92.6409 68.7005 92.8471 68.9232 93.0919 68.8625C93.2015 68.8254 93.2942 68.7504 93.3533 68.6509C93.981 67.7714 93.9644 66.627 94.7522 65.834C95.0154 65.569 95.356 65.3629 95.6118 65.098C95.8055 64.9017 95.9475 64.6605 96.0252 64.3959C96.1029 64.1314 96.1139 63.8517 96.0573 63.5819C96.029 63.469 95.9908 63.3588 95.9431 63.2526V63.2526Z" fill="black"/>
<path opacity="0.1" d="M94.2277 57.8065C94.1176 57.8593 94.0218 57.9375 93.9479 58.0346C93.9111 58.1293 93.9111 58.2343 93.9479 58.329C94.0205 58.6149 94.1134 58.8953 94.2258 59.168V59.168C94.4392 59.025 94.5931 58.8092 94.6589 58.561C94.7246 58.3128 94.6976 58.0491 94.5829 57.8193C94.5471 57.7436 94.5039 57.6715 94.4541 57.6041C94.3887 57.682 94.3125 57.7502 94.2277 57.8065Z" fill="black"/>
<path opacity="0.1" d="M77.9932 59.5121C77.3411 58.9749 76.9115 58.2151 76.7876 57.3796C76.7545 57.5445 76.7361 57.7119 76.7323 57.88C76.6901 58.6834 76.902 59.4798 77.3379 60.156C77.4697 59.8682 77.703 59.6389 77.9932 59.5121V59.5121Z" fill="black"/>
<path opacity="0.1" d="M92.2341 65.2655C92.304 64.8515 92.4587 64.4118 92.2488 64.0327C92.015 63.6096 91.4187 63.4256 90.872 63.3188C90.3253 63.2121 89.7289 63.122 89.3479 62.7816C89.1578 62.5866 89.0022 62.3607 88.8877 62.1137C88.6282 61.6556 88.2674 61.1937 87.7041 60.9987C86.8077 60.6841 85.7677 61.1349 84.8105 60.9785C84.5344 60.9325 84.273 60.8368 83.9951 60.7945C83.5267 60.7261 83.0487 60.7715 82.6017 60.927C81.2929 61.3575 80.4407 62.443 80.0505 63.5636C79.6602 64.6841 79.651 65.8671 79.5277 67.03C79.4964 67.3133 79.3087 67.6923 78.9755 67.6224C78.9405 67.1679 78.8982 66.7024 78.6184 66.3032C78.4641 66.0904 78.2497 65.9287 78.0027 65.8388C77.7556 65.749 77.4873 65.7351 77.2323 65.799C77.0777 65.7645 76.9402 65.6765 76.8439 65.5507C76.8642 65.7193 76.8642 65.8898 76.8439 66.0585C76.7923 66.2638 76.7639 66.4742 76.7593 66.6859C76.783 66.8036 76.8414 66.9116 76.927 66.9959C77.0127 67.0801 77.1215 67.1369 77.2397 67.1587C77.4949 67.095 77.7633 67.1091 78.0103 67.1993C78.2574 67.2895 78.4717 67.4516 78.6258 67.6647C78.9055 68.0566 78.9479 68.5295 78.9828 68.9821C79.316 69.052 79.5038 68.6748 79.5351 68.3897C79.6584 67.2287 79.6676 66.0456 80.0578 64.9232C80.448 63.8009 81.3003 62.7154 82.609 62.2867C83.0562 62.1318 83.5341 62.0863 84.0025 62.1542C84.2804 62.2002 84.5418 62.2977 84.8179 62.3382C85.7751 62.4964 86.8151 62.0438 87.7115 62.3584C88.2747 62.5571 88.6318 63.0153 88.895 63.4734C89.0095 63.7204 89.1651 63.9463 89.3552 64.1413C89.7363 64.4835 90.3326 64.5718 90.8793 64.6785C91.426 64.7853 91.9838 64.9582 92.2286 65.3483C92.2194 65.3207 92.2286 65.2931 92.2341 65.2655Z" fill="black"/>
<path opacity="0.1" d="M76.8366 64.6932C76.867 64.3505 76.8465 64.0052 76.7759 63.6684C76.7219 64.0239 76.7102 64.3846 76.7409 64.7429C76.7409 64.8349 76.7612 64.9269 76.774 65.0171C76.7943 64.9085 76.8219 64.8018 76.8366 64.6932Z" fill="black"/>
</g>
<path d="M67.8282 94.0197V90.6986C67.8282 90.6737 67.8381 90.6499 67.8557 90.6323C67.8733 90.6147 67.8972 90.6048 67.9221 90.6048H68.2995C68.3244 90.6048 68.3482 90.6147 68.3658 90.6323C68.3835 90.6499 68.3933 90.6737 68.3933 90.6986V92.0804L69.9248 90.6618C69.9608 90.6318 70.0046 90.6125 70.051 90.6062C70.0974 90.5998 70.1448 90.6066 70.1875 90.6257C70.2303 90.6449 70.2668 90.6757 70.293 90.7146C70.3191 90.7535 70.3338 90.799 70.3353 90.8458V93.8541C70.3338 93.9009 70.3191 93.9464 70.293 93.9853C70.2668 94.0242 70.2303 94.055 70.1875 94.0742C70.1448 94.0934 70.0974 94.1002 70.051 94.0938C70.0046 94.0874 69.9608 94.0681 69.9248 94.0381L68.3933 92.6287V94.0031C68.3933 94.028 68.3835 94.0519 68.3658 94.0695C68.3482 94.0871 68.3244 94.097 68.2995 94.097H67.9221C67.8998 94.0973 67.8782 94.0897 67.861 94.0756C67.8438 94.0614 67.8322 94.0416 67.8282 94.0197Z" fill="#444053"/>
<path d="M104.832 90.6986V94.0196C104.832 94.0321 104.829 94.0445 104.825 94.056C104.82 94.0675 104.813 94.0779 104.804 94.0867C104.795 94.0954 104.784 94.1023 104.773 94.1069C104.761 94.1115 104.749 94.1137 104.736 94.1135H104.368C104.343 94.1135 104.319 94.1036 104.302 94.086C104.284 94.0684 104.274 94.0445 104.274 94.0196V92.6379L102.743 94.0546C102.707 94.0844 102.663 94.1036 102.616 94.1099C102.57 94.1162 102.522 94.1094 102.48 94.0902C102.437 94.0711 102.4 94.0404 102.374 94.0016C102.347 93.9628 102.332 93.9175 102.33 93.8706V90.8513C102.332 90.8045 102.347 90.7591 102.374 90.7203C102.4 90.6815 102.437 90.6508 102.48 90.6317C102.522 90.6126 102.57 90.6058 102.616 90.6121C102.663 90.6184 102.707 90.6375 102.743 90.6673L104.274 92.0767V90.7041C104.274 90.6792 104.284 90.6554 104.302 90.6378C104.319 90.6202 104.343 90.6103 104.368 90.6103H104.736C104.761 90.6098 104.784 90.6187 104.802 90.6352C104.82 90.6516 104.831 90.6744 104.832 90.6986V90.6986Z" fill="#444053"/>
<path d="M85.7052 94.1632H84.956C84.8584 94.1632 84.7648 94.1245 84.6957 94.0554C84.6267 93.9864 84.5879 93.8928 84.5879 93.7952V91.0464C84.5879 90.9488 84.6267 90.8552 84.6957 90.7862C84.7648 90.7172 84.8584 90.6784 84.956 90.6784H85.7052C85.8028 90.6784 85.8965 90.7172 85.9655 90.7862C86.0346 90.8552 86.0733 90.9488 86.0733 91.0464V93.7952C86.0733 93.8928 86.0346 93.9864 85.9655 94.0554C85.8965 94.1245 85.8028 94.1632 85.7052 94.1632ZM88.0797 93.7952V91.0464C88.0797 90.9488 88.0409 90.8552 87.9719 90.7862C87.9029 90.7172 87.8092 90.6784 87.7116 90.6784H86.955C86.8574 90.6784 86.7638 90.7172 86.6947 90.7862C86.6257 90.8552 86.5869 90.9488 86.5869 91.0464V93.7952C86.5869 93.8928 86.6257 93.9864 86.6947 94.0554C86.7638 94.1245 86.8574 94.1632 86.955 94.1632H87.7042C87.7532 94.1642 87.8018 94.1554 87.8474 94.1374C87.8929 94.1193 87.9343 94.0923 87.9693 94.0581C88.0043 94.0238 88.0321 93.9829 88.051 93.9378C88.07 93.8927 88.0797 93.8442 88.0797 93.7952V93.7952Z" fill="#444053"/>
<path opacity="0.6" d="M108.418 86.2221H64.2407V86.7134H108.418V86.2221Z" fill="#444053"/>
<path d="M77.8822 87.6315C78.5257 87.6315 79.0474 87.1101 79.0474 86.4669C79.0474 85.8236 78.5257 85.3022 77.8822 85.3022C77.2387 85.3022 76.717 85.8236 76.717 86.4669C76.717 87.1101 77.2387 87.6315 77.8822 87.6315Z" fill="#444053"/>
<path d="M77.8822 86.2221H64.2407V86.7134H77.8822V86.2221Z" fill="#444053"/>
<path d="M176.17 141.67C182.216 141.67 187.117 140.727 187.117 139.565C187.117 138.402 182.216 137.46 176.17 137.46C170.125 137.46 165.224 138.402 165.224 139.565C165.224 140.727 170.125 141.67 176.17 141.67Z" fill="#2196F3"/>
<path d="M175.988 140.338C176.692 140.338 177.262 139.591 177.262 138.671C177.262 137.75 176.692 137.004 175.988 137.004C175.285 137.004 174.714 137.75 174.714 138.671C174.714 139.591 175.285 140.338 175.988 140.338Z" fill="#3F3D56"/>
<path d="M175.988 138.299C176.692 138.299 177.262 137.553 177.262 136.632C177.262 135.711 176.692 134.965 175.988 134.965C175.285 134.965 174.714 135.711 174.714 136.632C174.714 137.553 175.285 138.299 175.988 138.299Z" fill="#3F3D56"/>
<path d="M175.988 136.262C176.692 136.262 177.262 135.516 177.262 134.595C177.262 133.675 176.692 132.928 175.988 132.928C175.285 132.928 174.714 133.675 174.714 134.595C174.714 135.516 175.285 136.262 175.988 136.262Z" fill="#3F3D56"/>
<path d="M175.988 134.224C176.692 134.224 177.262 133.477 177.262 132.557C177.262 131.636 176.692 130.89 175.988 130.89C175.285 130.89 174.714 131.636 174.714 132.557C174.714 133.477 175.285 134.224 175.988 134.224Z" fill="#3F3D56"/>
<path d="M175.988 132.185C176.692 132.185 177.262 131.439 177.262 130.518C177.262 129.597 176.692 128.851 175.988 128.851C175.285 128.851 174.714 129.597 174.714 130.518C174.714 131.439 175.285 132.185 175.988 132.185Z" fill="#3F3D56"/>
<path d="M175.988 130.146C176.692 130.146 177.262 129.4 177.262 128.479C177.262 127.559 176.692 126.812 175.988 126.812C175.285 126.812 174.714 127.559 174.714 128.479C174.714 129.4 175.285 130.146 175.988 130.146Z" fill="#3F3D56"/>
<path d="M175.988 128.108C176.692 128.108 177.262 127.361 177.262 126.441C177.262 125.52 176.692 124.774 175.988 124.774C175.285 124.774 174.714 125.52 174.714 126.441C174.714 127.361 175.285 128.108 175.988 128.108Z" fill="#3F3D56"/>
<path d="M180.757 112.494C180.931 112.272 181.09 112.039 181.232 111.795L177.882 111.243L181.505 111.271C181.852 110.515 182.041 109.696 182.061 108.865C182.081 108.034 181.931 107.207 181.621 106.435L176.765 108.956L181.245 105.665C180.825 104.939 180.261 104.308 179.586 103.81C178.912 103.312 178.142 102.959 177.325 102.772C176.508 102.584 175.661 102.567 174.837 102.721C174.012 102.876 173.229 103.198 172.535 103.668C171.841 104.138 171.251 104.746 170.802 105.454C170.354 106.162 170.056 106.954 169.927 107.782C169.798 108.61 169.841 109.456 170.054 110.267C170.266 111.078 170.643 111.836 171.162 112.494C170.892 112.837 170.659 113.207 170.466 113.598L174.814 115.856L170.179 114.301C169.853 115.263 169.773 116.29 169.945 117.29C170.116 118.291 170.535 119.232 171.162 120.031C170.454 120.931 170.014 122.012 169.892 123.15C169.769 124.288 169.97 125.438 170.471 126.468C170.971 127.497 171.751 128.365 172.722 128.973C173.693 129.58 174.815 129.902 175.961 129.902C177.106 129.902 178.228 129.58 179.199 128.973C180.17 128.365 180.95 127.497 181.451 126.468C181.951 125.438 182.152 124.288 182.03 123.15C181.907 122.012 181.467 120.931 180.759 120.031C181.605 118.955 182.064 117.627 182.064 116.259C182.064 114.891 181.605 113.563 180.759 112.487L180.757 112.494Z" fill="#70B696"/>
<path opacity="0.1" d="M169.857 116.266C169.854 117.634 170.314 118.964 171.162 120.038C170.454 120.938 170.014 122.019 169.892 123.157C169.769 124.295 169.97 125.445 170.471 126.475C170.971 127.504 171.751 128.373 172.722 128.98C173.693 129.587 174.815 129.909 175.961 129.909C177.106 129.909 178.228 129.587 179.199 128.98C180.17 128.373 180.95 127.504 181.451 126.475C181.951 125.445 182.152 124.295 182.03 123.157C181.907 122.019 181.467 120.938 180.759 120.038C181.577 119.002 169.857 115.582 169.857 116.266Z" fill="black"/>
<path opacity="0.1" d="M53.3805 153C63.4448 153 71.6035 151.27 71.6035 149.136C71.6035 147.002 63.4448 145.272 53.3805 145.272C43.3162 145.272 35.1575 147.002 35.1575 149.136C35.1575 151.27 43.3162 153 53.3805 153Z" fill="#6C63FF"/>
<path d="M59.4825 148.687C59.1144 148.553 58.7205 148.575 58.3358 148.533C57.537 148.44 56.7932 148.08 56.2263 147.51C55.8617 147.141 55.575 146.703 55.3833 146.222C55.5048 146.266 55.6262 146.312 55.7514 146.362C55.3833 145.502 55.7698 144.538 56.1085 143.67C56.6828 142.198 57.2258 140.718 57.7375 139.23C59.026 135.46 60.1305 131.539 60.1065 127.528C60.1065 126.078 59.8396 124.708 59.7881 123.26C59.7494 122.185 59.9151 121.112 59.9077 120.036C59.9077 119.885 59.9077 119.736 59.8967 119.585C60.226 119.297 60.4847 118.937 60.6529 118.533C60.821 118.13 60.8942 117.693 60.8667 117.256C60.848 117.028 60.8155 116.802 60.7692 116.579C60.704 116.191 60.618 115.806 60.5115 115.427C60.39 115.028 60.2243 114.645 60.0826 114.255C59.8083 113.499 59.6224 112.711 59.3887 111.942C59.4753 111.951 59.5598 111.974 59.639 112.01C59.58 111.941 59.5395 111.858 59.5212 111.769C59.3837 111.28 59.3095 110.775 59.3003 110.266L59.4568 110.196C59.5272 109.7 59.5016 109.194 59.3813 108.708C59.4696 107.918 59.6077 107.124 59.6924 106.338C59.7237 106.044 59.7108 105.674 59.4402 105.602C59.385 105.181 59.3629 104.754 59.3408 104.329C59.2635 102.846 59.1868 101.363 59.1107 99.8816C59.0334 98.3932 58.9561 96.9065 58.9266 95.4162C58.9064 94.4705 58.8953 93.4916 58.6708 92.5864C58.7096 92.1527 58.6652 91.7155 58.5401 91.2984C58.1977 90.2147 57.1338 89.3555 56.0551 89.4162C55.7334 88.9561 55.3357 88.5542 54.8789 88.2276C55.0943 87.7456 55.352 87.2488 55.5637 86.8587C57.2902 86.2975 58.553 84.5956 58.553 82.5717C58.5555 81.8309 58.382 81.1 58.0468 80.4393C58.0785 80.3581 58.1055 80.2751 58.1278 80.1909C58.2202 79.7935 58.1913 79.3776 58.0449 78.9968C57.9931 78.8506 57.9316 78.708 57.8609 78.5699C57.813 78.4779 57.7615 78.3859 57.7081 78.2976L57.6142 78.1559C57.5571 78.0695 57.4982 77.9867 57.4301 77.9057C57.2994 77.7302 57.1593 77.5619 57.0105 77.4016C56.8272 77.2033 56.625 77.0233 56.4067 76.8643C56.1107 76.6444 55.7722 76.4884 55.4127 76.4062C55.2048 76.3651 54.9932 76.346 54.7814 76.3491C54.6543 76.3491 54.5255 76.3491 54.3985 76.3602C54.1408 76.3749 53.8849 76.3933 53.6291 76.3914C53.5444 76.3914 53.4579 76.3914 53.3732 76.3786C52.9228 76.3186 52.4774 76.2257 52.0405 76.1007L51.8197 76.0547C51.7442 76.04 51.6706 76.0271 51.5951 76.0179C51.3932 75.991 51.1895 75.9787 50.9858 75.9811H50.7815C50.5774 75.991 50.374 76.0118 50.1722 76.0437L49.9697 76.075C49.4585 76.155 48.9601 76.3029 48.488 76.5147C48.4272 76.5423 48.3647 76.5736 48.3039 76.6067L48.2671 76.627C48.2174 76.6527 48.1677 76.6803 48.1198 76.7098L48.0922 76.7263L47.9358 76.8257L47.9229 76.8349C46.4614 77.8174 45.5981 79.6794 45.379 81.5267C45.1342 83.6002 45.5631 85.6904 45.992 87.7308L46.3785 89.5708C46.3951 89.6536 46.4135 89.7345 46.4301 89.8173C45.8865 90.2631 45.4685 90.8427 45.217 91.499C44.8489 92.419 44.8397 93.4143 44.8691 94.4116C44.8691 94.614 44.8802 94.8164 44.9004 95.0188C44.8544 95.4015 44.8139 95.786 44.7882 96.1724C44.6722 97.9571 44.8894 99.751 44.8323 101.539C44.7882 102.918 44.5802 104.299 44.6814 105.668C44.7697 106.883 45.0956 108.06 45.4177 109.232L45.8815 110.903C45.8966 110.989 45.9369 111.069 45.9975 111.133C46.0737 111.184 46.1669 111.203 46.257 111.186C45.9553 111.871 45.7031 112.577 45.5024 113.298C45.3637 113.74 45.2723 114.195 45.2299 114.656C45.1692 115.499 45.3643 116.336 45.5594 117.155C45.8539 118.381 46.1472 119.613 46.4393 120.849C46.6454 121.714 46.851 122.578 47.0559 123.442C47.4609 125.146 47.8677 126.86 47.9431 128.614C47.9852 129.494 47.9234 130.377 47.7591 131.243C47.228 133.837 47.1508 136.503 47.5308 139.123C47.838 141.334 48.3362 143.514 49.0199 145.638C49.169 145.559 49.32 145.486 49.4746 145.418L49.4102 145.537C49.1979 145.905 49.0015 146.282 48.8211 146.669C48.6996 146.92 48.5944 147.179 48.5064 147.443C48.2708 148.179 48.234 148.963 48.2008 149.738C48.184 149.887 48.1971 150.038 48.2395 150.181C48.3407 150.459 48.6316 150.601 48.9021 150.678C49.6973 150.904 50.5238 150.823 51.3503 150.717C51.3541 150.735 51.3597 150.753 51.3668 150.77C51.4681 151.048 51.7571 151.19 52.0295 151.267C53.1671 151.591 54.3672 151.285 55.5397 151.175C56.7123 151.064 57.8645 151.145 58.9929 150.875C59.1611 150.839 59.3226 150.777 59.4715 150.691C59.7616 150.488 59.9744 150.193 60.0752 149.854C60.1106 149.766 60.1341 149.674 60.1452 149.58C60.1912 149.177 59.847 148.822 59.4825 148.687ZM55.5894 131.648C55.526 132.079 55.402 132.499 55.2213 132.895C54.3358 134.777 53.7009 136.767 53.3327 138.814C53.0911 140.166 52.9515 141.535 52.9149 142.908C52.8965 143.92 52.9351 144.98 52.5136 145.889L52.6664 145.865C52.6185 145.953 52.5725 146.049 52.5283 146.119L52.5062 146.159C52.2513 145.725 52.0808 145.247 52.0037 144.75C52.0037 144.733 51.9209 144.72 51.7939 144.713C51.2735 141.807 51.0932 138.85 51.2564 135.902C51.2589 135.544 51.3084 135.188 51.4037 134.844C51.4975 134.547 51.6558 134.277 51.7718 133.99C51.9557 133.508 52.0793 133.005 52.1399 132.492C52.3404 131.183 52.4181 129.857 52.3719 128.533C52.3277 127.283 52.6167 126.042 52.8633 124.798C52.9811 124.207 53.0897 123.615 53.1486 123.022L53.1597 122.903C54.2549 124.709 55.0202 126.695 55.4201 128.768C55.6424 129.711 55.6997 130.685 55.5894 131.648V131.648ZM47.7112 105.057L47.7701 105.109C47.948 105.265 48.1119 105.437 48.2597 105.622C48.3333 105.703 48.3863 105.8 48.4143 105.906C48.4696 106.174 48.2468 106.402 48.0646 106.599C47.9854 106.685 47.9111 106.774 47.8419 106.868C47.8026 106.264 47.7609 105.661 47.7167 105.057H47.7112Z" fill="url(#paint0_linear)"/>
<path d="M45.1635 93.5248L44.9611 95.0869C44.893 95.6168 44.8249 96.1448 44.788 96.6765C44.6647 98.4465 44.893 100.224 44.8341 101.998C44.7862 103.363 44.569 104.726 44.6739 106.09C44.7678 107.293 45.1102 108.463 45.4525 109.622L45.9385 111.278C45.9551 111.365 45.9974 111.444 46.06 111.506C46.1536 111.562 46.2648 111.579 46.3711 111.556L48.5284 111.361C48.3903 110.728 48.2375 110.073 48.1602 109.423C48.1013 108.916 48.0663 108.404 48.0295 107.893C47.9154 106.299 47.7847 104.706 47.6614 103.109L47.4313 100.312C47.3337 99.0979 47.2325 97.878 46.9269 96.6986C46.6203 95.5074 46.0132 94.4146 45.1635 93.5248Z" fill="#FF5722"/>
<path opacity="0.1" d="M45.1635 93.5248L44.9611 95.0869C44.893 95.6168 44.8249 96.1448 44.788 96.6765C44.6647 98.4465 44.893 100.224 44.8341 101.998C44.7862 103.363 44.569 104.726 44.6739 106.09C44.7678 107.293 45.1102 108.463 45.4525 109.622L45.9385 111.278C45.9551 111.365 45.9974 111.444 46.06 111.506C46.1536 111.562 46.2648 111.579 46.3711 111.556L48.5284 111.361C48.3903 110.728 48.2375 110.073 48.1602 109.423C48.1013 108.916 48.0663 108.404 48.0295 107.893C47.9154 106.299 47.7847 104.706 47.6614 103.109L47.4313 100.312C47.3337 99.0979 47.2325 97.878 46.9269 96.6986C46.6203 95.5074 46.0132 94.4146 45.1635 93.5248Z" fill="black"/>
<path d="M49.007 146.702C48.8803 146.951 48.7697 147.208 48.6757 147.471C48.429 148.198 48.3922 148.978 48.3554 149.745C48.3391 149.893 48.3529 150.043 48.3959 150.185C48.5026 150.461 48.8082 150.601 49.0935 150.676C50.2881 150.998 51.5472 150.696 52.7749 150.586C54.0027 150.476 55.2157 150.557 56.4011 150.29C56.5762 150.256 56.7454 150.197 56.9036 150.115C57.2038 149.92 57.4279 149.627 57.5387 149.287C57.5744 149.2 57.5985 149.108 57.6105 149.015C57.6491 148.61 57.2975 148.26 56.9147 148.128C56.5318 147.995 56.114 148.016 55.7108 147.975C54.8806 147.89 54.1016 147.534 53.4945 146.961C52.8875 146.389 52.4864 145.632 52.3534 144.809C52.3387 144.72 50.3581 144.774 50.1445 144.888C49.9016 145.022 49.7543 145.355 49.6163 145.581C49.3991 145.946 49.196 146.319 49.007 146.702Z" fill="#A26565"/>
<path opacity="0.1" d="M49.007 146.702C48.8803 146.951 48.7697 147.208 48.6757 147.471C48.429 148.198 48.3922 148.978 48.3554 149.745C48.3391 149.893 48.3529 150.043 48.3959 150.185C48.5026 150.461 48.8082 150.601 49.0935 150.676C50.2881 150.998 51.5472 150.696 52.7749 150.586C54.0027 150.476 55.2157 150.557 56.4011 150.29C56.5762 150.256 56.7454 150.197 56.9036 150.115C57.2038 149.92 57.4279 149.627 57.5387 149.287C57.5744 149.2 57.5985 149.108 57.6105 149.015C57.6491 148.61 57.2975 148.26 56.9147 148.128C56.5318 147.995 56.114 148.016 55.7108 147.975C54.8806 147.89 54.1016 147.534 53.4945 146.961C52.8875 146.389 52.4864 145.632 52.3534 144.809C52.3387 144.72 50.3581 144.774 50.1445 144.888C49.9016 145.022 49.7543 145.355 49.6163 145.581C49.3991 145.946 49.196 146.319 49.007 146.702Z" fill="black"/>
<path d="M52.2927 147.287C52.1653 147.535 52.0546 147.791 51.9614 148.054C51.7129 148.79 51.676 149.561 51.6411 150.328C51.6239 150.476 51.6377 150.626 51.6816 150.768C51.7865 151.044 52.092 151.184 52.3773 151.261C53.572 151.581 54.8329 151.28 56.0588 151.169C57.2847 151.059 58.5014 151.14 59.685 150.873C59.8608 150.838 60.0303 150.775 60.1875 150.689C60.488 150.494 60.7123 150.202 60.8225 149.861C60.8582 149.774 60.8824 149.682 60.8943 149.589C60.933 149.186 60.5814 148.834 60.1985 148.702C59.8157 148.569 59.3978 148.592 58.9947 148.549C58.1648 148.464 57.3862 148.108 56.7792 147.536C56.1723 146.964 55.7709 146.208 55.6372 145.385C55.6225 145.296 53.6419 145.348 53.4284 145.462C53.1836 145.596 53.0363 145.929 52.8983 146.156C52.6884 146.529 52.4823 146.904 52.2927 147.287Z" fill="#A26565"/>
<path d="M60.8575 127.742C60.8833 131.718 59.7273 135.604 58.3707 139.333C57.8332 140.812 57.2632 142.279 56.6607 143.732C56.3036 144.593 55.9005 145.55 56.2833 146.4C55.1789 145.981 54.0561 145.734 52.8946 145.927C53.3364 145.026 53.294 143.977 53.3143 142.984C53.3518 141.622 53.497 140.265 53.7487 138.926C54.1385 136.889 54.8068 134.915 55.7348 133.059C55.9224 132.668 56.052 132.251 56.1195 131.823C56.2704 130.877 56.1526 129.905 55.9557 128.969C55.532 126.9 54.7267 124.929 53.5812 123.155L53.5701 123.272C53.5014 123.864 53.4018 124.452 53.2719 125.033C53.0124 126.264 52.7087 127.497 52.7547 128.735C52.8027 130.048 52.7213 131.363 52.5117 132.66C52.4442 133.169 52.3112 133.667 52.116 134.143C51.989 134.428 51.8233 134.695 51.7239 134.991C51.6244 135.332 51.5724 135.685 51.5693 136.04C51.422 139.033 51.5693 142.073 52.1804 145.007C51.1551 144.926 50.1298 145.223 49.2132 145.683C48.4964 143.582 47.9727 141.42 47.6486 139.225C47.2492 136.628 47.3303 133.98 47.8879 131.412C48.0616 130.556 48.1266 129.681 48.0811 128.809C48.002 127.07 47.5749 125.37 47.1497 123.681L46.5018 121.105C46.195 119.878 45.8882 118.657 45.5815 117.442C45.3771 116.63 45.171 115.801 45.2354 114.965C45.2803 114.507 45.3767 114.055 45.5225 113.618C45.9821 112.133 46.6695 110.728 47.5602 109.453C51.1073 109.652 54.6966 109.32 58.2363 109.048C58.408 109.014 58.5861 109.044 58.737 109.133C58.8576 109.255 58.9296 109.417 58.9395 109.589L60.2703 117.133C60.4858 118.181 60.612 119.246 60.6477 120.316C60.6477 121.383 60.482 122.446 60.5225 123.512C60.5777 124.947 60.8501 126.305 60.8575 127.742Z" fill="#454B69"/>
<path opacity="0.1" d="M53.5738 123.272C53.5051 123.864 53.4056 124.452 53.2757 125.033C52.5044 123.699 51.6724 122.399 50.9619 121.031C50.7778 120.68 50.6048 120.323 50.4299 119.966L49.9053 118.899C49.8078 118.698 49.7102 118.498 49.6218 118.294C49.478 118 49.3675 117.692 49.2924 117.374C49.5501 117.326 50.1869 118.021 50.3784 118.203C50.7689 118.59 51.1376 118.998 51.4828 119.425C51.9021 119.9 52.2872 120.404 52.6351 120.934C53.0806 121.654 53.3982 122.445 53.5738 123.272V123.272Z" fill="black"/>
<path d="M56.5281 86.6747C56.5281 86.6747 54.5586 89.8118 54.923 90.4686C55.2875 91.1255 48.7198 89.8854 48.7198 89.8854C48.7198 89.8854 52.2963 86.7483 51.93 85.4346C51.5637 84.1209 56.5281 86.6747 56.5281 86.6747Z" fill="#EFB7B9"/>
<path d="M54.7776 87.6241C57.2368 87.6241 59.2303 85.6314 59.2303 83.1734C59.2303 80.7153 57.2368 78.7226 54.7776 78.7226C52.3185 78.7226 50.325 80.7153 50.325 83.1734C50.325 85.6314 52.3185 87.6241 54.7776 87.6241Z" fill="#EFB7B9"/>
<path d="M56.5944 89.9645C56.1176 89.3033 55.4708 88.7832 54.7224 88.4595C54.2912 88.3051 53.8452 88.1954 53.3916 88.132L51.6153 87.8192C51.1809 87.7419 50.7152 87.6702 50.3102 87.8486C50.1055 87.9536 49.919 88.0909 49.758 88.2553C49.1414 88.8275 48.5432 89.4549 47.7682 89.7861C47.5565 89.8762 47.3357 89.9425 47.124 90.0326C46.257 90.4006 45.6091 91.1844 45.2428 92.0565C44.8562 92.9654 44.8452 93.9535 44.8746 94.9415C44.8741 95.2826 44.908 95.6229 44.9759 95.9571C45.0645 96.2755 45.1771 96.5867 45.3127 96.8881C45.5575 97.5332 45.7628 98.1924 45.9275 98.8624C46.3877 100.623 46.7706 102.401 47.0761 104.198C47.102 104.456 47.1777 104.705 47.2988 104.934C47.4704 105.163 47.6781 105.362 47.9136 105.525C48.1005 105.678 48.2724 105.849 48.4272 106.034C48.5043 106.11 48.5618 106.204 48.5947 106.307C48.6518 106.572 48.4106 106.8 48.2266 106.993C47.8304 107.397 47.5441 107.895 47.3946 108.441C47.3022 108.553 47.255 108.695 47.262 108.84C47.3004 108.941 47.3149 109.049 47.3044 109.157C47.2681 109.254 47.211 109.343 47.1369 109.416C47.0519 109.527 46.9916 109.654 46.9598 109.79C46.9281 109.926 46.9257 110.067 46.9528 110.204C48.3325 110.803 49.8091 111.148 51.3116 111.223C51.6797 111.241 52.0479 111.241 52.416 111.285C52.6774 111.319 52.9351 111.372 53.1965 111.403C53.5758 111.439 53.9571 111.449 54.3377 111.433C56.3202 111.392 58.3597 111.343 60.1801 110.557C60.3513 109.624 59.9813 108.673 59.7494 107.753C59.3813 106.281 59.2892 104.774 59.0131 103.289C58.829 102.275 58.5529 101.276 58.3965 100.255C58.24 99.234 58.2124 98.1761 58.4848 97.1825C58.7333 96.303 58.8088 95.4052 59.0665 94.5275C59.3242 93.6499 59.5046 92.6987 59.2138 91.8302C58.8456 90.7557 57.7283 89.9038 56.5944 89.9645Z" fill="#FF5722"/>
<path d="M58.7813 80.8127C58.9985 80.0234 58.5714 79.201 58.0634 78.5588C57.5112 77.8689 56.808 77.247 55.9447 77.074C55.2434 76.9323 54.5163 77.1035 53.8021 77.0464C53.1708 76.9967 52.5634 76.7686 51.9357 76.6784C51.3662 76.6171 50.7908 76.6388 50.2275 76.7428C49.693 76.8223 49.1705 76.9681 48.6721 77.1771C46.7762 78.0179 45.6662 80.0896 45.4085 82.1448C45.1508 84.2 45.6018 86.2718 46.0509 88.2938L46.4577 90.1227C46.8811 92.027 47.3045 93.9387 47.4167 95.8853C47.529 97.832 47.3192 99.8301 46.5185 101.607C49.1079 100.217 51.1143 97.9466 52.175 95.2064C52.4621 94.4539 52.6756 93.6719 52.9959 92.9323C53.2702 92.2956 53.6218 91.6922 53.8647 91.0427C54.1394 90.3096 54.2712 89.5308 54.2531 88.7483C54.2384 88.1595 54.1408 87.5744 54.1574 86.9856C54.174 86.3969 54.3249 85.7842 54.7317 85.3573C55.0998 84.9801 55.606 84.8054 56.0717 84.5606C56.8049 84.1842 57.4454 83.6501 57.9474 82.9967C58.2401 82.614 58.2567 82.4447 58.3303 82.0105C58.4039 81.5763 58.6671 81.2304 58.7813 80.8127Z" fill="#A26565"/>
<path d="M58.7867 114.246C58.8327 114.704 58.7499 115.166 58.8493 115.62C58.9248 115.959 59.0996 116.264 59.2027 116.595C59.3047 116.978 59.3573 117.372 59.3592 117.767C59.3739 118.099 59.3481 118.503 59.0536 118.658C58.9248 118.726 58.7701 118.726 58.6358 118.785C58.5014 118.844 58.3873 119.004 58.4646 119.129C58.5419 119.254 58.6744 119.234 58.7959 119.258C58.9174 119.282 59.0481 119.407 58.98 119.508C58.9523 119.541 58.915 119.565 58.8732 119.576C58.7503 119.614 58.6337 119.67 58.5272 119.742C58.4751 119.78 58.4344 119.831 58.4094 119.89C58.3844 119.95 58.3761 120.015 58.3854 120.078C58.3929 120.109 58.4071 120.137 58.427 120.161C58.447 120.186 58.4722 120.205 58.5007 120.218C58.5292 120.231 58.5603 120.238 58.5916 120.237C58.623 120.236 58.6538 120.229 58.6818 120.215C58.6278 120.33 58.5983 120.455 58.5953 120.583C59.0665 120.785 59.5948 120.52 60.0366 120.264C60.2276 120.158 60.412 120.04 60.5888 119.911C60.9461 119.637 61.2309 119.279 61.4183 118.87C61.6057 118.46 61.6899 118.011 61.6637 117.561C61.6427 117.336 61.6077 117.111 61.5588 116.89C61.4909 116.504 61.4005 116.123 61.2882 115.747C61.1612 115.352 60.9882 114.974 60.8391 114.586C60.5225 113.76 60.3182 112.895 60.031 112.058C60.0118 111.971 59.963 111.894 59.893 111.839C59.8297 111.808 59.759 111.795 59.6887 111.801C59.3664 111.784 59.0434 111.813 58.7296 111.889C58.5456 111.944 58.2308 112.073 58.1443 112.257C58.0578 112.441 58.1958 112.595 58.2787 112.748C58.5432 113.21 58.7158 113.719 58.7867 114.246Z" fill="#EFB7B9"/>
<path opacity="0.1" d="M58.4867 91.889C58.5812 91.9858 58.6606 92.0962 58.7223 92.2165C59.3555 93.3665 59.3629 94.7409 59.3923 96.0528C59.4254 97.5247 59.5064 98.9966 59.5874 100.478L59.8286 104.894C59.8525 105.315 59.8746 105.736 59.9353 106.154C60.2188 106.226 60.2298 106.594 60.1985 106.89C59.9942 108.689 59.488 110.542 60.0145 112.273C60.0348 112.362 60.0772 112.445 60.1378 112.513C59.8705 112.429 59.5845 112.425 59.315 112.502C59.0518 112.557 58.7978 112.654 58.5327 112.715C58.1977 112.79 57.8185 112.824 57.5903 113.083C57.3316 112.305 57.1256 111.511 56.9736 110.706C56.8484 109.97 56.8135 109.212 56.5153 108.531C56.3956 108.257 56.2337 108.003 56.0864 107.74C55.3151 106.364 54.936 104.809 54.566 103.274C54.3999 102.547 54.3601 101.796 54.4482 101.056C54.5017 100.718 54.5325 100.376 54.5402 100.034C54.5178 99.6733 54.4704 99.3143 54.3985 98.9598C54.2421 97.9195 54.3156 96.8575 54.6138 95.8485C54.8899 94.912 55.1329 93.9258 55.7183 93.1383C56.3036 92.3509 57.5093 91.9019 58.4867 91.889Z" fill="black"/>
<path d="M58.7057 91.7418C58.8002 91.8392 58.8796 91.9502 58.9413 92.0712C59.5745 93.2193 59.5818 94.5955 59.6113 95.9074C59.6444 97.3793 59.7254 98.8512 59.8064 100.323L60.0475 104.739C60.0715 105.16 60.0936 105.582 60.1543 105.999C60.4378 106.071 60.4488 106.439 60.4157 106.735C60.2132 108.535 59.707 110.386 60.2316 112.119C60.2519 112.208 60.2943 112.29 60.3549 112.358C60.0876 112.274 59.8016 112.271 59.5321 112.347C59.2689 112.402 59.0149 112.5 58.7498 112.559C58.4148 112.636 58.0356 112.667 57.8074 112.927C57.5495 112.145 57.3454 111.347 57.1963 110.538C57.0711 109.802 57.0361 109.046 56.738 108.365C56.6085 108.095 56.4653 107.831 56.3091 107.574C55.536 106.198 55.1586 104.641 54.7886 103.107C54.6226 102.38 54.5827 101.629 54.6708 100.888C54.8095 100.194 54.7925 99.4787 54.6211 98.7924C54.4647 97.7526 54.5382 96.6912 54.8365 95.6829C55.1126 94.7464 55.3556 93.7602 55.9409 92.9727C56.5263 92.1852 57.7283 91.7565 58.7057 91.7418Z" fill="#FF5722"/>
<g opacity="0.1">
<path opacity="0.1" d="M58.0632 78.5588C57.5109 77.8689 56.8078 77.247 55.9445 77.074C55.2432 76.9323 54.5161 77.1035 53.8019 77.0464C53.1706 76.9967 52.5631 76.7686 51.9354 76.6784C51.3659 76.6171 50.7905 76.6388 50.2273 76.7428C49.6927 76.8223 49.1702 76.9681 48.6719 77.1771C48.4027 77.2976 48.1456 77.4436 47.9043 77.6131C48.3479 77.4409 48.8089 77.3175 49.2793 77.2451C49.8419 77.1409 50.4167 77.1192 50.9856 77.1807C51.6152 77.2617 52.2208 77.488 52.854 77.5377C53.5663 77.5947 54.2934 77.4254 54.9965 77.5653C55.8598 77.7382 56.5667 78.362 57.1133 79.0519C57.6232 79.6922 58.0484 80.5147 57.8331 81.3058C57.7189 81.7216 57.4539 82.086 57.3821 82.5147C57.3103 82.9434 57.2919 83.1181 56.9974 83.5008C56.6198 83.9916 56.1632 84.4163 55.6463 84.7575C55.788 84.6913 55.9335 84.625 56.0715 84.5533C56.8046 84.1768 57.4452 83.6427 57.9472 82.9893C58.2399 82.6066 58.2564 82.4374 58.3301 82.0032C58.4037 81.5689 58.6669 81.212 58.781 80.7943C58.9982 80.0234 58.5712 79.201 58.0632 78.5588Z" fill="black"/>
<path opacity="0.1" d="M54.7315 85.3683C54.8078 85.2893 54.8909 85.2173 54.98 85.1531C54.5548 85.3591 54.1075 85.5395 53.7817 85.889C53.3749 86.3141 53.2295 86.9286 53.2074 87.5174C53.1853 88.1061 53.2903 88.6912 53.3032 89.2782C53.3212 90.0613 53.1894 90.8407 52.9148 91.5744C52.6718 92.2239 52.3202 92.8255 52.046 93.464C51.7275 94.1999 51.514 94.9837 51.2268 95.7363C50.3066 98.112 48.6726 100.144 46.5496 101.554C46.5386 101.578 46.5294 101.604 46.5183 101.628C49.1078 100.237 51.1142 97.9668 52.1748 95.2266C52.462 94.4741 52.6755 93.6921 52.9958 92.9525C53.27 92.3159 53.6216 91.7124 53.8646 91.0629C54.1392 90.3298 54.271 89.5511 54.253 88.7685C54.2382 88.1797 54.1407 87.5946 54.1572 87.0059C54.1738 86.4171 54.3247 85.7952 54.7315 85.3683Z" fill="black"/>
</g>
<defs>
<linearGradient id="paint0_linear" x1="52.7695" y1="151.405" x2="52.7695" y2="75.9867" gradientUnits="userSpaceOnUse">
<stop stop-color="#808080" stop-opacity="0.25"/>
<stop offset="0.54" stop-color="#808080" stop-opacity="0.12"/>
<stop offset="1" stop-color="#808080" stop-opacity="0.1"/>
</linearGradient>
</defs>
</svg>
