<svg width="205" height="153" viewBox="0 0 205 153" fill="none" xmlns="http://www.w3.org/2000/svg">
<path d="M82.676 11.3684L79.5811 13.4077L81.4595 9.85911C80.9276 9.41848 80.2695 9.17444 79.589 9.16553H79.5392C79.3242 9.16956 79.1093 9.15362 78.8971 9.11792L77.8481 9.80735L78.2968 8.9585C77.5533 8.68846 76.9111 8.18118 76.4622 7.50924L74.5857 8.75146L75.7782 6.50926C74.6814 5.14282 73.2017 4.30225 71.5725 4.30225C69.6202 4.30225 67.8813 5.50927 66.7586 7.38709C66.4266 7.95093 65.9561 8.41297 65.3954 8.72585C64.8348 9.03873 64.204 9.19119 63.5679 9.1676H63.4642C61.3085 9.1676 59.5616 11.7059 59.5616 14.8342C59.5616 17.9625 61.3085 20.5008 63.4642 20.5008C63.9376 20.499 64.4036 20.3782 64.8222 20.1488C66.2281 19.389 68.0747 19.3745 69.5464 20.0515C70.1783 20.3443 70.8626 20.4956 71.5545 20.4956C72.2465 20.4956 72.9308 20.3443 73.5627 20.0515C74.3037 19.7181 75.1051 19.5538 75.9126 19.5699C76.7201 19.586 77.5148 19.782 78.243 20.1447C78.6586 20.3699 79.1202 20.4884 79.589 20.4904C81.7447 20.4904 83.4916 17.9542 83.4916 14.8238C83.5025 13.6193 83.222 12.4312 82.676 11.3684Z" fill="#F2F2F2"/>
<path opacity="0.03" d="M76.8431 19.6602C75.7168 19.4384 74.5525 19.5703 73.4989 20.0391C72.8673 20.3318 72.1834 20.4831 71.4917 20.4831C70.8001 20.4831 70.1162 20.3318 69.4846 20.0391C68.7375 19.6989 67.9281 19.5312 67.1124 19.5477C66.2968 19.5641 65.4943 19.7643 64.7604 20.1343C64.3422 20.3653 63.8761 20.4868 63.4024 20.4884C61.486 20.4884 59.8947 18.4863 59.5616 15.8446C59.9443 15.5545 60.2694 15.1903 60.5188 14.7721C61.6416 12.8943 63.3805 11.6893 65.3328 11.6893C67.285 11.6893 69.004 12.8798 70.1187 14.739C70.4537 15.2999 70.9225 15.7616 71.4797 16.0793C72.037 16.3971 72.6637 16.5601 73.2994 16.5526H73.3493C74.8808 16.5423 76.2009 17.8114 76.8431 19.6602Z" fill="black"/>
<path d="M56.2613 99.6405L55.007 98.8309C54.8874 98.7543 54.7697 98.6715 54.6501 98.5929C57.3196 98.1161 59.7536 96.7108 61.5522 94.6079C63.3507 92.5051 64.4069 89.8296 64.5473 87.0211C64.6876 84.2126 63.9037 81.4381 62.3244 79.1533C60.7451 76.8685 58.4642 75.2093 55.8565 74.4483L55.9183 79.5538L53.2162 73.999H53.1823C50.0204 73.8466 46.9295 75.0042 44.5893 77.2171C42.2491 79.4301 40.8512 82.5173 40.7029 85.8001C40.6909 86.0382 40.7029 86.27 40.7029 86.504C39.7636 85.3901 38.9081 84.1955 38.3438 82.8871C37.2011 80.2391 37.1792 77.2391 37.2689 73.5911C37.4484 66.3656 37.7495 59.082 38.1404 51.8233C40.962 51.4972 43.5793 50.1374 45.5222 47.9882C47.4652 45.8389 48.6065 43.041 48.7414 40.0968C48.7573 39.7179 48.7513 39.3452 48.7414 38.9726C48.7414 38.8794 48.7413 38.7883 48.7274 38.6951C48.7035 38.3349 48.6715 37.9788 48.6177 37.6268C48.6177 37.5688 48.5978 37.5129 48.5878 37.457C48.5399 37.1589 48.4801 36.8649 48.4123 36.5751C48.3864 36.4653 48.3605 36.3577 48.3325 36.25C48.2488 35.9333 48.1571 35.6289 48.0494 35.3142C48.0135 35.2128 47.9716 35.1072 47.9337 35.0119C47.85 34.7863 47.7582 34.5627 47.6605 34.3432C47.6087 34.2273 47.5588 34.1113 47.505 33.9975C47.489 33.9685 47.479 33.9374 47.4631 33.9084C46.2027 31.3255 44.1107 29.2825 41.5505 28.1343C38.9902 26.9861 36.1235 26.8051 33.4481 27.6228L33.5279 34.2687L30.8557 28.7781C28.6585 30.0825 26.92 32.0815 25.8938 34.4836C24.8675 36.8857 24.607 39.5654 25.1504 42.1319H25.1384C25.1564 42.221 25.1823 42.3058 25.2022 42.3928C25.2401 42.5564 25.28 42.7178 25.3239 42.8793C25.3797 43.0864 25.4435 43.2934 25.5093 43.5004C25.5592 43.6536 25.6071 43.8048 25.6629 43.9559C25.7447 44.1754 25.8364 44.3886 25.9281 44.6019C25.982 44.7261 26.0298 44.8545 26.0877 44.9766C26.2392 45.2968 26.4041 45.6095 26.5822 45.9145C26.644 46.0221 26.7138 46.1215 26.7816 46.2271C26.9093 46.4341 27.0369 46.6412 27.1805 46.8337C27.2662 46.9559 27.3579 47.0739 27.4477 47.1919C27.5793 47.3637 27.7129 47.5335 27.8465 47.6971C27.9442 47.8151 28.0459 47.929 28.1476 48.0408C28.2952 48.2022 28.4448 48.3575 28.6003 48.5087C28.704 48.6101 28.7997 48.7157 28.9134 48.8109C29.0889 48.9745 29.2723 49.1277 29.4578 49.2788C29.5515 49.3554 29.6433 49.4341 29.739 49.5086C30.0221 49.7157 30.3133 49.9227 30.6144 50.1298C30.6702 50.1649 30.7321 50.1939 30.7879 50.2291C31.0412 50.3823 31.2964 50.5293 31.5596 50.6618C31.6733 50.7198 31.789 50.7716 31.9046 50.8254C32.12 50.9248 32.3374 51.0221 32.5607 51.1111L32.9595 51.256C33.1789 51.3326 33.4022 51.4051 33.6276 51.4631C33.7592 51.5003 33.8928 51.5397 34.0264 51.5728C34.2697 51.6328 34.519 51.6825 34.7702 51.7281L34.8181 51.7384C34.6546 54.8012 34.5083 57.8646 34.3794 60.9288C33.6682 59.4114 32.6658 58.0609 31.4338 56.9602C30.2018 55.8594 28.7662 55.0316 27.215 54.5276C25.6638 54.0235 24.0298 53.8538 22.4132 54.0289C20.7966 54.204 19.2314 54.7202 17.8139 55.5458L19.9237 61.5499L15.5824 57.2228C13.255 59.4323 11.8678 62.5108 11.7257 65.7817C11.6703 66.9289 11.7724 68.0784 12.0288 69.1957C12.576 71.6115 13.8094 73.801 15.5692 75.4805C17.3289 77.16 19.534 78.2521 21.8986 78.6153C24.2631 78.9785 26.6783 78.596 28.8311 77.5175C30.9839 76.439 32.7751 74.7141 33.9726 72.5663C33.9726 72.8769 33.9526 73.1874 33.9447 73.5C33.8649 76.7174 33.7652 80.7215 35.3107 84.297C36.3576 86.7193 38.0407 88.6882 39.6978 90.4522C40.7807 91.5992 41.9034 92.7109 43.054 93.7855C44.1868 95.3644 45.6645 96.6416 47.3654 97.5121C49.2558 99.0235 51.2141 100.446 53.2382 101.758L54.5025 102.574C55.6392 103.305 56.8037 104.057 57.9444 104.837C57.745 104.816 57.5456 104.794 57.3462 104.783C54.8154 104.661 52.3127 105.377 50.1999 106.829C48.087 108.28 46.4735 110.391 45.5926 112.858L53.0547 119.15L44.8507 117.174C44.8529 119.27 45.3668 121.331 46.3442 123.165C47.3216 124.998 48.7308 126.545 50.4401 127.66C52.1493 128.775 54.1028 129.422 56.1182 129.54C58.1336 129.659 60.145 129.245 61.9646 128.338L61.4202 129.052C61.0533 129.525 60.691 129.996 60.3334 130.464C55.4796 136.847 54.1296 142.905 56.5325 147.524L59.456 145.886C57.1069 141.389 60.6226 135.634 62.9298 132.607C63.2808 132.147 63.6371 131.685 63.9987 131.22C67.0996 127.22 70.6133 122.686 70.5276 117.125C70.394 108.738 62.5589 103.694 56.2613 99.6405Z" fill="#F2F2F2"/>
<path d="M110.291 90.4765L111.855 89.4661C112.004 89.3688 112.15 89.2591 112.299 89.168C108.956 88.5711 105.909 86.8069 103.662 84.1674C101.416 81.5278 100.104 78.1711 99.9455 74.6527C99.8323 72.2337 100.273 69.8213 101.232 67.6134C102.126 65.545 103.447 63.7057 105.101 62.2254C106.755 60.745 108.701 59.6598 110.804 59.0463L110.726 65.4168L114.09 58.4873H114.13C118.076 58.2967 121.933 59.741 124.853 62.5027C127.774 65.2643 129.518 69.1171 129.702 73.2138C129.716 73.5098 129.702 73.7997 129.702 74.0916C130.877 72.7024 131.942 71.2117 132.646 69.5803C134.074 66.2677 134.102 62.541 133.988 57.9862C133.764 48.9698 133.39 39.885 132.901 30.8293C129.38 30.4226 126.115 28.726 123.691 26.0443C121.267 23.3626 119.843 19.8715 119.676 16.198C119.656 15.7259 119.662 15.2601 119.676 14.7963C119.676 14.6804 119.682 14.5645 119.694 14.4485C119.722 13.9993 119.763 13.5541 119.827 13.1173C119.837 13.0448 119.853 12.9744 119.865 12.9102C119.926 12.5376 120 12.1704 120.087 11.8088C120.118 11.6742 120.15 11.5376 120.184 11.3947C120.29 11.0014 120.404 10.6101 120.537 10.2291C120.581 10.1008 120.633 9.9786 120.681 9.85231C120.788 9.56867 120.902 9.29124 121.024 9.02417C121.088 8.88131 121.149 8.73639 121.223 8.59353C121.239 8.55833 121.255 8.519 121.273 8.4838C122.844 5.26012 125.454 2.71024 128.649 1.27773C131.843 -0.154785 135.42 -0.379269 138.758 0.643327L138.658 8.92479L141.992 2.07602C144.733 3.7033 146.902 6.19752 148.181 9.19465C149.46 12.1918 149.784 15.535 149.104 18.7362H149.12C149.098 18.846 149.064 18.9433 149.04 19.0613C148.992 19.2683 148.942 19.4754 148.888 19.6679C148.818 19.9267 148.739 20.1793 148.657 20.4319C148.595 20.6224 148.535 20.8128 148.457 21.0012C148.356 21.2745 148.242 21.5416 148.126 21.8066C148.059 21.9619 147.999 22.1213 147.927 22.2745C147.728 22.6741 147.528 23.0654 147.311 23.4443C147.235 23.5788 147.147 23.7051 147.066 23.8356C146.906 24.0923 146.745 24.3449 146.571 24.5912C146.463 24.7445 146.35 24.8894 146.238 25.0384C146.074 25.2455 145.909 25.4649 145.733 25.6699C145.611 25.8079 145.486 25.9508 145.357 26.0985C145.175 26.3055 144.986 26.4918 144.794 26.6823C144.665 26.8086 144.537 26.937 144.395 27.0591C144.174 27.2662 143.947 27.4525 143.713 27.6409C143.598 27.7361 143.484 27.8376 143.364 27.9287C143.011 28.1978 142.648 28.4545 142.272 28.6926C142.202 28.7361 142.126 28.7734 142.054 28.8169C141.742 29.0101 141.421 29.1902 141.093 29.3572C140.951 29.4297 140.806 29.4918 140.662 29.5643C140.393 29.6906 140.122 29.8106 139.845 29.9204C139.681 29.9845 139.518 30.0446 139.354 30.1026C139.079 30.1999 138.802 30.2868 138.521 30.3676C138.355 30.4152 138.19 30.4628 138.02 30.5063C137.715 30.5808 137.406 30.6429 137.093 30.6988L137.031 30.7112C137.238 34.5331 137.421 38.3557 137.579 42.179C138.467 40.286 139.718 38.6014 141.255 37.2284C142.792 35.8555 144.584 34.8232 146.519 34.1951C148.454 33.5669 150.493 33.356 152.51 33.5754C154.527 33.7949 156.479 34.4399 158.247 35.471L155.632 42.9595L161.047 37.5621C163.951 40.3179 165.682 44.1584 165.859 48.239C165.927 49.6651 165.8 51.0941 165.482 52.4832C164.801 55.4992 163.263 58.2333 161.067 60.3308C158.871 62.4283 156.119 63.7924 153.168 64.2463C150.216 64.7002 147.201 64.2229 144.514 62.8763C141.827 61.5297 139.592 59.3759 138.098 56.6943C138.098 57.0815 138.124 57.4728 138.134 57.8599C138.233 61.8744 138.357 66.8702 136.431 71.3297C135.125 74.3545 133.023 76.8079 130.945 79.0087C129.593 80.4414 128.197 81.8279 126.757 83.1681C125.342 85.1367 123.496 86.7283 121.373 87.8119C119.014 89.698 116.571 91.4723 114.046 93.1121L112.471 94.1327C111.053 95.0437 109.601 95.9816 108.175 96.9547C108.427 96.9298 108.674 96.9008 108.929 96.8884C112.086 96.7353 115.207 97.628 117.843 99.4374C120.479 101.247 122.492 103.879 123.592 106.955L114.287 114.822L124.524 112.36C124.52 114.975 123.878 117.546 122.658 119.833C121.439 122.12 119.68 124.049 117.548 125.44C115.415 126.831 112.978 127.638 110.464 127.786C107.95 127.933 105.44 127.417 103.17 126.286C103.401 126.584 103.631 126.882 103.862 127.178C104.319 127.768 104.775 128.356 105.22 128.94C111.274 136.9 112.959 144.467 109.96 150.223L106.315 148.18C109.232 142.569 104.843 135.389 101.966 131.617C101.529 131.043 101.082 130.466 100.633 129.886C96.7648 124.896 92.3796 119.24 92.4873 112.302C92.6528 101.824 102.432 95.5323 110.291 90.4765Z" fill="#F2F2F2"/>
<path d="M175.219 38.9664V111.549C175.219 111.745 175.182 111.939 175.11 112.12C175.037 112.302 174.932 112.466 174.798 112.605C174.664 112.743 174.506 112.853 174.332 112.928C174.157 113.003 173.97 113.042 173.781 113.042H31.2804C31.0917 113.042 30.9048 113.003 30.7305 112.928C30.5562 112.853 30.3978 112.743 30.2644 112.605C30.1311 112.466 30.0254 112.301 29.9533 112.12C29.8813 111.939 29.8443 111.745 29.8446 111.549V38.9664C29.8443 38.7704 29.8813 38.5764 29.9533 38.3953C30.0254 38.2142 30.1311 38.0496 30.2644 37.911C30.3978 37.7723 30.5562 37.6623 30.7305 37.5873C30.9048 37.5123 31.0917 37.4736 31.2804 37.4736H173.781C174.163 37.4736 174.528 37.6309 174.798 37.9108C175.068 38.1908 175.219 38.5705 175.219 38.9664V38.9664Z" fill="#F1F9FF"/>
<path d="M30.3446 111.55V111.549L30.3446 38.9664L30.3446 38.9657C30.3444 38.8329 30.3695 38.7018 30.4179 38.5801C30.4663 38.4584 30.5369 38.3489 30.6248 38.2576C30.7126 38.1663 30.8159 38.0949 30.9282 38.0466C31.0404 37.9982 31.1601 37.9736 31.2804 37.9736H173.781C174.024 37.9736 174.26 38.0735 174.438 38.2577C174.616 38.4426 174.719 38.6972 174.719 38.9664V111.549C174.719 111.682 174.694 111.813 174.645 111.935C174.597 112.057 174.526 112.167 174.438 112.258C174.35 112.349 174.246 112.421 174.134 112.469C174.022 112.517 173.902 112.542 173.781 112.542H31.2804C31.1601 112.542 31.0404 112.517 30.9282 112.469C30.8159 112.421 30.7126 112.349 30.6248 112.258C30.5369 112.167 30.4663 112.057 30.4179 111.936C30.3695 111.814 30.3444 111.683 30.3446 111.55Z" stroke="#2196F3" stroke-opacity="0.05"/>
<path d="M175.219 38.4695V41.8214H29.8446V38.4695C29.8446 38.2054 29.9457 37.9521 30.1255 37.7653C30.3054 37.5786 30.5494 37.4736 30.8038 37.4736H174.26C174.514 37.4736 174.758 37.5786 174.938 37.7653C175.118 37.9521 175.219 38.2054 175.219 38.4695Z" fill="#CBCEDA"/>
<path d="M33.0353 40.5792C33.586 40.5792 34.0324 40.1157 34.0324 39.544C34.0324 38.9723 33.586 38.5088 33.0353 38.5088C32.4846 38.5088 32.0382 38.9723 32.0382 39.544C32.0382 40.1157 32.4846 40.5792 33.0353 40.5792Z" fill="#2196F3"/>
<path d="M35.8272 40.5792C36.3778 40.5792 36.8242 40.1157 36.8242 39.544C36.8242 38.9723 36.3778 38.5088 35.8272 38.5088C35.2765 38.5088 34.8301 38.9723 34.8301 39.544C34.8301 40.1157 35.2765 40.5792 35.8272 40.5792Z" fill="#2196F3"/>
<path d="M38.6189 40.5792C39.1696 40.5792 39.616 40.1157 39.616 39.544C39.616 38.9723 39.1696 38.5088 38.6189 38.5088C38.0682 38.5088 37.6218 38.9723 37.6218 39.544C37.6218 40.1157 38.0682 40.5792 38.6189 40.5792Z" fill="#2196F3"/>
<path opacity="0.2" d="M151.852 90.4687V102.928L53.1006 102.984L53.0109 78.0776C54.0538 81.2681 56.6283 81.8415 61.161 76.2143C72.2386 62.4795 87.2965 58.8646 98.9524 58.4858C106.929 58.2249 114.888 59.935 122.484 63.3325C125.638 64.7465 138.106 66.2683 146.334 66.9473C147.827 67.0696 149.221 67.7708 150.239 68.9117C151.257 70.0526 151.824 71.5494 151.828 73.1046L151.852 90.4687Z" fill="#2196F3"/>
<path opacity="0.2" d="M151.852 78.2847V103.046H53.0109V97.6633C55.8366 96.9242 66.4057 94.0816 71.4728 86.2307C77.5351 76.8313 85.775 74.3593 92.1503 74.1005C96.5195 73.9203 100.869 75.086 105.021 77.4131C109.691 80.03 118.695 83.1873 125.535 74.0218C133.1 63.8874 144.722 72.2392 147.67 75.3096C148.723 76.3944 151.852 78.2847 151.852 78.2847Z" fill="#2196F3"/>
<path d="M53.0109 52.0241V102.657H151.852" stroke="#2196F3" stroke-width="2" stroke-miterlimit="10"/>
<path d="M65.4644 102.657V71.7899" stroke="#2196F3" stroke-miterlimit="10"/>
<path d="M77.4613 102.657V63.5333" stroke="#2196F3" stroke-miterlimit="10"/>
<path d="M89.4583 102.657V59.6058" stroke="#2196F3" stroke-miterlimit="10"/>
<path d="M101.455 102.657V58.3884" stroke="#2196F3" stroke-miterlimit="10"/>
<path d="M113.452 102.657V59.7424" stroke="#2196F3" stroke-miterlimit="10"/>
<path d="M125.449 102.657V64.7507" stroke="#2196F3" stroke-miterlimit="10"/>
<path d="M137.446 102.657V67.3221" stroke="#2196F3" stroke-miterlimit="10"/>
<path d="M65.3987 73.6864C66.6234 73.6864 67.6162 72.6556 67.6162 71.3841C67.6162 70.1127 66.6234 69.0819 65.3987 69.0819C64.174 69.0819 63.1812 70.1127 63.1812 71.3841C63.1812 72.6556 64.174 73.6864 65.3987 73.6864Z" fill="#2196F3"/>
<path d="M77.3955 65.8356C78.6202 65.8356 79.613 64.8048 79.613 63.5333C79.613 62.2618 78.6202 61.2311 77.3955 61.2311C76.1708 61.2311 75.178 62.2618 75.178 63.5333C75.178 64.8048 76.1708 65.8356 77.3955 65.8356Z" fill="#2196F3"/>
<path d="M89.3923 62.0447C90.617 62.0447 91.6098 61.014 91.6098 59.7425C91.6098 58.471 90.617 57.4402 89.3923 57.4402C88.1676 57.4402 87.1748 58.471 87.1748 59.7425C87.1748 61.014 88.1676 62.0447 89.3923 62.0447Z" fill="#2196F3"/>
<path d="M101.387 60.6907C102.612 60.6907 103.605 59.6599 103.605 58.3884C103.605 57.1169 102.612 56.0862 101.387 56.0862C100.163 56.0862 99.1698 57.1169 99.1698 58.3884C99.1698 59.6599 100.163 60.6907 101.387 60.6907Z" fill="#2196F3"/>
<path d="M113.384 62.0447C114.609 62.0447 115.602 61.014 115.602 59.7425C115.602 58.471 114.609 57.4402 113.384 57.4402C112.159 57.4402 111.167 58.471 111.167 59.7425C111.167 61.014 112.159 62.0447 113.384 62.0447Z" fill="#2196F3"/>
<path d="M125.381 67.1875C126.606 67.1875 127.598 66.1568 127.598 64.8853C127.598 63.6138 126.606 62.583 125.381 62.583C124.156 62.583 123.163 63.6138 123.163 64.8853C123.163 66.1568 124.156 67.1875 125.381 67.1875Z" fill="#2196F3"/>
<path d="M137.378 69.8955C138.603 69.8955 139.595 68.8648 139.595 67.5933C139.595 66.3218 138.603 65.291 137.378 65.291C136.153 65.291 135.16 66.3218 135.16 67.5933C135.16 68.8648 136.153 69.8955 137.378 69.8955Z" fill="#2196F3"/>
<path d="M102.5 153C159.109 153 205 151.053 205 148.652C205 146.251 159.109 144.304 102.5 144.304C45.8908 144.304 0 146.251 0 148.652C0 151.053 45.8908 153 102.5 153Z" fill="#3F3D56"/>
<path d="M11.4744 73.0259C11.4664 73.2053 11.4105 73.3788 11.3129 73.527C12.1105 73.5021 12.8185 72.9576 13.5543 72.6988C13.4227 73.5021 13.5543 74.4545 13.654 75.1377C13.7502 75.8004 13.9092 76.4516 14.1286 77.0818C14.6332 79.3323 15.5525 81.5455 16.376 83.707C16.7311 84.5637 16.9984 85.4568 17.1737 86.3715C17.7341 89.8601 15.7957 93.2348 15.4288 96.7482C15.4009 96.9417 15.4009 97.1385 15.4288 97.332C15.3958 97.3682 15.3664 97.4078 15.3411 97.45C13.987 99.6074 14.1625 103.218 14.4058 105.773C14.6491 108.328 15.4288 110.791 16.1647 113.245C16.3839 113.921 16.5552 114.613 16.6772 115.315C16.7941 116.277 16.8128 117.248 16.733 118.214C16.4897 122.709 15.8795 127.243 16.5994 131.671C17.1239 134.899 18.2685 137.835 18.3941 141.104C18.4891 140.862 18.6397 140.649 18.8329 140.483L19.0482 149.068C19.0383 149.149 19.0473 149.23 19.0744 149.306C19.1015 149.381 19.1459 149.449 19.2038 149.503C19.3573 149.605 19.5567 149.503 19.7382 149.476C20.2647 149.41 20.6017 150.004 20.9507 150.416C21.4751 151.037 22.2828 151.331 23.0744 151.396C23.8714 151.426 24.6689 151.351 25.4475 151.172C25.8124 151.104 26.1993 151.025 26.4725 150.758C26.6123 150.61 26.7165 150.43 26.7768 150.233C26.8371 150.035 26.8517 149.826 26.8195 149.621C26.6639 148.356 25.3518 147.636 24.6917 146.557C23.912 145.282 24.0935 143.574 23.3317 142.284C23.0705 141.843 22.7095 141.47 22.4762 141.013C22.3585 140.731 22.2657 140.438 22.199 140.139C22.4358 140.213 22.6603 140.324 22.8651 140.468C22.7933 139.797 22.7195 139.124 22.6477 138.452L22.6158 138.162C22.5181 137.253 22.4164 136.346 22.3446 135.435C22.0993 132.437 22.9189 129.499 22.3446 126.549C22.2249 125.928 22.4164 125.28 22.5939 124.669C23.6022 121.19 24.2172 117.601 24.4265 113.974C24.4983 112.694 24.4963 111.46 24.8911 110.247C25.3538 112.203 26.7836 113.746 27.683 115.541C28.2373 116.659 28.5823 117.88 29.1866 118.969C29.4777 119.499 29.8327 120.005 30.0181 120.58C30.3053 121.481 30.1537 122.458 30.0181 123.398C29.37 128.263 29.4458 133.216 29.6532 138.122C29.4562 140 29.0404 141.846 28.4148 143.619C28.1675 144.319 27.8983 145.135 28.2812 145.766C28.4427 145.998 28.6458 146.195 28.8795 146.346C29.4462 146.764 30.0421 147.139 30.6622 147.466C30.8464 147.592 31.0679 147.644 31.2864 147.615C31.422 147.566 31.5497 147.496 31.6653 147.408C32.1499 147.106 32.776 147.153 33.3105 147.348C33.8449 147.543 34.3275 147.868 34.846 148.102C35.9329 148.587 37.146 148.676 38.2879 148.354C38.7705 148.215 39.285 147.95 39.4346 147.46C39.5841 146.969 39.3089 146.451 38.928 146.129C38.5472 145.806 38.0765 145.632 37.6398 145.396C36.6827 144.877 35.9012 144.067 35.4004 143.075C35.0994 142.42 34.8629 141.735 34.6944 141.031C34.4631 140.187 34.2325 139.342 34.0025 138.497C34.1338 138.587 34.2591 138.686 34.3774 138.793C34.7024 134.611 35.0314 130.416 35.8949 126.317C36.3077 124.357 36.8461 122.371 36.6367 120.377C36.5271 119.33 36.212 118.317 35.9129 117.309C34.9823 114.163 34.1673 110.985 33.468 107.773C33.7287 107.47 33.9317 107.119 34.0663 106.738C34.2907 106.029 34.4136 105.289 34.4312 104.543C34.7657 99.5107 34.7524 94.4599 34.3913 89.4294C34.2996 88.1541 34.156 86.8146 33.6734 85.6552H33.9566C33.6196 85.6552 33.0692 82.1811 33.0034 81.7939C32.778 80.4523 32.6205 79.1025 32.3872 77.7629C32.2735 77.1108 32.1459 76.4586 31.9884 75.8168C31.8807 75.3903 31.4499 72.7423 31.1069 72.4462C31.0701 72.4143 31.0282 72.3891 30.9833 72.3717C30.8112 71.7767 30.4343 71.2682 29.9244 70.9431C29.372 70.6202 28.7139 70.6098 28.0698 70.6616C27.8877 70.3855 27.7056 70.1129 27.5234 69.8438C27.1888 69.3978 26.9329 68.8938 26.7676 68.3552C26.716 68.1296 26.6853 67.8995 26.6759 67.6678C26.6759 67.5125 26.6659 67.3573 26.6599 67.202C26.6599 67.1233 26.6599 67.0467 26.6599 66.968C26.653 66.8133 26.637 66.6591 26.6121 66.5064V66.5064C26.5921 66.3801 26.5622 66.2579 26.5303 66.1337C26.5164 66.0819 26.4984 66.0281 26.4825 65.9763C26.3907 65.6637 26.2831 65.3552 26.2033 65.0405C25.958 64.024 26.0816 62.9577 26.1195 61.9101C26.1574 60.8625 26.0916 59.7528 25.5213 58.8791C25.1045 58.2373 24.4365 57.7508 24.2131 57.0158C24.1074 56.6659 24.1134 56.2808 23.9579 55.9495C23.7558 55.5813 23.4331 55.3006 23.0485 55.1587C22.5978 54.9516 21.6925 54.6783 21.2079 54.9206C21.1171 54.9674 21.0369 55.0337 20.9726 55.1152C20.4601 55.1421 19.9436 55.2146 19.4929 54.9806C19.1459 54.8005 18.8947 54.4589 18.5577 54.2622C17.76 53.7984 16.743 54.2622 16.0331 54.8668C14.9045 55.8265 14.0799 57.1162 13.666 58.5686C13.3509 59.6886 13.2233 60.9971 12.3199 61.7031C11.945 61.995 11.4624 62.1565 11.1892 62.5478C11.0033 62.8663 10.9003 63.2294 10.8901 63.6016C10.7964 64.4505 10.7186 65.3242 10.936 66.1482C11.0995 66.7693 11.4206 67.3241 11.62 67.9287C11.8858 68.784 11.9093 69.7007 11.6876 70.5695C11.466 71.4383 11.0085 72.2227 10.3696 72.8292C10.6992 73.0416 11.0955 73.1122 11.4744 73.0259ZM30.6503 98.1457C30.9217 97.9931 31.1583 97.7815 31.3438 97.5253C31.5293 97.2691 31.6594 96.9744 31.7251 96.6612C31.7471 96.742 31.765 96.8227 31.7849 96.9035C32.0408 97.9845 31.9888 99.1195 31.6354 100.171C31.3707 99.4642 31.0408 98.7861 30.6503 98.1457V98.1457ZM31.0491 93.5619C30.7169 93.0676 30.4362 92.538 30.2116 91.9822C29.9045 91.0878 29.9742 90.1189 30.048 89.1624C30.0875 88.4405 30.1835 87.7231 30.3352 87.0175C30.4233 89.2141 30.6639 91.4012 31.0551 93.5619H31.0491Z" fill="url(#paint0_linear)"/>
<path d="M23.3318 55.7053C23.7105 55.8473 24.0275 56.1257 24.2251 56.4899C24.3767 56.8191 24.3727 57.2021 24.4764 57.55C24.6958 58.2829 25.3538 58.7673 25.7607 59.4133C26.315 60.2808 26.3808 61.3864 26.343 62.4257C26.3051 63.465 26.1854 64.5271 26.4267 65.5312C26.5444 66.0219 26.7478 66.4919 26.8255 66.9908C26.9252 67.5995 26.8415 68.2331 26.9871 68.8314C27.149 69.3659 27.4008 69.8664 27.7309 70.3096L29.0291 72.2806C28.4494 72.1359 27.8786 71.9548 27.3201 71.7382C27.4926 72.3013 27.813 72.8032 28.2454 73.1874L27.3061 72.0073C27.1158 71.736 26.8792 71.503 26.6082 71.32C26.2632 71.1129 25.8564 71.084 25.4695 71.0032C24.7237 70.8459 23.9799 70.4504 23.6149 69.761C23.1304 68.8335 23.4394 67.6699 23.1702 66.6554C22.9708 65.9143 22.4803 65.3035 22.1412 64.6182C21.3755 63.0716 21.4214 61.2456 21.1821 59.521C21.0804 58.7901 20.9228 58.0717 20.9188 57.3222C20.9188 56.7777 20.9707 55.7384 21.5171 55.4589C21.9977 55.227 22.8871 55.5086 23.3318 55.7053Z" fill="#3F3D56"/>
<path d="M33.7851 137.412L34.7822 141.091C34.9472 141.791 35.1797 142.471 35.4762 143.122C35.9626 144.107 36.7283 144.912 37.6698 145.431C38.0985 145.665 38.5631 145.845 38.9361 146.159C39.309 146.474 39.5762 147.002 39.4326 147.482C39.289 147.963 38.7805 148.234 38.3059 148.373C37.181 148.692 35.9847 148.602 34.9158 148.118C34.4073 147.884 33.9327 147.561 33.4082 147.369C32.8838 147.176 32.2656 147.126 31.791 147.429C31.6773 147.517 31.5516 147.586 31.4181 147.636C31.2029 147.666 30.9844 147.614 30.8039 147.489C30.1935 147.163 29.6076 146.791 29.051 146.375C28.824 146.224 28.6275 146.028 28.4727 145.799C28.0938 145.178 28.361 144.35 28.6023 143.665C29.2434 141.829 29.6607 139.917 29.8447 137.973C29.8412 137.887 29.8555 137.802 29.8869 137.722C29.9182 137.642 29.9657 137.57 30.0261 137.512C30.1145 137.463 30.2136 137.441 30.3133 137.445L34.5728 137.238" fill="#575A89"/>
<path d="M22.7573 141.095C22.9867 141.549 23.3436 141.924 23.5989 142.36C24.3467 143.642 24.1692 145.34 24.937 146.607C25.5851 147.679 26.8753 148.398 27.0288 149.654C27.0604 149.857 27.046 150.064 26.9868 150.26C26.9276 150.456 26.8252 150.635 26.6878 150.783C26.4186 151.041 26.0377 151.118 25.6788 151.184C24.9144 151.364 24.1307 151.439 23.3476 151.408C22.5679 151.344 21.7742 151.046 21.2597 150.433C20.9147 150.019 20.5857 149.433 20.0632 149.501C19.8838 149.524 19.6883 149.627 19.5368 149.526C19.4803 149.472 19.4371 149.405 19.4108 149.33C19.3844 149.255 19.3756 149.174 19.3852 149.095L19.1499 139.681C19.9037 139.596 21.2099 139.286 21.9417 139.555C22.5719 139.785 22.4702 140.522 22.7573 141.095Z" fill="#575A89"/>
<path d="M30.1996 97.5784C32.0383 99.9531 32.5827 103.098 33.1729 106.083C33.9334 109.934 34.868 113.742 35.9767 117.508C36.2719 118.51 36.575 119.516 36.6886 120.557C36.8881 122.541 36.3656 124.514 35.9588 126.462C35.1113 130.539 34.7882 134.708 34.4691 138.866C33.8313 138.301 33.0323 137.971 32.1954 137.925C31.3586 137.879 30.5304 138.12 29.8387 138.611C29.6233 133.599 29.5256 128.534 30.1797 123.561C30.3033 122.628 30.4529 121.657 30.1797 120.762C29.9962 120.187 29.6492 119.688 29.3601 119.162C28.7618 118.077 28.4268 116.864 27.8824 115.752C27.007 113.967 25.6011 112.439 25.1464 110.489C24.7576 111.698 24.7596 112.924 24.6898 114.195C24.4872 117.804 23.885 121.376 22.895 124.841C22.7195 125.45 22.5321 126.083 22.6497 126.704C23.2081 129.64 22.4025 132.559 22.6497 135.541C22.7215 136.445 22.8192 137.348 22.915 138.251L22.9469 138.541L23.1622 140.545C22.3646 139.979 21.521 140.06 20.5579 140.112C20.2328 140.112 19.9103 140.171 19.6046 140.286C19.411 140.367 19.235 140.488 19.0874 140.641C18.9397 140.794 18.8233 140.977 18.7452 141.178C18.6295 137.928 17.5028 135.009 16.9883 131.802C16.2804 127.387 16.8786 122.878 17.1199 118.41C17.1982 117.448 17.1795 116.48 17.0641 115.522C16.9439 114.82 16.7753 114.129 16.5596 113.452C15.8377 111.013 15.0699 108.564 14.8306 106.023C14.5913 103.483 14.4198 99.8951 15.7499 97.7419C16.1607 97.0794 17.1718 97.3775 17.8099 96.9469C18.3127 96.6198 18.8658 96.3845 19.4451 96.2513C22.9329 95.4107 26.6341 97.2595 30.1996 97.5784Z" fill="#3C354C"/>
<path d="M23.9041 68.1088C23.9819 69.0136 24.1653 70.0798 24.959 70.4608C25.4097 70.6678 25.9321 70.5953 26.4187 70.6781C27.34 70.8334 28.0978 71.5684 28.5246 72.4297C28.9513 73.2909 29.0989 74.2702 29.1986 75.2329C29.3222 76.44 29.3621 77.7484 28.724 78.765C28.2095 79.5931 27.3281 80.088 26.4028 80.3426C25.4837 80.5927 24.5229 80.6296 23.5885 80.4507C22.6542 80.2718 21.7693 79.8814 20.9966 79.3074C20.2581 78.7093 19.5889 78.0242 19.0024 77.266C17.6783 75.6657 16.3442 73.9121 16.073 71.821C16.0411 71.5829 16.0431 71.2951 16.2305 71.1543C16.3601 71.0785 16.5097 71.048 16.6573 71.0674L17.9276 71.0901C18.2486 71.0901 18.6116 71.0901 18.8309 70.8396C19.0503 70.5891 19.0303 70.2703 19.0303 69.9639L18.9446 66.1358C18.9258 66.0001 18.9564 65.8621 19.0303 65.7486C19.1106 65.6725 19.2131 65.6265 19.3215 65.6182C20.0214 65.496 20.7533 65.6182 21.4373 65.4215C22.0894 65.2352 23.1124 64.4588 23.591 65.2559C23.9898 65.9412 23.8383 67.3366 23.9041 68.1088Z" fill="#FFC1C7"/>
<path opacity="0.1" d="M23.9041 68.1088C23.9819 69.0136 24.1653 70.0798 24.959 70.4608C25.4097 70.6678 25.9321 70.5953 26.4187 70.6781C27.34 70.8334 28.0978 71.5684 28.5246 72.4297C28.9513 73.2909 29.0989 74.2702 29.1986 75.2329C29.3222 76.44 29.3621 77.7484 28.724 78.765C28.2095 79.5931 27.3281 80.088 26.4028 80.3426C25.4837 80.5927 24.5229 80.6296 23.5885 80.4507C22.6542 80.2718 21.7693 79.8814 20.9966 79.3074C20.2581 78.7093 19.5889 78.0242 19.0024 77.266C17.6783 75.6657 16.3442 73.9121 16.073 71.821C16.0411 71.5829 16.0431 71.2951 16.2305 71.1543C16.3601 71.0785 16.5097 71.048 16.6573 71.0674L17.9276 71.0901C18.2486 71.0901 18.6116 71.0901 18.8309 70.8396C19.0503 70.5891 19.0303 70.2703 19.0303 69.9639L18.9446 66.1358C18.9258 66.0001 18.9564 65.8621 19.0303 65.7486C19.1106 65.6725 19.2131 65.6265 19.3215 65.6182C20.0214 65.496 20.7533 65.6182 21.4373 65.4215C22.0894 65.2352 23.1124 64.4588 23.591 65.2559C23.9898 65.9412 23.8383 67.3366 23.9041 68.1088Z" fill="black"/>
<path d="M20.7074 67.8583C23.387 67.8583 25.5592 65.603 25.5592 62.8211C25.5592 60.0391 23.387 57.7839 20.7074 57.7839C18.0278 57.7839 15.8556 60.0391 15.8556 62.8211C15.8556 65.603 18.0278 67.8583 20.7074 67.8583Z" fill="#FFC1C7"/>
<path d="M25.9241 76.8333C26.7078 76.8478 27.5932 76.6263 27.9721 75.9058C28.2313 75.4172 28.1894 74.823 28.1396 74.2681L27.8584 71.1626C28.6202 71.0798 29.4398 71.0094 30.1038 71.4007C30.9873 71.9203 31.3003 73.0714 31.404 74.119C31.5895 76.0859 31.2884 78.0714 31.3921 80.0444C31.4798 81.7007 31.8487 83.4108 31.3781 84.9988C31.1787 85.6613 30.8477 86.2721 30.6323 86.9284C30.3631 87.7565 30.2933 88.6468 30.2335 89.5226C30.1597 90.4625 30.0899 91.4356 30.393 92.3258C30.6463 93.0712 31.1408 93.6985 31.4938 94.3962C32.0721 95.5515 32.1957 97.1084 31.3263 98.0463C30.5286 98.9034 29.2164 98.9386 28.1017 98.6674C26.987 98.3961 25.9081 97.8786 24.7715 97.8289C22.7534 97.7398 20.9546 99.1001 18.9884 99.5411C18.7248 99.6143 18.4486 99.6243 18.1807 99.57C17.9438 99.4904 17.7233 99.3654 17.5306 99.2015L16.4498 98.3941C16.2338 98.26 16.0541 98.0712 15.9273 97.8454C15.8368 97.5943 15.8134 97.3225 15.8595 97.0587C16.2225 93.5639 18.1269 90.2099 17.5765 86.7421C17.4054 85.8329 17.1434 84.9447 16.7948 84.092C15.4248 80.4523 13.7816 76.6718 14.3141 72.8023C14.4297 71.9452 14.673 71.0694 15.2413 70.4359C15.8097 69.8023 16.7709 69.4876 17.5067 69.8934C18.2426 70.2992 18.5038 71.2019 18.8288 71.9866C19.4552 73.5119 20.4497 74.8439 21.7164 75.854C22.2508 76.2805 22.8989 76.825 23.5989 76.8436C24.3287 76.8706 25.1264 76.8167 25.9241 76.8333Z" fill="#FF5722"/>
<path d="M32.9516 84.6593C34.1281 86.0154 34.3595 87.9719 34.4891 89.7897C34.8457 94.7913 34.8584 99.8129 34.527 104.816C34.5101 105.559 34.3899 106.294 34.17 107.001C33.9188 107.694 33.4481 108.336 32.7861 108.613C32.3613 108.791 31.7691 108.744 31.5776 108.311C31.4021 107.916 31.6634 107.483 31.8608 107.09C32.3143 106.206 32.4661 105.188 32.2915 104.204C32.0502 104.386 31.9645 104.715 31.8927 105.017L31.5078 106.698C30.9873 106.62 30.7919 105.959 30.7102 105.421C30.5586 104.444 30.413 103.402 30.7899 102.493C30.9893 102.009 31.3283 101.597 31.5298 101.113C32.0383 99.8951 32.2377 98.5039 31.9106 97.2202C30.8082 92.8866 30.3271 88.4078 30.4828 83.9285C31.238 84.3725 32.0844 84.623 32.9516 84.6593V84.6593Z" fill="#FFC1C7"/>
<path d="M34.0623 86.0237C32.6142 86.0388 31.1732 86.2363 29.7708 86.6117C29.5854 85.6634 29.6751 84.6821 29.7708 83.7132L30.389 77.088C30.4349 76.5973 30.3472 72.0901 31.2625 72.8872C31.5995 73.1812 32.0243 75.8147 32.1299 76.2391C32.2895 76.8768 32.4151 77.5228 32.5288 78.1729C32.7581 79.5041 32.9137 80.8478 33.127 82.1811C33.1888 82.5765 33.7313 86.0237 34.0623 86.0237Z" fill="#FF5722"/>
<path d="M22.5579 56.4175C22.5639 56.2598 22.5295 56.1034 22.4582 55.964C22.3951 55.882 22.3162 55.8144 22.2266 55.7656C22.1371 55.7168 22.0387 55.6878 21.9378 55.6804C21.2358 55.5665 20.4681 55.8605 19.8359 55.5272C19.4929 55.3471 19.2496 55.0096 18.9166 54.8129C18.1189 54.3512 17.1219 54.8129 16.4339 55.4154C15.3227 56.3726 14.5129 57.6532 14.1087 59.0924C13.7976 60.2062 13.672 61.5085 12.7846 62.2103C12.4156 62.5002 11.941 62.6617 11.6718 63.0509C11.4907 63.3644 11.3897 63.7207 11.3787 64.0861C11.2869 64.9308 11.2092 65.8003 11.4225 66.6202C11.5841 67.2413 11.8991 67.7879 12.0966 68.3883C12.3609 69.2405 12.3851 70.1534 12.1664 71.0194C11.9477 71.8854 11.4952 72.6685 10.8622 73.2764C11.1858 73.4868 11.5762 73.5567 11.949 73.471C11.9406 73.649 11.8862 73.8214 11.7915 73.97C12.9261 73.9327 13.9133 72.7837 15.024 73.0342C15.8735 73.2247 16.3461 74.1336 16.9783 74.7526C17.7939 75.5476 19.0602 75.881 20.0832 75.4089C21.1062 74.9369 21.7284 73.5953 21.2937 72.5228C20.7991 71.3034 19.2736 70.821 18.7451 69.6243C18.3363 68.6926 18.6394 67.6016 18.5457 66.5809C18.4719 65.7051 18.107 64.8873 17.8796 64.0385C17.6523 63.1896 17.5785 62.2207 18.0412 61.4836C18.5317 60.699 19.471 60.3946 20.3265 60.1048C22.2588 59.4526 22.6297 58.4423 22.5579 56.4175Z" fill="#3F3D56"/>
<path d="M21.3654 74.5269C21.503 73.823 21.6406 73.0777 21.3953 72.4027C20.9427 71.1605 19.457 70.7609 18.43 69.9556C17.835 69.4861 17.3779 68.8537 17.1099 68.1295C16.9244 67.6202 16.8985 66.9204 17.3572 66.6595C17.5356 66.5726 17.7331 66.5362 17.9295 66.5539C19.5248 66.5933 20.9985 67.496 22.2249 68.5663C22.9388 69.1875 23.6208 69.8997 23.9718 70.7941C24.1946 71.4387 24.3288 72.1126 24.3706 72.7961L24.6279 75.0507C24.7965 76.3449 24.8964 77.6478 24.927 78.9534C24.9278 79.7002 24.8825 80.4464 24.7914 81.1873C24.7276 81.7132 24.6319 82.2577 24.3347 82.6883C23.7823 83.4916 22.7155 83.6717 21.7643 83.6986C21.4045 83.7199 21.0437 83.6963 20.6894 83.6282C19.108 83.2721 17.9075 80.972 19.106 79.5517C19.6145 78.9492 20.3763 78.9306 20.6675 78.1024C21.0424 77.0031 21.1381 75.6718 21.3654 74.5269Z" fill="#FFC1C7"/>
<path d="M20.0793 74.9224L21.3376 77.0403C21.4124 77.1495 21.4647 77.2736 21.4911 77.4047C21.525 77.6801 21.3276 77.9244 21.1701 78.15C20.0932 79.6738 20.3724 81.7732 20.6915 83.6324C18.974 83.0691 17.4444 82.0141 16.2785 80.5887C15.1127 79.1633 14.3578 77.4254 14.1008 75.5745C13.9432 74.4669 13.69 72.6429 14.6372 71.9224C16.9086 70.1833 19.0104 73.1066 20.0793 74.9224Z" fill="#FF5722"/>
<path d="M26.4187 70.6781C25.9322 70.5953 25.4097 70.6781 24.959 70.4608C24.1613 70.0798 23.9819 69.0115 23.9041 68.1088C23.9041 68.0239 23.8941 67.9328 23.8901 67.8355C24.1747 67.5328 24.4836 67.2557 24.8134 67.0074C25.111 66.8264 25.4274 66.6813 25.7567 66.5747L26.6381 66.2538C26.7223 66.496 26.7889 66.7445 26.8375 66.997C26.9372 67.6057 26.8535 68.2393 26.999 68.8376C27.1609 69.3721 27.4128 69.8726 27.7429 70.3158L29.0411 72.2868C28.8057 72.2288 28.5724 72.1647 28.3411 72.0943C27.8884 71.38 27.2164 70.8127 26.4187 70.6781Z" fill="#3F3D56"/>
<path d="M202.408 79.3985C202.176 78.2328 201.744 77.1211 201.482 75.9658C201.375 75.3626 201.23 74.7672 201.05 74.1832C200.957 73.9294 200.842 73.6854 200.705 73.4544L200.828 73.3344C200.417 72.6139 200.401 71.7112 200.208 70.8913C200.04 70.1853 199.707 69.5394 199.506 68.8437C199.227 67.879 199.189 66.7899 198.613 65.9929C198.385 65.6782 198.088 65.4318 197.835 65.1399C197.544 64.8065 197.314 64.4152 197.019 64.0881C196.162 63.1399 194.87 62.8459 193.647 62.7093C192.425 62.5726 191.16 62.5747 190.034 62.0467C189.561 61.8252 189.063 61.5084 188.568 61.5457C188.29 61.2677 188.035 60.9665 187.804 60.6451C187.428 60.172 187.087 59.6702 186.783 59.1441C187.021 58.7265 187.205 58.2782 187.33 57.8108L187.411 57.7507C187.733 57.4981 188.01 57.169 188.325 56.9226C188.602 56.7155 188.959 56.4982 188.989 56.1296C189.019 55.7611 188.698 55.4795 188.498 55.1752C187.778 54.0841 188.574 52.3761 187.836 51.2974C187.467 50.757 186.823 50.5521 186.241 50.2891C185.443 49.9247 184.731 49.4009 183.94 49.0469C183.148 48.6929 182.233 48.5003 181.435 48.8399C179.943 49.4817 179.407 51.6866 177.891 52.2622C177.727 52.2967 177.579 52.3879 177.471 52.521C177.285 52.8357 177.04 54.6887 177.084 55.0717C177.142 55.5789 177.259 55.8294 177.596 56.0075C177.596 56.1151 177.596 56.2249 177.596 56.3346C177.596 58.9702 179.355 61.1585 181.674 61.6099C181.897 61.8531 182.086 62.1269 182.237 62.4235C182.354 62.7379 182.421 63.0701 182.436 63.407C182.353 63.3656 182.261 63.3457 182.169 63.349C182.021 63.3708 181.883 63.4366 181.771 63.5384C181.659 63.6402 181.577 63.7736 181.537 63.9225C181.454 64.2266 181.421 64.5429 181.439 64.8583C181.452 64.9557 181.442 65.0548 181.412 65.1478C181.381 65.2409 181.331 65.3253 181.263 65.3945C181.19 65.4403 181.107 65.4673 181.022 65.4732C180.714 65.5331 180.402 65.5663 180.089 65.5726C179.57 65.5726 179.014 65.438 178.557 65.7009C178.101 65.9639 177.893 66.5291 177.674 67.0405C177.356 67.7722 176.938 68.4522 176.432 69.0591C175.873 69.7299 175.179 70.3655 175.022 71.2537C175.02 71.2743 175.02 71.2951 175.022 71.3158C174.585 71.5228 174.138 72.0197 173.825 72.2702C173.225 72.7528 172.648 73.2662 172.096 73.8085C171.536 74.3695 170.78 75.0652 170.433 75.8147C170.256 76.1352 170.02 76.4166 169.739 76.6428C169.171 77.0258 168.437 76.8229 167.797 76.6076C166.022 76.0134 164.237 75.413 162.582 74.5041C162.501 74.4456 162.401 74.4199 162.303 74.4317C162.249 74.4493 162.2 74.4823 162.163 74.5269C162.15 74.5054 162.135 74.4846 162.119 74.4648C161.673 73.9638 160.971 73.9306 160.724 73.1646C160.655 72.9215 160.606 72.6729 160.578 72.4213C160.422 71.689 160.169 70.9825 159.826 70.322C159.776 70.1858 159.691 70.0667 159.579 69.9783C159.474 69.9255 159.353 69.9165 159.242 69.9531C159.131 69.9896 159.037 70.0691 158.981 70.175C158.866 70.3915 158.821 70.6403 158.853 70.8851C158.869 71.1543 158.907 71.4669 158.727 71.6594C158.655 71.7299 158.568 71.7811 158.472 71.8085C157.896 72.0031 157.262 71.8292 156.723 71.5373C156.185 71.2454 155.7 70.8396 155.168 70.5311C154.886 70.3711 154.596 70.2286 154.298 70.1046C153.991 69.9721 153.565 69.8851 153.393 70.1895C153.255 70.4338 153.393 70.7464 153.553 70.9783C153.82 71.3787 154.131 71.7456 154.48 72.0714C155.517 73.0342 156.823 73.5704 158.039 74.2412C159.1 74.8269 160.102 75.5204 161.031 76.3116C160.995 76.432 160.973 76.5564 160.965 76.6821C160.965 76.9266 161.015 77.1683 161.11 77.3918C161.206 77.6153 161.345 77.8157 161.519 77.9803C161.864 78.2983 162.251 78.562 162.67 78.7629C164.781 79.9016 166.908 81.0106 169.051 82.0899C169.187 82.1721 169.339 82.2229 169.496 82.239C169.931 82.2494 170.208 81.7607 170.557 81.4792C170.906 81.1976 171.354 81.1189 171.775 80.9719C172.523 80.7049 173.171 80.1976 173.811 79.6966L175.851 78.0941C176.878 77.2888 177.931 76.4378 178.793 75.4441C178.901 75.6814 179.056 75.8928 179.247 76.0652C179.08 76.4523 179.429 76.854 179.513 77.2722C179.542 77.5471 179.55 77.8242 179.534 78.1003C179.57 78.5034 179.637 78.9029 179.734 79.2949C179.832 79.935 179.877 80.5826 179.87 81.2307C179.87 81.9533 179.891 82.68 179.901 83.4005C179.915 84.3363 179.929 85.2824 179.74 86.1955C179.483 87.4377 178.852 88.6178 178.902 89.8931C178.938 90.1311 178.916 90.3748 178.837 90.6012C178.316 91.6364 177.905 92.7772 177.345 93.7958C177.179 94.0432 177.045 94.3118 176.946 94.5949C176.876 94.8906 176.904 95.2019 177.026 95.479C176.804 95.8922 176.679 96.354 176.661 96.8268C176.623 97.9966 177.076 99.1042 177.293 100.257C177.492 101.315 177.492 102.4 177.522 103.479C177.676 108.526 178.627 113.516 178.825 118.561C178.918 120.888 178.851 123.218 178.625 125.534C178.48 127.029 178.264 128.52 178.184 130.023C177.955 134.288 178.813 138.512 179.664 142.694C179.922 142.38 180.283 142.176 180.677 142.124C180.573 142.538 180.436 143.077 180.292 143.474C180.084 143.504 179.885 143.579 179.706 143.694C179.209 144.023 179.04 144.698 178.751 145.244C178.119 146.435 176.876 147.046 175.857 147.863C175.369 148.255 174.876 148.853 175.03 149.489C176.795 150.021 178.717 150.493 180.414 149.76C181.104 149.464 181.75 148.973 182.49 148.948C183.052 148.93 183.627 149.184 184.165 149.01C184.298 148.973 184.415 148.889 184.496 148.772C184.559 148.644 184.59 148.502 184.584 148.358C184.63 147.385 184.626 146.41 184.572 145.437C184.526 144.609 184.608 143.988 183.96 143.872C183.798 143.456 183.679 143.023 183.603 142.582C183.603 142.501 183.585 142.416 183.575 142.331C183.753 142.333 183.931 142.318 184.107 142.286C184.216 142.267 184.323 142.24 184.428 142.207C184.394 142.064 184.364 141.919 184.336 141.776C184.281 141.489 184.237 141.201 184.201 140.913C184.165 140.625 184.139 140.333 184.119 140.044C184.119 139.897 184.103 139.752 184.097 139.605C184.085 139.313 184.081 139.021 184.083 138.727C184.085 138.433 184.083 138.141 184.103 137.847C184.123 137.553 184.131 137.259 184.151 136.965C184.199 136.23 184.269 135.495 184.338 134.766C184.542 132.625 184.747 130.486 184.953 128.348C185.012 127.706 185.074 127.062 185.082 126.419C185.09 126.033 185.073 125.648 185.03 125.265C184.925 124.338 184.644 123.402 184.632 122.487C184.628 122.334 184.633 122.181 184.648 122.029C184.661 121.876 184.686 121.724 184.721 121.574C184.739 121.491 184.763 121.408 184.787 121.328C184.837 121.164 184.893 121.005 184.943 120.841C184.969 120.76 184.993 120.677 185.014 120.595C185.096 120.245 185.145 119.888 185.16 119.528C185.16 119.408 185.174 119.288 185.18 119.168L185.425 114.121C185.465 113.311 185.531 112.437 185.836 111.715C185.967 111.396 186.159 111.108 186.4 110.868C186.339 110.696 186.4 110.406 186.572 110.361C186.773 112.937 186.748 115.528 186.498 118.1C186.41 118.907 186.281 119.708 186.245 120.52C186.169 122.309 186.55 124.079 186.684 125.864C186.817 127.648 186.684 129.487 186.684 131.298C186.67 134.414 187.001 137.52 187.33 140.615L187.529 140.752C187.529 141.025 187.559 141.323 187.555 141.58C187.548 141.669 187.557 141.759 187.581 141.845H187.497C187.304 141.862 187.118 141.927 186.955 142.035C186.792 142.144 186.656 142.291 186.56 142.466C186.362 142.82 186.219 143.205 186.135 143.605C186.037 143.9 185.997 144.212 186.016 144.524C186.091 145.114 186.574 145.559 186.702 146.139C186.935 147.188 185.944 148.321 186.394 149.286C186.682 149.907 187.405 150.079 188.038 150.186C189.003 150.35 190.102 150.48 190.861 149.816C191.068 149.63 191.233 149.399 191.345 149.14C191.457 148.882 191.513 148.601 191.509 148.317C191.509 147.559 191.077 146.884 190.887 146.155C190.62 145.133 191.019 143.758 190.598 142.814C190.564 142.714 190.511 142.623 190.443 142.545H190.586C190.552 142.199 190.518 141.851 190.482 141.509L190.817 141.331C191.162 141.151 191.561 141.015 191.92 141.155C191.787 139.377 191.749 137.412 192.144 135.681C192.451 134.315 193.001 133.019 193.256 131.64C193.456 130.503 193.47 129.336 193.474 128.178C193.474 126.029 193.474 123.866 193.127 121.76C192.987 120.915 192.788 120.05 192.939 119.205C193.039 118.648 193.282 118.135 193.426 117.588C193.761 116.311 193.516 114.938 193.715 113.628C194.19 110.497 194.441 107.23 194.802 104.085C194.982 102.303 195.043 100.51 194.985 98.7191V98.6984L195.701 97.2491C196.214 96.214 196.734 95.1622 197.045 94.0504C197.153 94.2067 197.239 94.3773 197.303 94.5577L200.449 89.1292C200.654 88.8081 200.815 88.4599 200.93 88.094C201.002 87.8311 201.026 87.5557 201.079 87.2886C201.221 86.5951 201.56 85.9698 201.831 85.3238C202.6 83.4558 202.801 81.3884 202.408 79.3985V79.3985ZM197.699 82.1231C197.553 83.015 197.353 83.8967 197.101 84.7628C196.686 86.2493 196.206 87.711 195.725 89.1747L195.312 90.4169C195.17 90.9171 194.956 91.3923 194.678 91.8269C194.615 91.9354 194.558 92.0481 194.509 92.1643C194.082 90.508 194.545 88.6447 194.447 86.8787C194.373 85.5433 193.974 84.1872 194.273 82.8932C194.473 82.0216 194.975 81.2721 195.328 80.4564C195.657 79.6987 195.863 78.8726 196.234 78.1418C196.234 78.1562 196.234 78.1687 196.248 78.1811C196.578 79.0812 196.973 79.9539 197.43 80.7918C197.559 80.9811 197.656 81.1909 197.719 81.4129C197.76 81.6496 197.756 81.8924 197.705 82.1272L197.699 82.1231Z" fill="url(#paint1_linear)"/>
<path d="M160.672 73.1584C160.6 72.9151 160.549 72.6657 160.52 72.4131C160.391 71.6698 160.06 70.9845 159.734 70.3075C159.683 70.1688 159.593 70.0487 159.477 69.9618C159.369 69.9116 159.246 69.9039 159.133 69.94C159.019 69.9762 158.922 70.0538 158.859 70.1584C158.741 70.3744 158.694 70.6245 158.725 70.8706C158.743 71.1439 158.783 71.4566 158.598 71.6491C158.521 71.7202 158.428 71.7713 158.329 71.7982C157.73 71.9949 157.066 71.8189 156.502 71.527C155.938 71.235 155.435 70.8251 154.879 70.5166C154.584 70.3565 154.281 70.2141 153.971 70.0901C153.65 69.9555 153.206 69.8686 153.026 70.175C152.883 70.4193 153.026 70.7319 153.192 70.9659C153.471 71.3698 153.797 71.7375 154.161 72.0611C155.242 73.028 156.608 73.5663 157.878 74.2391C159.301 74.9932 160.627 75.9294 161.826 77.0258C161.943 76.8827 162.012 76.7052 162.026 76.5186C162.121 75.9907 162.542 74.9224 162.117 74.4648C161.653 73.9617 160.929 73.9286 160.672 73.1584Z" fill="#A0616A"/>
<path d="M180.671 144.253C181.736 145.115 183.085 145.508 184.426 145.346C184.705 145.311 185.024 145.207 185.116 144.932C185.15 144.765 185.131 144.591 185.064 144.435C184.853 143.914 184.691 143.373 184.58 142.82C184.51 142.317 184.528 141.719 184.133 141.416C183.563 140.979 182.071 141.002 181.7 141.679C181.612 141.824 181.054 144.586 180.671 144.253Z" fill="#3C354C"/>
<path d="M188.706 141.81C188.692 141.864 188.69 141.922 188.699 141.977C188.708 142.033 188.729 142.086 188.76 142.133C188.791 142.18 188.831 142.219 188.878 142.248C188.924 142.277 188.977 142.296 189.031 142.302C189.947 142.597 190.896 142.762 191.855 142.793L191.655 140.801C191.659 140.757 191.653 140.712 191.639 140.67C191.625 140.628 191.601 140.589 191.571 140.558C191.541 140.526 191.505 140.501 191.464 140.485C191.424 140.469 191.381 140.463 191.338 140.466C190.788 140.371 189.631 139.984 189.103 140.182C188.508 140.406 188.718 141.215 188.706 141.81Z" fill="#3C354C"/>
<path d="M183.136 62.3677C183.291 62.7856 183.367 63.2304 183.361 63.6782C183.411 65.2827 183.146 67.0156 182.069 68.1667C183.278 67.792 184.636 68.0177 185.776 67.4587C186.305 67.1999 186.749 66.7879 187.244 66.467C188.125 65.8956 189.152 65.6181 190.07 65.1088C190.987 64.5995 191.837 63.7403 191.888 62.6637C191.49 62.2289 190.849 62.1668 190.327 61.9039C189.765 61.6182 189.348 61.0965 188.951 60.5934C188.483 60.0387 188.072 59.4343 187.727 58.7901C187.379 58.1411 187.24 57.3943 187.328 56.6576C186.309 56.8481 185.569 57.7715 184.606 58.1669C184.231 58.3201 183.826 58.3905 183.461 58.5665C182.941 58.8149 181.886 59.6596 181.866 60.3221C181.868 61.0447 182.865 61.73 183.136 62.3677Z" fill="#A0616A"/>
<path opacity="0.1" d="M183.136 62.3677C183.291 62.7856 183.367 63.2304 183.361 63.6782C183.411 65.2827 183.146 67.0156 182.069 68.1667C183.278 67.792 184.636 68.0177 185.776 67.4587C186.305 67.1999 186.749 66.7879 187.244 66.467C188.125 65.8956 189.152 65.6181 190.07 65.1088C190.987 64.5995 191.837 63.7403 191.888 62.6637C191.49 62.2289 190.849 62.1668 190.327 61.9039C189.765 61.6182 189.348 61.0965 188.951 60.5934C188.483 60.0387 188.072 59.4343 187.727 58.7901C187.379 58.1411 187.24 57.3943 187.328 56.6576C186.309 56.8481 185.569 57.7715 184.606 58.1669C184.231 58.3201 183.826 58.3905 183.461 58.5665C182.941 58.8149 181.886 59.6596 181.866 60.3221C181.868 61.0447 182.865 61.73 183.136 62.3677Z" fill="black"/>
<path d="M196.256 104.181C195.879 107.336 195.617 110.615 195.121 113.756C194.921 115.071 195.169 116.448 194.82 117.731C194.67 118.28 194.421 118.795 194.311 119.352C194.154 120.201 194.361 121.069 194.511 121.918C194.878 124.04 194.878 126.212 194.872 128.369C194.872 129.53 194.872 130.702 194.646 131.843C194.379 133.228 193.805 134.534 193.484 135.897C193.071 137.636 193.111 139.607 193.25 141.391C192.875 141.251 192.453 141.391 192.098 141.567C191.743 141.743 191.384 141.981 190.987 142.008C190.451 142.06 189.946 141.766 189.483 141.48C189.128 141.263 188.819 141.066 188.466 140.843C188.121 137.737 187.776 134.619 187.79 131.491C187.79 129.673 187.928 127.851 187.79 126.038C187.653 124.224 187.252 122.468 187.334 120.675C187.372 119.86 187.505 119.056 187.595 118.247C187.89 115.626 187.85 113.112 187.673 110.481C187.499 110.526 187.429 110.816 187.493 110.988C187.24 111.226 187.036 111.516 186.895 111.839C186.576 112.564 186.508 113.442 186.466 114.253L186.209 119.319C186.202 119.801 186.145 120.281 186.037 120.75C185.948 121.083 185.812 121.398 185.73 121.733C185.437 122.947 185.908 124.197 186.057 125.437C186.179 126.472 186.075 127.508 185.974 128.53L185.334 134.973C185.1 137.317 184.873 139.71 185.334 142.013C185.363 142.155 185.393 142.3 185.429 142.445C185.319 142.478 185.207 142.505 185.094 142.524C184.697 142.582 184.295 142.582 183.898 142.524C183.527 142.485 183.152 142.418 182.785 142.373C181.904 142.269 181.024 142.23 180.44 142.921C179.55 138.735 178.657 134.485 178.894 130.205C178.978 128.698 179.201 127.201 179.355 125.7C179.594 123.377 179.666 121.039 179.57 118.704C179.371 113.64 178.374 108.632 178.208 103.566C178.175 102.485 178.178 101.394 177.971 100.334C177.744 99.185 177.271 98.0566 177.309 96.891C177.347 95.7254 178.167 94.4314 179.303 94.4956C182.44 94.6757 185.306 92.8786 188.434 92.5722C189.854 92.4314 191.298 92.2223 192.704 92.4853C194.11 92.7482 195.51 93.5743 196.062 94.9407C196.361 95.684 196.385 96.508 196.407 97.3113C196.471 99.6053 196.529 101.905 196.256 104.181Z" fill="#575A89"/>
<path d="M180.498 143.926C179.979 144.257 179.802 144.934 179.501 145.483C178.841 146.677 177.544 147.29 176.48 148.11C175.969 148.505 175.455 149.104 175.616 149.743C177.459 150.275 179.465 150.75 181.242 150.015C181.961 149.716 182.637 149.224 183.409 149.199C183.997 149.18 184.606 149.437 185.158 149.261C185.297 149.227 185.421 149.143 185.505 149.023C185.57 148.895 185.601 148.753 185.597 148.609C185.645 147.631 185.64 146.652 185.583 145.675C185.527 144.721 185.651 144.046 184.602 144.087C183.397 144.141 181.543 143.257 180.498 143.926Z" fill="#CBCEDA"/>
<path d="M189.328 142.228C189.11 142.138 188.88 142.084 188.646 142.068C188.447 142.085 188.255 142.149 188.085 142.257C187.915 142.365 187.771 142.513 187.667 142.69C187.461 143.043 187.311 143.429 187.224 143.832C187.122 144.127 187.08 144.441 187.1 144.754C187.178 145.346 187.683 145.789 187.816 146.373C188.058 147.427 187.019 148.563 187.493 149.532C187.794 150.153 188.55 150.327 189.21 150.435C190.219 150.6 191.366 150.731 192.16 150.062C192.373 149.88 192.544 149.651 192.662 149.391C192.779 149.131 192.839 148.848 192.838 148.561C192.826 147.799 192.385 147.122 192.186 146.389C191.908 145.354 192.325 143.984 191.884 143.037C191.508 142.228 190.132 142.495 189.328 142.228Z" fill="#CBCEDA"/>
<path d="M183.473 61.639C186.335 61.639 188.656 59.2299 188.656 56.2581C188.656 53.2863 186.335 50.8772 183.473 50.8772C180.611 50.8772 178.29 53.2863 178.29 56.2581C178.29 59.2299 180.611 61.639 183.473 61.639Z" fill="#A0616A"/>
<path d="M186.221 65.0757C185.662 64.8289 185.04 64.7802 184.452 64.937L183.98 64.0819C183.78 63.7051 183.483 63.2786 183.066 63.2952C182.914 63.3156 182.771 63.3809 182.654 63.4833C182.537 63.5857 182.451 63.7209 182.406 63.8728C182.32 64.1768 182.284 64.4942 182.302 64.8107C182.316 64.9093 182.307 65.0098 182.275 65.1039C182.244 65.1979 182.191 65.2827 182.121 65.3511C182.043 65.3951 181.958 65.4219 181.87 65.4297C181.548 65.4886 181.222 65.5219 180.895 65.5291C180.352 65.5291 179.772 65.3925 179.299 65.6575C178.827 65.9225 178.607 66.4856 178.378 67.0032C178.044 67.7403 177.607 68.4225 177.082 69.028C176.497 69.7009 175.774 70.3386 175.608 71.2288C175.538 71.6077 175.869 71.8893 176.133 72.1626C177.179 73.2412 178.639 73.9037 179.415 75.2081C179.596 75.5124 179.744 75.8561 180.023 76.0652C179.85 76.4565 180.223 76.8581 180.3 77.2784C180.331 77.5533 180.338 77.8304 180.322 78.1066C180.357 78.5112 180.424 78.9121 180.522 79.3053C180.624 79.9471 180.671 80.5969 180.663 81.2473L180.697 83.4253C180.711 84.3653 180.725 85.3135 180.528 86.2307C180.258 87.4729 179.6 88.6634 179.652 89.9408C179.691 90.1802 179.667 90.426 179.584 90.653C179.04 91.6882 178.611 92.8352 178.027 93.8579C177.86 94.106 177.726 94.3762 177.628 94.6612C177.473 95.2513 177.792 95.891 178.262 96.2595C178.733 96.6281 179.327 96.7792 179.906 96.8931C185.278 97.9614 190.855 96.6757 195.933 94.5639C196.066 94.5205 196.19 94.4501 196.298 94.3569C196.668 93.9821 196.377 93.3507 196.166 92.8621C195.368 91.0422 196.004 88.9284 195.891 86.9408C195.815 85.6013 195.396 84.2493 195.711 82.9409C195.911 82.0672 196.443 81.3136 196.812 80.4978C197.211 79.6138 197.434 78.6345 197.957 77.8271C198.348 77.2722 198.806 76.7713 199.319 76.3364L202.559 73.3385C202.13 72.616 202.112 71.7091 201.911 70.8872C201.736 70.1791 201.387 69.529 201.177 68.8334C200.886 67.8645 200.846 66.763 200.244 65.9701C200.007 65.6533 199.698 65.407 199.432 65.115C199.129 64.7796 198.89 64.3883 198.581 64.0591C197.685 63.1068 196.335 62.8045 195.061 62.6761C193.787 62.5478 192.469 62.5416 191.288 62.0115C190.71 61.7528 190.092 61.3615 189.493 61.5561C189.019 61.7093 188.714 62.1917 188.52 62.6699C188.327 63.1482 188.191 63.6637 187.874 64.0633C187.483 64.5395 186.791 64.8542 186.221 65.0757Z" fill="#3C354C"/>
<path d="M170.8 75.8168C170.612 76.1394 170.366 76.4207 170.074 76.6449C169.476 77.0279 168.716 76.825 168.048 76.6097C166.196 76.0114 164.331 75.411 162.602 74.4979C162.516 74.4384 162.413 74.4127 162.311 74.4255C162.231 74.4522 162.161 74.5043 162.111 74.5746C161.84 74.8875 161.59 75.2203 161.364 75.5704C161.125 75.8952 160.975 76.2806 160.929 76.6863C160.93 76.9334 160.983 77.1774 161.082 77.402C161.181 77.6265 161.326 77.8265 161.505 77.9886C161.866 78.308 162.269 78.5723 162.702 78.7733C164.907 79.9161 167.127 81.0293 169.362 82.1127C169.505 82.1954 169.664 82.2462 169.827 82.2618C170.282 82.2722 170.571 81.7815 170.934 81.4999C171.297 81.2183 171.773 81.1397 172.206 80.9906C172.988 80.7235 173.668 80.2142 174.334 79.7111L176.463 78.1045C178.33 76.6967 180.29 75.1625 181.106 72.9286L178.513 72.0425C177.736 71.7754 176.918 71.3696 176.111 71.2144C175.512 71.0943 174.792 71.9141 174.344 72.264C173.713 72.7497 173.107 73.2686 172.527 73.8189C171.953 74.3654 171.163 75.0652 170.8 75.8168Z" fill="#3C354C"/>
<path d="M195.338 93.4915C194.606 93.7938 193.777 93.3383 193.001 93.4729C192.638 93.5572 192.291 93.7064 191.976 93.9139L189.711 95.2286C189.571 95.3072 189.42 95.4998 189.541 95.6033C189.576 95.6274 189.617 95.6417 189.659 95.6447C190.415 95.7461 191.121 95.2679 191.872 95.1354C192.203 95.0887 192.537 95.0755 192.87 95.0961C192.924 95.0927 192.979 95.1011 193.031 95.1209C193.086 95.1537 193.131 95.202 193.161 95.2603C193.19 95.3185 193.204 95.3844 193.199 95.4501C193.199 95.5826 193.161 95.711 193.157 95.8435C193.179 96.1487 193.295 96.4386 193.486 96.6716C194.207 97.746 195.007 98.7607 195.879 99.7068C196.1 99.4164 196.291 99.1027 196.449 98.7709L197.195 97.3217C197.969 95.8269 198.76 94.2762 198.884 92.5847C198.326 92.4004 197.289 91.7897 196.712 92.1106C196.136 92.4315 196.002 93.27 195.338 93.4915Z" fill="#A0616A"/>
<path d="M182.817 55.3988C184.277 55.5603 185.609 56.2767 186.915 56.9806C186.692 57.345 186.975 57.8688 187.372 57.993C187.768 58.1172 188.203 57.9413 188.54 57.6866C188.877 57.4319 189.154 57.1028 189.493 56.8585C189.785 56.6514 190.155 56.432 190.187 56.0634C190.219 55.6949 189.884 55.4113 189.675 55.1049C188.923 54.0096 189.755 52.2954 188.985 51.2126C188.598 50.6701 187.926 50.4652 187.33 50.2002C186.504 49.8358 185.752 49.3099 184.925 48.9476C184.097 48.5853 183.144 48.3969 182.31 48.7406C180.751 49.3844 180.193 51.5977 178.609 52.1753C178.439 52.2101 178.284 52.3017 178.169 52.4361C177.969 52.7508 177.72 54.6121 177.77 54.9951C177.846 55.6349 178.015 55.8709 178.621 56.0614C179.917 56.463 181.429 55.2436 182.817 55.3988Z" fill="#3F3D56"/>
<path d="M201.716 72.5663C202.185 73.0087 202.55 73.5569 202.782 74.1687C202.972 74.7537 203.122 75.3514 203.233 75.9575C203.506 77.1211 203.957 78.2349 204.198 79.4026C204.609 81.3978 204.4 83.4768 203.6 85.3404C203.317 85.9905 202.962 86.6158 202.814 87.3135C202.758 87.5806 202.733 87.858 202.659 88.121C202.537 88.4879 202.368 88.8361 202.156 89.1561L198.886 94.6198C198.76 94.301 198.571 94.0136 198.33 93.7766C198.09 93.5395 197.803 93.3584 197.49 93.2451C196.861 93.0246 196.186 92.9824 195.536 93.123C195.779 92.7254 195.887 92.2803 196.134 91.8807C196.27 91.6685 196.394 91.4488 196.507 91.2224C196.618 90.9767 196.715 90.7243 196.798 90.4667L197.227 89.21C197.729 87.7421 198.224 86.2742 198.664 84.7835C198.93 83.9154 199.14 83.0301 199.295 82.1334C199.343 81.9055 199.348 81.67 199.311 81.4399C199.244 81.2128 199.141 80.9988 199.007 80.8063C198.532 79.9683 198.119 79.0934 197.773 78.1894C197.514 77.5579 197.253 76.8478 197.486 76.206C197.634 75.8662 197.854 75.5649 198.128 75.324C199.215 74.2614 200.419 73.3358 201.716 72.5663V72.5663Z" fill="#3C354C"/>
<path opacity="0.1" d="M185.096 142.52L185.336 142.008C184.877 139.71 185.104 137.317 185.336 134.969L185.976 128.526C186.077 127.491 186.175 126.456 186.059 125.433C185.91 124.191 185.439 122.949 185.732 121.729C185.814 121.394 185.95 121.079 186.039 120.746C186.147 120.277 186.204 119.797 186.211 119.315L186.468 114.249C186.51 113.437 186.578 112.56 186.897 111.835V111.696L186.075 104.355L183.906 142.52H185.096Z" fill="black"/>
<path d="M166.433 145.685C167.031 144.545 166.353 143.145 165.577 142.129C164.802 141.112 163.86 140.058 163.88 138.756C163.91 136.893 165.815 135.793 167.336 134.804C168.466 134.071 169.508 133.202 170.439 132.214C170.829 131.834 171.152 131.385 171.392 130.889C171.707 130.16 171.699 129.332 171.679 128.535C171.612 125.876 171.485 123.22 171.299 120.566" stroke="#3F3D56" stroke-width="4" stroke-miterlimit="10"/>
<path d="M174.192 120.421C174.171 119.934 174.032 119.461 173.788 119.045C173.544 118.628 173.203 118.283 172.796 118.04L172.17 119.328L172.19 117.769C171.89 117.677 171.579 117.638 171.267 117.653C170.716 117.681 170.186 117.878 169.742 118.219C169.299 118.56 168.964 119.03 168.777 119.568C168.591 120.107 168.563 120.691 168.696 121.247C168.829 121.803 169.117 122.305 169.525 122.69C169.933 123.076 170.441 123.328 170.987 123.413C171.532 123.499 172.089 123.415 172.589 123.173C173.088 122.93 173.507 122.539 173.793 122.049C174.079 121.559 174.218 120.993 174.194 120.421H174.192Z" fill="#57B894"/>
<path d="M169.201 140.087C168.907 140.678 168.427 141.146 167.841 141.413C167.254 141.68 166.597 141.729 165.98 141.553C165.362 141.377 164.822 140.986 164.449 140.445C164.077 139.905 163.894 139.248 163.933 138.584C163.971 137.92 164.228 137.291 164.661 136.801C165.093 136.31 165.675 135.989 166.308 135.891C166.941 135.793 167.588 135.924 168.139 136.262C168.69 136.6 169.113 137.125 169.336 137.748L167.587 139.232L169.512 138.77C169.51 139.229 169.403 139.68 169.201 140.087V140.087Z" fill="#57B894"/>
<path d="M167.819 134.445C167.123 134.496 166.435 134.275 165.888 133.826C165.342 133.376 164.977 132.731 164.866 132.017C164.755 131.302 164.905 130.57 165.287 129.965C165.67 129.36 166.256 128.925 166.931 128.746L166.916 129.942L167.55 128.64C167.917 128.621 168.284 128.678 168.63 128.807C168.976 128.936 169.294 129.135 169.566 129.392C169.838 129.649 170.058 129.959 170.214 130.305C170.37 130.651 170.459 131.025 170.475 131.406C170.491 131.741 170.451 132.077 170.355 132.398C170.187 132.969 169.853 133.472 169.399 133.838C168.945 134.205 168.393 134.417 167.819 134.445Z" fill="#57B894"/>
<path d="M174.613 129.752C174.183 129.768 173.756 129.681 173.364 129.498C172.972 129.315 172.626 129.04 172.353 128.695C172.08 128.35 171.888 127.945 171.791 127.51C171.694 127.075 171.694 126.623 171.793 126.188C171.892 125.754 172.086 125.349 172.361 125.006C172.635 124.662 172.982 124.389 173.375 124.207C173.768 124.026 174.195 123.941 174.625 123.959C175.055 123.978 175.474 124.099 175.851 124.313L175.357 125.721L176.374 124.706C176.919 125.225 177.244 125.946 177.277 126.713C177.29 126.982 177.267 127.251 177.207 127.514C177.069 128.13 176.741 128.682 176.272 129.086C175.804 129.49 175.221 129.724 174.613 129.752V129.752Z" fill="#57B894"/>
<path opacity="0.1" d="M173.815 121.195C173.169 121.268 172.541 121.477 171.893 121.518C171.245 121.559 170.533 121.4 170.122 120.876C169.903 120.595 169.791 120.239 169.606 119.93C169.429 119.644 169.186 119.407 168.9 119.241C168.731 119.607 168.638 120.006 168.627 120.412C168.617 120.819 168.688 121.222 168.838 121.598C168.987 121.973 169.211 122.312 169.494 122.592C169.778 122.872 170.115 123.087 170.484 123.223C170.852 123.359 171.245 123.413 171.635 123.381C172.025 123.35 172.404 123.233 172.748 123.04C173.092 122.846 173.393 122.58 173.632 122.258C173.87 121.936 174.041 121.565 174.132 121.17C174.027 121.174 173.922 121.183 173.815 121.195Z" fill="black"/>
<path opacity="0.1" d="M174.613 129.752C174.13 129.777 173.65 129.672 173.218 129.447C172.786 129.222 172.418 128.884 172.149 128.466C171.881 128.049 171.722 127.566 171.687 127.066C171.652 126.565 171.743 126.064 171.951 125.611C172.173 125.766 172.364 125.964 172.513 126.195C172.713 126.508 172.834 126.87 173.068 127.156C173.504 127.688 174.248 127.862 174.924 127.831C175.6 127.8 176.252 127.599 176.918 127.535C177.012 127.535 177.106 127.52 177.201 127.518C177.063 128.132 176.735 128.682 176.268 129.085C175.801 129.489 175.22 129.723 174.613 129.752V129.752Z" fill="black"/>
<path opacity="0.1" d="M167.819 134.445C167.341 134.47 166.864 134.368 166.435 134.146C166.007 133.925 165.64 133.593 165.37 133.182C165.101 132.771 164.937 132.296 164.896 131.8C164.855 131.305 164.937 130.807 165.135 130.354C165.367 130.512 165.569 130.712 165.733 130.944C165.95 131.263 166.086 131.632 166.341 131.926C166.814 132.47 167.607 132.663 168.321 132.646C169.035 132.63 169.683 132.454 170.371 132.398C170.202 132.971 169.866 133.476 169.409 133.843C168.951 134.21 168.396 134.42 167.819 134.445V134.445Z" fill="black"/>
<path opacity="0.1" d="M169.201 140.087C168.898 140.79 168.339 141.339 167.646 141.613C166.954 141.888 166.184 141.865 165.508 141.551C164.831 141.237 164.302 140.656 164.038 139.937C163.773 139.218 163.795 138.419 164.098 137.717C164.329 137.873 164.536 138.065 164.712 138.286C164.979 138.621 165.155 139.004 165.462 139.321C166.034 139.905 166.957 140.149 167.781 140.168C168.255 140.17 168.73 140.143 169.201 140.087V140.087Z" fill="black"/>
<path d="M162.211 144.371C162.211 144.371 164.421 144.3 165.087 143.808C165.753 143.315 168.477 142.729 168.648 143.518C168.82 144.307 171.969 147.451 169.476 147.464C166.983 147.476 163.681 147.062 163.015 146.636C162.349 146.209 162.211 144.371 162.211 144.371Z" fill="#656380"/>
<path opacity="0.2" d="M169.52 147.191C167.025 147.211 163.725 146.776 163.061 146.362C162.554 146.041 162.353 144.895 162.285 144.365H162.211C162.211 144.365 162.351 146.215 163.009 146.642C163.667 147.068 166.975 147.485 169.47 147.47C170.19 147.47 170.437 147.199 170.423 146.805C170.329 147.037 170.056 147.184 169.52 147.191Z" fill="black"/>
<path d="M11.6459 147.963C11.0476 146.822 11.7256 145.422 12.5014 144.406C13.2771 143.389 14.2183 142.336 14.1984 141.033C14.1685 139.17 12.2641 138.071 10.7425 137.081C9.61271 136.349 8.57105 135.479 7.6396 134.491C7.24923 134.111 6.92654 133.662 6.68639 133.166C6.37131 132.437 6.37928 131.609 6.39923 130.812C6.46703 128.154 6.59399 125.497 6.78011 122.843" stroke="#3F3D56" stroke-width="4" stroke-miterlimit="10"/>
<path d="M3.88663 122.698C3.90783 122.211 4.04685 121.738 4.29083 121.322C4.53481 120.906 4.87589 120.56 5.28254 120.317L5.90871 121.605L5.88877 120.046C6.18829 119.955 6.50025 119.916 6.81207 119.93C7.36288 119.958 7.89326 120.155 8.3363 120.496C8.77934 120.837 9.1152 121.307 9.3015 121.846C9.48779 122.385 9.51619 122.969 9.3831 123.524C9.25001 124.08 8.96139 124.582 8.55366 124.968C8.14594 125.353 7.63736 125.605 7.0921 125.691C6.54684 125.777 5.98932 125.693 5.48988 125.45C4.99043 125.207 4.57144 124.816 4.28575 124.326C4.00007 123.837 3.86049 123.27 3.88463 122.698H3.88663Z" fill="#57B894"/>
<path d="M8.87796 142.364C9.17154 142.955 9.65176 143.423 10.2382 143.69C10.8246 143.957 11.4815 144.007 12.0989 143.83C12.7163 143.654 13.2566 143.263 13.6292 142.723C14.0019 142.182 14.1843 141.525 14.1458 140.861C14.1074 140.198 13.8504 139.568 13.418 139.078C12.9856 138.588 12.404 138.267 11.7707 138.169C11.1375 138.071 10.491 138.202 9.93963 138.54C9.38828 138.878 8.96558 139.402 8.74236 140.025L10.4912 141.501L8.57485 141.039C8.57309 141.5 8.677 141.954 8.87796 142.364V142.364Z" fill="#57B894"/>
<path d="M10.26 136.723C10.9554 136.774 11.644 136.553 12.1904 136.103C12.7368 135.654 13.1015 135.009 13.2128 134.294C13.324 133.58 13.1737 132.848 12.7915 132.242C12.4093 131.637 11.8228 131.202 11.1474 131.023L11.1633 132.22L10.5292 130.918C10.162 130.899 9.79486 130.956 9.44886 131.085C9.10287 131.214 8.78484 131.413 8.51302 131.67C8.2412 131.927 8.02095 132.237 7.86492 132.582C7.70888 132.928 7.62013 133.302 7.60376 133.684C7.58738 134.019 7.62788 134.354 7.72342 134.675C7.8916 135.246 8.22552 135.749 8.67954 136.116C9.13357 136.482 9.68553 136.694 10.26 136.723Z" fill="#57B894"/>
<path d="M3.46586 132.029C3.89546 132.046 4.32292 131.959 4.71489 131.776C5.10687 131.592 5.45278 131.317 5.72566 130.973C5.99855 130.628 6.19103 130.222 6.28811 129.787C6.38519 129.352 6.38425 128.9 6.28535 128.466C6.18645 128.032 5.99227 127.627 5.71795 127.283C5.44362 126.939 5.09656 126.666 4.70383 126.485C4.31109 126.303 3.88327 126.218 3.45374 126.237C3.0242 126.255 2.60455 126.376 2.22748 126.59L2.72203 127.998L1.70501 126.984C1.15852 127.501 0.832188 128.223 0.797667 128.99C0.78439 129.259 0.807888 129.529 0.867462 129.791C1.0058 130.408 1.33469 130.96 1.80388 131.364C2.27308 131.768 2.85678 132.002 3.46586 132.029V132.029Z" fill="#57B894"/>
<path opacity="0.1" d="M4.26348 123.473C4.90959 123.545 5.53775 123.754 6.18586 123.795C6.83396 123.837 7.54588 123.677 7.95667 123.154C8.17603 122.872 8.28771 122.516 8.47316 122.208C8.65029 121.921 8.89276 121.684 9.17909 121.518C9.34796 121.885 9.44074 122.284 9.45141 122.69C9.46208 123.096 9.39042 123.5 9.24105 123.875C9.09169 124.251 8.86797 124.59 8.58441 124.869C8.30084 125.149 7.96376 125.364 7.59504 125.5C7.22631 125.636 6.83418 125.69 6.44406 125.659C6.05395 125.627 5.67457 125.511 5.33054 125.317C4.98651 125.124 4.68551 124.857 4.44706 124.535C4.20861 124.213 4.03804 123.843 3.94641 123.448C4.05144 123.452 4.15713 123.46 4.26348 123.473Z" fill="black"/>
<path opacity="0.1" d="M3.46586 132.029C3.94855 132.055 4.42933 131.95 4.86115 131.724C5.29298 131.499 5.66106 131.161 5.92939 130.744C6.19771 130.326 6.35708 129.844 6.39191 129.343C6.42674 128.843 6.33583 128.342 6.12807 127.889C5.906 128.044 5.71502 128.242 5.56572 128.472C5.3663 128.785 5.24466 129.147 5.01134 129.433C4.57462 129.965 3.8308 130.139 3.15478 130.108C2.47875 130.077 1.82666 129.876 1.16061 129.812C1.06689 129.812 0.973161 129.797 0.877441 129.795C1.01606 130.409 1.3438 130.96 1.81092 131.363C2.27805 131.766 2.85907 132 3.46586 132.029V132.029Z" fill="black"/>
<path opacity="0.1" d="M10.26 136.723C10.7382 136.748 11.2146 136.645 11.6434 136.424C12.0722 136.203 12.439 135.871 12.7085 135.46C12.9781 135.049 13.1413 134.573 13.1826 134.078C13.2238 133.582 13.1417 133.085 12.9441 132.632C12.7119 132.789 12.5092 132.989 12.3459 133.222C12.1285 133.541 11.9929 133.909 11.7476 134.203C11.275 134.748 10.4813 134.94 9.76741 134.924C9.0535 134.907 8.40539 134.731 7.71741 134.675C7.88594 135.247 8.22076 135.751 8.67597 136.117C9.13117 136.484 9.68447 136.695 10.26 136.723Z" fill="black"/>
<path opacity="0.1" d="M8.87805 142.365C9.18084 143.067 9.74004 143.616 10.4327 143.891C11.1253 144.165 11.8945 144.143 12.5712 143.828C13.2479 143.514 13.7767 142.933 14.0411 142.214C14.3055 141.495 14.2839 140.697 13.9811 139.994C13.7501 140.151 13.5431 140.343 13.3669 140.563C13.0997 140.899 12.9242 141.282 12.6171 141.599C12.0448 142.182 11.1215 142.427 10.2979 142.445C9.82349 142.448 9.34937 142.421 8.87805 142.365V142.365Z" fill="black"/>
<path d="M15.8676 146.648C15.8676 146.648 13.658 146.578 12.992 146.085C12.3259 145.592 9.60189 145.006 9.4304 145.795C9.2589 146.584 6.11011 149.729 8.60282 149.741C11.0955 149.754 14.3979 149.34 15.0639 148.913C15.73 148.487 15.8676 146.648 15.8676 146.648Z" fill="#656380"/>
<path opacity="0.2" d="M8.55894 149.468C11.0536 149.489 14.354 149.054 15.018 148.64C15.5246 148.319 15.726 147.172 15.7938 146.642H15.8676C15.8676 146.642 15.728 148.493 15.0699 148.919C14.4118 149.346 11.1035 149.762 8.60879 149.747C7.8889 149.747 7.64163 149.476 7.65558 149.083C7.74931 149.315 8.02251 149.462 8.55894 149.468Z" fill="black"/>
<defs>
<linearGradient id="paint0_linear" x1="24.925" y1="151.42" x2="24.925" y2="54.0593" gradientUnits="userSpaceOnUse">
<stop stop-color="#808080" stop-opacity="0.25"/>
<stop offset="0.54" stop-color="#808080" stop-opacity="0.12"/>
<stop offset="1" stop-color="#808080" stop-opacity="0.1"/>
</linearGradient>
<linearGradient id="paint1_linear" x1="48361.5" y1="82034" x2="48361.5" y2="32121" gradientUnits="userSpaceOnUse">
<stop stop-color="#808080" stop-opacity="0.25"/>
<stop offset="0.54" stop-color="#808080" stop-opacity="0.12"/>
<stop offset="1" stop-color="#808080" stop-opacity="0.1"/>
</linearGradient>
</defs>
</svg>
