<svg width="217" height="153" viewBox="0 0 217 153" fill="none" xmlns="http://www.w3.org/2000/svg">
<g clip-path="url(#clip0)">
<path opacity="0.1" d="M188.047 153C194.935 153 200.518 151.516 200.518 149.686C200.518 147.856 194.935 146.372 188.047 146.372C181.159 146.372 175.575 147.856 175.575 149.686C175.575 151.516 181.159 153 188.047 153Z" fill="#2196F3"/>
<path d="M208.615 135.539C203.87 139.479 197.118 141.11 190.588 142.14L189.489 142.307C182.668 143.325 175.772 143.868 168.852 144.197C165.15 144.377 161.447 144.504 157.745 144.617L154.843 144.703C151.076 144.814 147.301 144.924 143.52 145.032C139.817 145.138 136.115 145.236 132.412 145.329C127.67 145.444 122.929 145.541 118.187 145.617C114.484 145.676 110.782 145.716 107.079 145.738C102.336 145.766 97.5946 145.756 92.8541 145.711C89.1491 145.673 85.4466 145.608 81.7467 145.516C77.0023 145.394 72.2606 145.215 67.5214 144.98C64.3048 144.822 61.0902 144.633 57.8774 144.412L56.414 144.309C42.6233 143.314 28.585 141.529 16.5169 135.888L16.1915 135.734C16.0298 135.658 15.868 135.582 15.7063 135.502C13.4905 134.442 11.368 133.196 9.36141 131.778C5.79339 129.231 2.847 126.122 1.29002 122.434C-1.14972 116.648 0.140301 110.145 2.9269 104.489C5.7135 98.8324 9.89729 93.7259 13.516 88.3991C14.576 86.8387 15.5816 85.2198 16.5169 83.5599C22.3629 73.15 25.2626 61.1037 19.134 51.0722C18.3251 49.7932 17.4516 48.5563 16.5169 47.3662C15.0223 45.4157 13.5023 43.4652 12.4754 41.306C10.0805 36.2814 10.5949 30.6308 11.4679 25.263C12.6371 18.1261 14.7807 10.4391 21.4802 5.98026C28.4311 1.34975 38.2972 1.58381 46.924 3.24955C60.3367 5.82227 72.7166 11.2076 85.2134 16.0644C97.7102 20.9212 110.801 25.3625 124.541 25.8404C127.493 25.9415 130.448 25.8339 133.385 25.5185C137.299 25.1159 141.161 24.3019 144.905 23.0901C150.313 21.3074 155.233 18.6254 158.881 14.898C166.705 6.93016 181.408 6.32745 192.008 11.1394C202.124 15.7309 208.666 25.4483 208.182 35.1541C207.633 45.9579 199.55 54.8406 192.143 63.9514C191.244 65.0554 190.358 66.1633 189.495 67.279C189.013 67.9018 188.54 68.526 188.076 69.1515C187.263 70.2554 186.478 71.3653 185.737 72.4888C181.953 78.2486 179.278 85.1671 181.883 91.3853C183.345 94.867 186.133 97.5236 189.495 99.8427C197.026 105.037 207.422 108.532 212.099 115.804C216.129 122.071 214.636 130.53 208.615 135.539Z" fill="#FBFBFB"/>
<g opacity="0.1">
<path opacity="0.1" d="M108.249 107.151C108.256 107.335 108.27 107.514 108.289 107.69C109.805 107.085 111.294 106.435 112.754 105.739C113.533 105.636 114.257 105.281 114.817 104.729C115.244 104.514 115.669 104.29 116.09 104.066C115.995 103.864 115.887 103.668 115.766 103.48C114.946 102.183 113.699 101.372 112.325 101.417C110.951 101.462 109.763 102.353 109.028 103.697C108.464 104.758 108.195 105.951 108.249 107.151V107.151Z" fill="#3F3D56"/>
<path opacity="0.1" d="M108.024 100.33C108.054 101.526 108.4 102.692 109.028 103.709C109.85 105.002 111.097 105.813 112.471 105.768C112.567 105.768 112.666 105.755 112.754 105.747C113.533 105.643 114.257 105.289 114.817 104.737C115.198 104.375 115.518 103.955 115.766 103.492C116.316 102.43 116.585 101.245 116.546 100.05C116.507 98.8544 116.162 97.6891 115.544 96.6653C114.722 95.3682 113.475 94.5568 112.101 94.6017C110.727 94.6465 109.54 95.5379 108.806 96.8818C108.243 97.941 107.973 99.1316 108.024 100.33V100.33Z" fill="#3F3D56"/>
<path opacity="0.1" d="M112.247 98.9478C114.599 98.8706 116.424 96.3091 116.323 93.2266C116.222 90.1441 114.233 87.7079 111.88 87.7852C109.528 87.8625 107.703 90.424 107.804 93.5065C107.905 96.589 109.894 99.0251 112.247 98.9478Z" fill="#3F3D56"/>
<path opacity="0.1" d="M112.023 92.1282C114.376 92.051 116.201 89.4895 116.1 86.407C115.998 83.3245 114.009 80.8884 111.657 80.9656C109.305 81.0429 107.48 83.6044 107.581 86.6869C107.682 89.7694 109.671 92.2055 112.023 92.1282Z" fill="#3F3D56"/>
<path opacity="0.1" d="M111.8 85.3066C114.152 85.2293 115.977 82.6678 115.876 79.5853C115.775 76.5029 113.786 74.0667 111.434 74.144C109.081 74.2213 107.256 76.7828 107.357 79.8652C107.458 82.9477 109.447 85.3839 111.8 85.3066Z" fill="#3F3D56"/>
<path opacity="0.1" d="M126.038 32.5287C126.596 31.7683 127.1 30.9699 127.546 30.1393L116.295 28.6686L128.4 28.3604C129.478 25.7944 130.022 23.035 129.998 20.2513C129.973 17.4676 129.382 14.7182 128.259 12.1712L112.298 21.1338L126.913 9.62577C125.425 7.25641 123.467 5.21827 121.159 3.63774C118.852 2.05722 116.245 0.967999 113.5 0.437636C110.754 -0.092726 107.929 -0.0529251 105.2 0.554571C102.471 1.16207 99.8955 2.3243 97.6335 3.96921C95.3715 5.61412 93.4712 7.70662 92.0505 10.117C90.6298 12.5273 89.719 15.2041 89.3744 17.9813C89.0299 20.7586 89.2591 23.577 90.0477 26.262C90.8363 28.9469 92.1676 31.4411 93.959 33.5897C93.0905 34.7736 92.3517 36.0475 91.755 37.3893L106.528 44.4658L90.8684 39.7729C89.8865 43.0265 89.7306 46.4738 90.4149 49.8029C91.0991 53.1319 92.6019 56.2377 94.7872 58.8391C92.5201 61.9294 91.1675 65.5958 90.8841 69.4193C90.6007 73.2427 91.3978 77.0688 93.1844 80.4601C94.971 83.8514 97.675 86.6711 100.987 88.5968C104.299 90.5224 108.086 91.4763 111.914 91.3494C115.742 91.2225 119.458 90.0199 122.635 87.8791C125.813 85.7384 128.324 82.7458 129.883 79.2436C131.441 75.7413 131.984 71.8708 131.448 68.0745C130.913 64.2783 129.321 60.7094 126.854 57.7761C129.565 54.0851 130.958 49.5895 130.81 45.011C130.662 40.4324 128.982 36.0364 126.038 32.5287V32.5287Z" fill="#2196F3"/>
<path opacity="0.1" d="M90.0071 46.3499C90.1495 50.9313 91.8339 55.3302 94.7872 58.8332C92.5195 61.9231 91.1663 65.5892 90.8821 69.4126C90.598 73.236 91.3944 77.0623 93.1804 80.454C94.9664 83.8456 97.6698 86.6658 100.982 88.5921C104.293 90.5184 108.08 91.473 111.908 91.3468C115.736 91.2205 119.452 90.0186 122.63 87.8784C125.808 85.7382 128.32 82.746 129.879 79.2441C131.438 75.7421 131.982 71.8717 131.447 68.0753C130.912 64.2789 129.32 60.7098 126.855 57.776C129.475 54.2144 89.9331 44.0581 90.0071 46.3499Z" fill="black"/>
</g>
<g opacity="0.1">
<path opacity="0.1" d="M63.5617 143.082C63.5617 143.21 63.5481 143.339 63.5325 143.472C62.4542 143.043 61.3948 142.583 60.3542 142.093C59.7998 142.02 59.284 141.769 58.8849 141.377C58.5809 141.222 58.2789 141.065 57.9788 140.905C58.0465 140.762 58.1233 140.624 58.2087 140.491C58.7933 139.567 59.678 138.989 60.6562 139.021C61.6345 139.052 62.4802 139.684 62.9946 140.64C63.3974 141.389 63.5932 142.232 63.5617 143.082V143.082Z" fill="#3F3D56"/>
<path opacity="0.1" d="M63.7137 138.227C63.6945 139.077 63.4497 139.907 63.0044 140.632C62.4198 141.552 61.5331 142.132 60.5568 142.101L60.362 142.085C59.8075 142.012 59.2918 141.761 58.8927 141.369C58.6216 141.112 58.3933 140.813 58.2165 140.484C57.8256 139.729 57.6344 138.886 57.661 138.036C57.6876 137.187 57.9312 136.358 58.3685 135.629C58.9531 134.704 59.8397 134.127 60.816 134.158C61.7923 134.189 62.64 134.821 63.1642 135.777C63.5622 136.53 63.7519 137.376 63.7137 138.227Z" fill="#3F3D56"/>
<path opacity="0.1" d="M63.8711 133.381C63.9404 131.188 62.6397 129.367 60.9659 129.314C59.2921 129.261 57.8791 130.996 57.8099 133.189C57.7406 135.382 59.0414 137.203 60.7151 137.256C62.3889 137.309 63.8019 135.574 63.8711 133.381Z" fill="#3F3D56"/>
<path opacity="0.1" d="M64.0225 128.527C64.0917 126.334 62.791 124.513 61.1173 124.46C59.4435 124.407 58.0305 126.142 57.9613 128.335C57.892 130.528 59.1927 132.349 60.8665 132.402C62.5403 132.455 63.9533 130.72 64.0225 128.527Z" fill="#3F3D56"/>
<path opacity="0.1" d="M64.1759 123.671C64.2452 121.478 62.9444 119.657 61.2707 119.604C59.5969 119.551 58.1839 121.286 58.1147 123.479C58.0455 125.672 59.3462 127.493 61.0199 127.546C62.6937 127.599 64.1067 125.864 64.1759 123.671Z" fill="#3F3D56"/>
<path opacity="0.1" d="M50.8427 89.9926C50.4454 89.4515 50.0853 88.8838 49.7651 88.2937L57.7702 87.2287L49.1552 87.0337C48.3852 85.2081 47.9957 83.2445 48.0104 81.263C48.0252 79.2815 48.4439 77.3239 49.2409 75.5101L60.6075 81.8746L50.1977 73.6922C51.2512 71.9983 52.6417 70.5395 54.2827 69.4067C55.9237 68.274 57.7801 67.4914 59.7364 67.1078C61.6926 66.7242 63.7068 66.7477 65.6535 67.1769C67.6003 67.6061 69.438 68.4318 71.0521 69.6026C72.6663 70.7734 74.0225 72.2642 75.0362 73.9822C76.0499 75.7003 76.6994 77.6088 76.9444 79.589C77.1893 81.5692 77.0245 83.5786 76.4601 85.4923C75.8956 87.4059 74.9437 89.1828 73.6636 90.7123C74.2835 91.5541 74.8108 92.4605 75.2362 93.4157L64.7289 98.4637L75.8695 95.1088C76.5707 97.4239 76.6845 99.8774 76.2007 102.248C75.7169 104.618 74.6507 106.83 73.0985 108.684C74.7152 110.881 75.6817 113.489 75.8875 116.21C76.0933 118.93 75.5301 121.654 74.2623 124.069C72.9945 126.485 71.0732 128.494 68.7182 129.868C66.3632 131.242 63.6694 131.925 60.9449 131.839C58.2203 131.753 55.575 130.901 53.3113 129.381C51.0476 127.861 49.257 125.734 48.144 123.244C47.031 120.753 46.6407 117.999 47.0177 115.297C47.3946 112.594 48.5236 110.053 50.2756 107.963C48.3438 105.338 47.3494 102.139 47.4522 98.8804C47.5551 95.6217 48.7492 92.4922 50.8427 89.9945V89.9926Z" fill="#2196F3"/>
<path opacity="0.1" d="M76.4872 99.7958C76.3895 103.056 75.1955 106.188 73.0985 108.684C74.7152 110.881 75.6816 113.489 75.8874 116.21C76.0932 118.93 75.5301 121.654 74.2622 124.069C72.9944 126.485 71.0732 128.494 68.7182 129.868C66.3632 131.242 63.6694 131.925 60.9449 131.839C58.2203 131.753 55.575 130.901 53.3113 129.381C51.0476 127.861 49.257 125.734 48.144 123.243C47.031 120.753 46.6407 117.999 47.0177 115.297C47.3946 112.594 48.5236 110.053 50.2756 107.963C48.4069 105.427 76.5418 98.1633 76.4872 99.7958Z" fill="black"/>
</g>
<g opacity="0.1">
<path opacity="0.1" d="M165.043 117.715C165.043 117.846 165.029 117.973 165.015 118.105C163.936 117.676 162.876 117.217 161.837 116.726C161.282 116.653 160.766 116.402 160.366 116.01C160.064 115.856 159.76 115.698 159.46 115.538C159.528 115.396 159.605 115.258 159.69 115.125C160.274 114.2 161.159 113.623 162.137 113.654C163.115 113.685 163.961 114.317 164.476 115.273C164.878 116.022 165.074 116.865 165.043 117.715V117.715Z" fill="#3F3D56"/>
<path opacity="0.1" d="M165.206 112.86C165.187 113.711 164.941 114.541 164.495 115.265C163.91 116.186 163.026 116.765 162.048 116.734L161.853 116.718C161.298 116.646 160.781 116.394 160.381 116.003C160.111 115.745 159.883 115.446 159.705 115.117C159.314 114.362 159.123 113.52 159.15 112.67C159.176 111.82 159.42 110.991 159.857 110.262C160.442 109.34 161.328 108.76 162.305 108.792C163.281 108.823 164.131 109.455 164.653 110.411C165.052 111.163 165.243 112.009 165.206 112.86V112.86Z" fill="#3F3D56"/>
<path opacity="0.1" d="M165.359 108.013C165.428 105.82 164.127 103.999 162.453 103.946C160.78 103.893 159.367 105.628 159.297 107.821C159.228 110.015 160.529 111.835 162.203 111.888C163.876 111.941 165.289 110.206 165.359 108.013Z" fill="#3F3D56"/>
<path opacity="0.1" d="M165.512 103.159C165.581 100.966 164.281 99.1448 162.607 99.0919C160.933 99.0389 159.52 100.774 159.451 102.967C159.382 105.16 160.682 106.981 162.356 107.034C164.03 107.087 165.443 105.352 165.512 103.159Z" fill="#3F3D56"/>
<path opacity="0.1" d="M165.665 98.3052C165.735 96.1119 164.434 94.291 162.76 94.2381C161.086 94.1852 159.673 95.9202 159.604 98.1135C159.535 100.307 160.836 102.128 162.509 102.181C164.183 102.233 165.596 100.498 165.665 98.3052Z" fill="#3F3D56"/>
<path opacity="0.1" d="M152.324 64.6262C151.926 64.0858 151.566 63.5181 151.248 62.9274L159.253 61.8721L150.638 61.6634C149.869 59.8378 149.479 57.8743 149.493 55.893C149.508 53.9116 149.926 51.954 150.722 50.1398L162.089 56.5043L151.679 48.3258C152.73 46.6277 154.12 45.1648 155.762 44.0282C157.403 42.8917 159.261 42.1059 161.22 41.72C163.178 41.334 165.195 41.3561 167.144 41.785C169.094 42.2138 170.934 43.0401 172.55 44.2124C174.167 45.3847 175.524 46.8778 176.538 48.5986C177.553 50.3193 178.202 52.2308 178.445 54.2138C178.688 56.1967 178.521 58.2086 177.953 60.124C177.385 62.0393 176.429 63.8169 175.145 65.346C175.764 66.1878 176.29 67.0942 176.715 68.0494L166.208 73.0973L177.348 69.7424C178.051 72.0571 178.165 74.5106 177.681 76.8807C177.197 79.2508 176.131 81.4626 174.578 83.316C176.194 85.5124 177.161 88.12 177.367 90.8404C177.573 93.5609 177.01 96.2845 175.743 98.6998C174.475 101.115 172.554 103.125 170.199 104.499C167.845 105.873 165.151 106.556 162.427 106.469C159.702 106.383 157.057 105.531 154.794 104.011C152.53 102.491 150.74 100.364 149.627 97.8738C148.515 95.3832 148.125 92.6295 148.502 89.9274C148.879 87.2254 150.008 84.6842 151.761 82.5943C149.829 79.9694 148.834 76.7707 148.937 73.5121C149.04 70.2534 150.234 67.1239 152.328 64.6262H152.324Z" fill="#2196F3"/>
<path opacity="0.1" d="M177.97 74.4295C177.872 77.6895 176.678 80.8209 174.579 83.316C176.196 85.5125 177.162 88.1199 177.368 90.8403C177.574 93.5607 177.011 96.2841 175.743 98.6992C174.476 101.114 172.555 103.124 170.2 104.498C167.845 105.871 165.152 106.554 162.428 106.468C159.703 106.382 157.058 105.53 154.795 104.01C152.532 102.49 150.741 100.364 149.628 97.8733C148.516 95.3829 148.126 92.6293 148.503 89.9274C148.88 87.2255 150.009 84.6843 151.76 82.5943C149.89 80.0606 178.021 72.795 177.97 74.4295Z" fill="black"/>
</g>
<path d="M37.7068 148.6C43.8423 148.6 48.8161 147.643 48.8161 146.462C48.8161 145.281 43.8423 144.324 37.7068 144.324C31.5712 144.324 26.5974 145.281 26.5974 146.462C26.5974 147.643 31.5712 148.6 37.7068 148.6Z" fill="#2196F3"/>
<path d="M37.5216 147.248C38.2362 147.248 38.8156 146.489 38.8156 145.553C38.8156 144.617 38.2362 143.858 37.5216 143.858C36.807 143.858 36.2277 144.617 36.2277 145.553C36.2277 146.489 36.807 147.248 37.5216 147.248Z" fill="#3F3D56"/>
<path d="M37.5216 145.177C38.2362 145.177 38.8156 144.418 38.8156 143.482C38.8156 142.545 38.2362 141.787 37.5216 141.787C36.807 141.787 36.2277 142.545 36.2277 143.482C36.2277 144.418 36.807 145.177 37.5216 145.177Z" fill="#3F3D56"/>
<path d="M37.5216 143.105C38.2362 143.105 38.8156 142.346 38.8156 141.41C38.8156 140.474 38.2362 139.715 37.5216 139.715C36.807 139.715 36.2277 140.474 36.2277 141.41C36.2277 142.346 36.807 143.105 37.5216 143.105Z" fill="#3F3D56"/>
<path d="M37.5216 141.034C38.2362 141.034 38.8156 140.275 38.8156 139.339C38.8156 138.403 38.2362 137.644 37.5216 137.644C36.807 137.644 36.2277 138.403 36.2277 139.339C36.2277 140.275 36.807 141.034 37.5216 141.034Z" fill="#3F3D56"/>
<path d="M37.5216 138.962C38.2362 138.962 38.8156 138.203 38.8156 137.267C38.8156 136.331 38.2362 135.572 37.5216 135.572C36.807 135.572 36.2277 136.331 36.2277 137.267C36.2277 138.203 36.807 138.962 37.5216 138.962Z" fill="#3F3D56"/>
<path d="M37.5216 136.891C38.2362 136.891 38.8156 136.132 38.8156 135.196C38.8156 134.26 38.2362 133.501 37.5216 133.501C36.807 133.501 36.2277 134.26 36.2277 135.196C36.2277 136.132 36.807 136.891 37.5216 136.891Z" fill="#3F3D56"/>
<path d="M37.5216 134.819C38.2362 134.819 38.8156 134.06 38.8156 133.124C38.8156 132.188 38.2362 131.429 37.5216 131.429C36.807 131.429 36.2277 132.188 36.2277 133.124C36.2277 134.06 36.807 134.819 37.5216 134.819Z" fill="#3F3D56"/>
<path d="M42.3641 118.948C42.5405 118.723 42.7013 118.485 42.8454 118.238L39.447 117.678L43.1221 117.707C43.4746 116.939 43.6669 116.107 43.6874 115.262C43.7078 114.417 43.5559 113.577 43.241 112.792L38.3089 115.353L42.8571 112C42.4307 111.264 41.8573 110.623 41.1728 110.118C40.4883 109.613 39.7072 109.254 38.8782 109.064C38.0492 108.874 37.19 108.857 36.3541 109.014C35.5182 109.171 34.7235 109.498 34.0195 109.976C33.3154 110.453 32.7172 111.071 32.2618 111.79C31.8065 112.509 31.5039 113.314 31.3729 114.155C31.2419 114.996 31.2852 115.855 31.5003 116.679C31.7153 117.502 32.0973 118.273 32.6227 118.942C32.3479 119.293 32.1114 119.672 31.9173 120.073L36.3291 122.367L31.625 120.787C31.2945 121.765 31.2127 122.809 31.3869 123.826C31.5611 124.843 31.9859 125.8 32.6227 126.612C31.9041 127.527 31.4572 128.625 31.333 129.783C31.2089 130.94 31.4125 132.109 31.9207 133.156C32.4289 134.202 33.221 135.085 34.2067 135.703C35.1923 136.32 36.3316 136.648 37.4944 136.648C38.6572 136.648 39.7965 136.32 40.7821 135.703C41.7677 135.085 42.5599 134.202 43.0681 133.156C43.5762 132.109 43.7799 130.94 43.6557 129.783C43.5316 128.625 43.0847 127.527 42.3661 126.612C43.2245 125.518 43.6912 124.168 43.6912 122.777C43.6912 121.386 43.2245 120.036 42.3661 118.942L42.3641 118.948Z" fill="#70B696"/>
<path opacity="0.1" d="M31.2976 122.783C31.2953 124.174 31.7622 125.525 32.6226 126.617C31.904 127.532 31.4571 128.631 31.333 129.789C31.2088 130.946 31.4125 132.115 31.9206 133.162C32.4288 134.208 33.221 135.091 34.2066 135.708C35.1922 136.326 36.3315 136.653 37.4943 136.653C38.6571 136.653 39.7964 136.326 40.782 135.708C41.7677 135.091 42.5598 134.208 43.068 133.162C43.5762 132.115 43.7798 130.946 43.6557 129.789C43.5315 128.631 43.0846 127.532 42.366 126.617C43.1942 125.562 31.2976 122.086 31.2976 122.783Z" fill="black"/>
<path d="M64 100.728V145C62.8416 144.842 61.684 144.652 60.527 144.43L60 144.326V100.728C60 100.501 60.016 100.276 60.0471 100.067C60.0782 99.857 60.1238 99.6665 60.1813 99.5061C60.2388 99.3456 60.307 99.2184 60.3821 99.1315C60.4572 99.0447 60.5377 99 60.6189 99H63.3811C63.4623 99 63.5428 99.0447 63.6179 99.1315C63.693 99.2184 63.7612 99.3456 63.8187 99.5061C63.8762 99.6665 63.9218 99.857 63.9529 100.067C63.984 100.276 64 100.501 64 100.728Z" fill="#3F3D56"/>
<path d="M85 145.807V71.7204C85 71.2642 85.0652 70.8266 85.1813 70.5039C85.2974 70.1813 85.4548 70 85.6189 70H88.3811C88.4623 70 88.5428 70.0445 88.6179 70.131C88.693 70.2174 88.7612 70.3441 88.8187 70.5039C88.8762 70.6637 88.9218 70.8533 88.9529 71.0621C88.984 71.2708 89 71.4945 89 71.7204V146L85 145.807Z" fill="#3F3D56"/>
<path d="M111 146V86.731C111 86.2719 111.065 85.8316 111.181 85.507C111.297 85.1824 111.455 85 111.619 85H114.381C114.545 85 114.703 85.1824 114.819 85.507C114.935 85.8316 115 86.2719 115 86.731V145.872L111 146Z" fill="#3F3D56"/>
<path d="M141 42.722V144.703C139.667 144.809 138.333 144.908 137 145V42.722C137 42.2653 137.065 41.8273 137.181 41.5044C137.297 41.1814 137.455 41 137.619 41H140.381C140.545 41 140.703 41.1814 140.819 41.5044C140.935 41.8273 141 42.2653 141 42.722V42.722Z" fill="#3F3D56"/>
<path d="M166 63.7267V144.579C164.667 144.759 163.333 144.886 162 145V63.7267C162 63.2687 162.065 62.8295 162.181 62.5057C162.297 62.1819 162.455 62 162.619 62H165.381C165.545 62 165.703 62.1819 165.819 62.5057C165.935 62.8295 166 63.2687 166 63.7267V63.7267Z" fill="#3F3D56"/>
<path d="M62.0651 75.1746L87.3978 46.8922L112.731 61.131L138.063 17.4395L163.396 38.31" stroke="#3F3D56" stroke-width="3" stroke-miterlimit="10" stroke-linecap="round"/>
<path d="M61.9677 80.6361C64.9811 80.6361 67.424 78.1909 67.424 75.1746C67.424 72.1584 64.9811 69.7132 61.9677 69.7132C58.9543 69.7132 56.5114 72.1584 56.5114 75.1746C56.5114 78.1909 58.9543 80.6361 61.9677 80.6361Z" fill="#2196F3"/>
<path d="M87.3004 52.3536C90.3138 52.3536 92.7567 49.9085 92.7567 46.8922C92.7567 43.876 90.3138 41.4308 87.3004 41.4308C84.287 41.4308 81.8441 43.876 81.8441 46.8922C81.8441 49.9085 84.287 52.3536 87.3004 52.3536Z" fill="#2196F3"/>
<path d="M112.633 66.5924C115.647 66.5924 118.089 64.1472 118.089 61.1309C118.089 58.1147 115.647 55.6695 112.633 55.6695C109.62 55.6695 107.177 58.1147 107.177 61.1309C107.177 64.1472 109.62 66.5924 112.633 66.5924Z" fill="#2196F3"/>
<path d="M137.966 22.9009C140.979 22.9009 143.422 20.4557 143.422 17.4395C143.422 14.4232 140.979 11.978 137.966 11.978C134.952 11.978 132.51 14.4232 132.51 17.4395C132.51 20.4557 134.952 22.9009 137.966 22.9009Z" fill="#2196F3"/>
<path d="M184.683 69.3231C187.696 69.3231 190.139 66.8779 190.139 63.8616C190.139 60.8454 187.696 58.4002 184.683 58.4002C181.669 58.4002 179.226 60.8454 179.226 63.8616C179.226 66.8779 181.669 69.3231 184.683 69.3231Z" fill="#2196F3"/>
<path opacity="0.1" d="M45.5365 141.562C47.5469 141.562 49.1767 141.286 49.1767 140.946C49.1767 140.605 47.5469 140.33 45.5365 140.33C43.5262 140.33 41.8964 140.605 41.8964 140.946C41.8964 141.286 43.5262 141.562 45.5365 141.562Z" fill="#2196F3"/>
<path d="M43.0929 138.084C43.0929 138.084 45.1682 138.02 45.7938 137.573C46.4193 137.127 48.9876 136.598 49.1435 137.31C49.2994 138.022 52.2614 140.868 49.923 140.887C47.5846 140.907 44.4765 140.521 43.8529 140.14C43.2293 139.76 43.0929 138.084 43.0929 138.084Z" fill="#A8A8A8"/>
<path opacity="0.2" d="M49.96 140.638C47.6216 140.657 44.5154 140.273 43.8899 139.893C43.4144 139.602 43.2254 138.562 43.1611 138.083H43.0929C43.0929 138.083 43.2235 139.758 43.849 140.138C44.4745 140.519 47.5748 140.905 49.9191 140.885C50.5953 140.885 50.8291 140.64 50.8155 140.283C50.7219 140.499 50.4647 140.634 49.96 140.638Z" fill="black"/>
<path opacity="0.1" d="M207.3 147.305C210.992 147.305 213.985 146.798 213.985 146.173C213.985 145.548 210.992 145.042 207.3 145.042C203.607 145.042 200.614 145.548 200.614 146.173C200.614 146.798 203.607 147.305 207.3 147.305Z" fill="#2196F3"/>
<path d="M202.816 140.917C202.816 140.917 206.629 140.8 207.779 139.98C208.929 139.161 213.645 138.184 213.929 139.497C214.214 140.809 219.662 146.031 215.355 146.066C211.049 146.101 205.351 145.395 204.203 144.701C203.055 144.006 202.816 140.917 202.816 140.917Z" fill="#A8A8A8"/>
<path opacity="0.2" d="M215.427 145.609C211.121 145.645 205.423 144.939 204.275 144.244C203.402 143.712 203.053 141.8 202.936 140.928H202.81C202.81 140.928 203.051 144.008 204.197 144.706C205.343 145.405 211.045 146.113 215.35 146.072C216.593 146.072 217.021 145.619 216.998 144.964C216.825 145.354 216.351 145.602 215.427 145.609Z" fill="black"/>
<path d="M163.559 67.2106C163.595 67.5522 163.731 67.8757 163.949 68.141C164.231 68.4609 164.654 68.6072 165.034 68.7983C166.018 69.3022 166.769 70.1665 167.131 71.2111C167.78 73.107 167.864 75.1121 168.69 76.9417C169.516 78.7713 170.487 80.5287 171.2 82.4032C171.605 83.4662 171.929 84.5721 172.523 85.5396C172.811 86.0154 173.178 86.4383 173.608 86.7899C173.564 87.4764 173.546 88.1552 173.55 88.8418C173.682 88.8392 173.812 88.87 173.928 88.9314C174.045 88.9928 174.144 89.0828 174.216 89.1929C174.361 89.4153 174.46 89.6637 174.509 89.9243C174.776 91.0303 174.446 92.2084 174.686 93.3202C175.344 96.4127 175.142 99.6269 174.101 102.612C173.834 103.369 173.499 105.874 173.784 106.625C174.844 106.517 175.783 107.169 176.775 107.6C176.855 108.188 176.807 108.787 176.635 109.355C176.278 110.383 176.28 111.501 176.286 112.587L176.335 120.635C176.335 121.655 176.348 122.689 176.603 123.678C176.894 124.792 177.504 125.927 177.484 127.078C177.432 129.555 178.601 131.915 178.507 134.373C178.49 134.845 178.425 135.313 178.381 135.781C178.266 137.028 178.297 138.284 178.474 139.524C178.829 141.993 179.766 144.422 179.532 146.905C179.517 147.072 179.46 147.295 179.302 147.359C179.497 147.579 179.704 147.798 179.914 148.007C179.872 148.078 179.814 148.138 179.745 148.184C179.514 148.304 179.26 148.371 179 148.379C178.696 148.387 178.4 148.483 178.149 148.656C177.966 148.831 177.842 149.059 177.794 149.308C177.725 149.553 177.71 149.811 177.75 150.063C177.791 150.315 177.885 150.555 178.028 150.767C178.202 150.986 178.429 151.156 178.689 151.262C179.589 151.652 180.622 151.369 181.561 151.085L185.24 149.969C185.464 149.922 185.671 149.814 185.838 149.657C185.914 149.567 185.965 149.457 185.984 149.341C186.797 149.536 187.689 149.296 188.518 149.048L192.197 147.931C192.421 147.885 192.629 147.777 192.795 147.618C192.861 147.538 192.909 147.444 192.935 147.343C192.961 147.241 192.964 147.136 192.945 147.033C192.972 147.022 193 147.014 193.027 147C193.307 146.873 193.611 146.626 193.543 146.327C193.495 146.132 193.3 146.019 193.216 145.84C193.176 145.723 193.168 145.598 193.192 145.477C193.216 145.356 193.271 145.244 193.352 145.151C193.496 144.956 193.691 144.794 193.824 144.589C194.249 143.938 193.96 143.082 193.8 142.319C193.456 140.69 193.775 138.989 193.557 137.339C193.483 136.783 193.348 136.237 193.241 135.685C193.014 134.381 192.864 133.064 192.791 131.741C192.651 129.853 192.127 127.992 192.427 126.12C192.572 125.021 192.634 123.912 192.612 122.804C192.633 122.098 192.602 121.391 192.52 120.69C192.444 120.167 192.31 119.654 192.251 119.129C192.204 118.54 192.193 117.947 192.22 117.356C192.247 116.039 192.125 114.722 191.858 113.432C191.468 111.659 190.735 109.962 190.423 108.185C190.529 108.208 190.634 108.232 190.735 108.259C190.747 106.894 189.552 103.925 189.11 102.63C189.045 102.471 189.006 102.303 188.993 102.133C189.02 101.907 189.061 101.684 189.116 101.464C189.172 100.992 188.921 100.543 188.853 100.071C188.826 99.7389 188.851 99.4047 188.925 99.08C189.239 97.3343 189.628 95.6023 190.018 93.8722C190.188 93.2455 190.247 92.5939 190.192 91.947C190.146 91.6042 190.175 91.2556 190.276 90.9248C190.377 90.594 190.547 90.2888 190.776 90.0296C190.947 89.8715 191.093 89.688 191.209 89.4855C191.274 89.3117 191.303 89.1266 191.294 88.9413C191.287 88.1389 191.169 87.3415 190.944 86.5714C191.287 85.9492 191.413 85.1846 191.513 84.4629C191.731 82.8693 191.949 81.268 191.941 79.6588C191.959 78.8003 191.84 77.9445 191.591 77.1231C191.408 76.6158 191.185 76.124 190.924 75.6524C189.899 73.6766 188.919 71.5973 187.625 69.7872C187.235 69.2372 187.481 68.4785 187.508 67.7997C187.537 66.9805 187.214 66.1944 186.896 65.4415C186.734 64.9781 186.486 64.5499 186.164 64.1795C186.055 64.0596 185.923 63.9631 185.775 63.896C185.628 63.8289 185.468 63.7927 185.306 63.7894C185.123 63.8119 184.946 63.8735 184.789 63.97C184.631 64.0666 184.496 64.1959 184.392 64.3492C184.157 64.6705 183.987 65.0354 183.893 65.4228C183.799 65.8101 183.783 66.2122 183.845 66.606C183.974 67.3941 184.317 68.1315 184.837 68.7379C185.087 69.043 185.375 69.3162 185.692 69.5512C186.014 70.5759 186.339 71.5999 186.666 72.6233C187.181 74.252 187.695 75.8885 188.42 77.4294C188.633 77.876 188.866 78.3305 188.892 78.824C188.919 79.3565 188.697 79.8636 188.52 80.3649C188.146 81.4097 187.934 82.5055 187.892 83.6144C187.835 83.6397 187.78 83.6697 187.728 83.7041C187.115 84.1059 186.922 84.9817 186.282 85.3406C185.91 85.5493 185.458 85.5357 185.041 85.6313C185.004 85.6313 184.967 85.6508 184.928 85.6625C184.913 85.5844 184.897 85.5084 184.887 85.4284C184.881 85.3785 184.881 85.3281 184.887 85.2782C185.881 84.7314 186.716 83.9356 187.309 82.9688C187.435 82.7898 187.531 82.5924 187.596 82.3837C187.648 82.1336 187.658 81.8764 187.625 81.623C187.593 80.7772 187.472 79.9372 187.265 79.1165C187.057 78.292 186.602 77.5508 185.961 76.9924C185.641 76.735 185.273 76.5419 184.955 76.2825C184.336 75.7812 183.911 75.04 183.202 74.6674C182.75 74.4474 182.235 74.3956 181.749 74.5215C181.263 74.6473 180.838 74.9425 180.55 75.354C180.455 75.5443 180.322 75.713 180.16 75.8494C180.036 75.9082 179.915 75.9733 179.797 76.0445C179.583 76.2161 179.571 76.5458 179.641 76.813C179.774 77.3621 179.849 77.9237 179.864 78.4885C179.235 79.2272 178.888 80.1655 178.886 81.1361C178.884 82.1067 179.226 83.0465 179.852 83.788C179.852 84.1508 179.852 84.5136 179.838 84.8764C179.838 84.9447 179.838 85.0149 179.825 85.0832C179.6 85.0048 179.399 84.8705 179.24 84.6931C179.022 84.42 178.983 84.0182 178.716 83.7939C178.524 83.6672 178.305 83.587 178.077 83.5598C177.509 83.4308 176.977 83.1784 176.518 82.8206C176.157 82.5416 175.783 82.1847 175.362 82.1028C174.636 80.7391 173.788 79.4439 172.829 78.233C172.586 77.9463 172.364 77.6418 172.166 77.3221C171.747 76.5906 171.623 75.7305 171.358 74.9288C170.617 72.6818 168.77 70.8795 168.32 68.5545C168.156 67.7119 167.622 66.9785 167.256 66.2022C167.008 65.6775 166.735 65.1236 166.24 64.8232C165.603 64.4331 164.722 64.6125 164.192 65.1372C163.936 65.4116 163.745 65.7411 163.636 66.1004C163.526 66.4598 163.5 66.8396 163.559 67.2106ZM186.696 146.146C186.465 146.266 186.211 146.333 185.951 146.341C185.82 146.355 185.69 146.375 185.561 146.403C185.513 145.994 185.485 145.578 185.454 145.174C185.351 143.85 185.144 142.535 184.94 141.223C184.726 139.857 184.624 138.363 184.16 137.053C183.414 134.919 182.658 132.72 182.753 130.46C182.775 129.947 182.839 129.438 182.866 128.927C182.929 127.661 182.752 126.368 183.061 125.137C183.2 124.577 183.435 124.043 183.525 123.473C183.582 122.959 183.589 122.44 183.545 121.924C183.459 120.134 183.608 118.341 183.987 116.59C184.349 117.064 184.468 117.676 184.572 118.263L185.302 122.231C185.737 124.585 186.121 127.082 187.272 129.176C187.111 129.931 186.951 130.737 187.218 131.459C187.333 131.771 187.522 132.044 187.639 132.36C187.834 132.884 187.806 133.462 187.865 134.018C187.991 135.188 188.475 136.339 188.12 137.468C187.755 138.633 187.518 139.833 187.413 141.049C187.393 141.387 187.354 141.724 187.296 142.058C187.233 142.358 187.132 142.643 187.076 142.951C186.998 143.383 187.017 143.828 187.132 144.252C187.22 144.487 187.273 144.733 187.292 144.983C187.292 145.233 186.986 145.412 186.74 145.451C186.813 145.545 186.89 145.635 186.97 145.723C186.923 145.888 186.828 146.036 186.696 146.146V146.146Z" fill="url(#paint0_linear)"/>
<path d="M179 148.397C178.696 148.405 178.4 148.501 178.149 148.674C177.966 148.847 177.841 149.073 177.794 149.321C177.725 149.565 177.71 149.821 177.75 150.071C177.791 150.321 177.886 150.559 178.028 150.769C178.202 150.987 178.43 151.157 178.689 151.262C179.589 151.652 180.622 151.367 181.561 151.085L185.24 149.977C185.464 149.931 185.671 149.823 185.838 149.666C185.939 149.53 185.995 149.365 185.998 149.195C186.001 149.025 185.951 148.858 185.854 148.719C185.656 148.443 185.386 148.228 185.074 148.096C183.93 147.539 182.64 147.412 181.384 147.388C180.916 147.388 180.454 147.275 180.136 147.636C179.969 147.831 180 148.04 179.747 148.206C179.515 148.324 179.26 148.389 179 148.397V148.397Z" fill="#3F3D56"/>
<path d="M185.951 146.372C185.647 146.381 185.351 146.477 185.1 146.649C184.917 146.823 184.793 147.049 184.745 147.297C184.676 147.541 184.661 147.797 184.702 148.047C184.742 148.298 184.837 148.536 184.979 148.746C185.154 148.963 185.381 149.133 185.639 149.237C186.542 149.628 187.573 149.345 188.512 149.062L192.191 147.952C192.415 147.906 192.622 147.799 192.789 147.642C192.89 147.506 192.946 147.341 192.949 147.171C192.952 147.002 192.901 146.835 192.805 146.696C192.607 146.421 192.337 146.206 192.025 146.074C190.879 145.516 189.589 145.387 188.332 145.364C187.865 145.364 187.405 145.253 187.085 145.613C186.918 145.808 186.949 146.015 186.696 146.181C186.465 146.301 186.211 146.366 185.951 146.372V146.372Z" fill="#3F3D56"/>
<path d="M182.753 106.406C184.921 106.188 187.103 106.127 189.279 106.223C189.423 106.221 189.566 106.244 189.702 106.289C190.182 106.484 190.256 107.112 190.301 107.625C190.495 109.709 191.404 111.649 191.86 113.689C192.127 114.972 192.249 116.281 192.222 117.591C192.196 118.176 192.206 118.762 192.253 119.346C192.312 119.867 192.448 120.378 192.522 120.897C192.604 121.594 192.635 122.296 192.614 122.997C192.636 124.097 192.574 125.197 192.429 126.288C192.128 128.147 192.653 129.994 192.793 131.874C192.863 133.189 193.011 134.499 193.235 135.797C193.342 136.345 193.477 136.887 193.551 137.439C193.769 139.079 193.45 140.768 193.795 142.387C193.954 143.144 194.243 143.995 193.818 144.642C193.685 144.837 193.491 145.003 193.346 145.2C193.265 145.292 193.21 145.404 193.186 145.524C193.162 145.644 193.17 145.769 193.21 145.885C193.294 146.062 193.489 146.179 193.537 146.368C193.613 146.667 193.302 146.911 193.021 147.037C190.907 147.993 188.18 147.32 186.754 145.489C187 145.45 187.3 145.272 187.305 145.023C187.287 144.774 187.233 144.53 187.146 144.297C187.031 143.876 187.012 143.435 187.089 143.006C187.146 142.705 187.247 142.421 187.309 142.118C187.368 141.787 187.407 141.452 187.426 141.116C187.532 139.907 187.769 138.714 188.134 137.558C188.488 136.436 188.005 135.301 187.878 134.131C187.82 133.577 187.845 133.005 187.652 132.483C187.535 132.174 187.346 131.898 187.231 131.589C186.964 130.87 187.124 130.07 187.286 129.321C186.134 127.24 185.75 124.759 185.316 122.42L184.585 118.48C184.476 117.895 184.357 117.288 184.001 116.816C183.622 118.556 183.473 120.337 183.558 122.116C183.602 122.628 183.596 123.144 183.539 123.655C183.449 124.22 183.213 124.753 183.075 125.307C182.773 126.53 182.95 127.813 182.88 129.071C182.853 129.58 182.788 130.085 182.767 130.595C182.672 132.842 183.428 135.026 184.174 137.146C184.632 138.447 184.733 139.926 184.953 141.287C185.148 142.592 185.365 143.897 185.468 145.214C185.563 146.423 185.606 147.732 186.358 148.682C185.671 149.128 184.961 149.583 184.156 149.737C183.219 149.884 182.259 149.697 181.444 149.21C180.633 148.725 179.909 148.109 179.3 147.387C179.458 147.332 179.515 147.102 179.53 146.936C179.764 144.467 178.827 142.06 178.472 139.602C178.295 138.371 178.263 137.123 178.379 135.884C178.423 135.418 178.488 134.952 178.505 134.484C178.599 132.044 177.424 129.693 177.467 127.251C177.486 126.106 176.882 124.979 176.586 123.873C176.331 122.898 176.323 121.864 176.317 120.85L176.268 112.853C176.268 111.772 176.268 110.664 176.617 109.644C177.046 108.415 176.555 107.005 176.481 105.706C178.506 106.348 180.637 106.586 182.753 106.406V106.406Z" fill="#696791"/>
<path d="M175.806 83.4293C174.987 81.7532 173.987 80.1723 172.823 78.7149C172.58 78.4302 172.358 78.1277 172.16 77.8098C171.741 77.0823 171.617 76.228 171.352 75.4322C170.611 73.2008 168.764 71.4083 168.314 69.1008C168.15 68.2621 167.616 67.5404 167.25 66.7602C167.002 66.2394 166.729 65.6894 166.235 65.3948C165.597 65.0047 164.717 65.1842 164.186 65.7069C163.931 65.9789 163.742 66.3059 163.633 66.6627C163.525 67.0195 163.499 67.3965 163.559 67.7647C163.595 68.1045 163.731 68.426 163.949 68.6892C164.231 69.0072 164.654 69.1515 165.034 69.3427C166.016 69.8408 166.767 70.6998 167.131 71.7398C167.78 73.6221 167.864 75.6155 168.69 77.4334C169.516 79.2513 170.487 80.995 171.2 82.8539C171.605 83.9091 171.929 84.9994 172.523 85.9747C173.117 86.9499 174.045 87.7672 175.165 87.9135C175.158 87.2065 175.265 86.5029 175.483 85.8303C175.726 85.0618 176.159 84.1568 175.806 83.4293Z" fill="#A0616A"/>
<path d="M187.871 84.8881C187.82 83.509 188.035 82.133 188.504 80.835C188.683 80.3376 188.894 79.8324 188.876 79.3038C188.851 78.8123 188.617 78.3617 188.404 77.917C187.672 76.3859 187.157 74.763 186.651 73.1441L185.676 70.0916C185.359 69.8584 185.071 69.5865 184.821 69.2821C184.301 68.681 183.958 67.948 183.829 67.1639C183.767 66.7729 183.783 66.3735 183.877 65.989C183.971 65.6045 184.141 65.2427 184.377 64.9247C184.48 64.7719 184.616 64.6431 184.773 64.5469C184.931 64.4507 185.107 64.3893 185.291 64.3668C185.452 64.3704 185.612 64.4068 185.759 64.4739C185.907 64.5409 186.039 64.6372 186.148 64.7569C186.469 65.124 186.718 65.549 186.881 66.0091C187.198 66.7581 187.522 67.5383 187.493 68.3498C187.465 69.0246 187.214 69.7775 187.609 70.3256C188.903 72.124 189.884 74.1896 190.909 76.1538C191.17 76.6218 191.393 77.1104 191.575 77.6147C191.825 78.432 191.944 79.284 191.926 80.1386C191.926 81.7361 191.715 83.3277 191.497 84.9115C191.359 85.9044 191.177 86.9849 190.427 87.6423C189.648 86.6436 188.864 85.6683 187.871 84.8881Z" fill="#A0616A"/>
<path d="M182.913 85.6489C185.146 85.6489 186.957 83.8369 186.957 81.6016C186.957 79.3663 185.146 77.5543 182.913 77.5543C180.68 77.5543 178.87 79.3663 178.87 81.6016C178.87 83.8369 180.68 85.6489 182.913 85.6489Z" fill="#A0616A"/>
<path d="M186.872 85.8634C186.969 86.5948 187.361 87.2502 187.743 87.8822C187.973 88.2723 188.267 88.6877 188.717 88.7306C187.545 89.3461 186.315 89.8414 185.044 90.2091C184.612 90.3544 184.159 90.4276 183.703 90.4256C183.317 90.3968 182.939 90.2997 182.586 90.1389C181.816 89.803 181.131 89.2963 180.585 88.657C180.038 88.0177 179.644 87.2626 179.432 86.4485C179.935 86.462 180.438 86.4234 180.934 86.3335C181.217 86.3117 181.481 86.1818 181.671 85.9707C181.783 85.7729 181.836 85.5465 181.823 85.3192C181.842 84.6443 181.844 83.9675 181.823 83.2926C182.816 83.2292 183.813 83.3523 184.761 83.6554C185.151 83.7822 185.541 83.9343 185.93 84.0338C186.176 84.0962 186.852 84.0338 187.033 84.1762C187.331 84.3771 186.803 85.366 186.872 85.8634Z" fill="#A0616A"/>
<path d="M183.094 88.323C183.139 87.7897 183.35 87.284 183.697 86.8775C184.045 86.471 184.512 86.1844 185.031 86.0585C185.448 85.9648 185.901 85.9765 186.273 85.7698C186.912 85.4128 187.105 84.5429 187.719 84.1431C188.332 83.7432 189.204 83.9656 189.737 84.4707C190.271 84.9759 190.542 85.6957 190.761 86.3998C191.086 87.3519 191.263 88.3487 191.285 89.3548C191.293 89.5389 191.264 89.7226 191.199 89.8951C191.083 90.0964 190.938 90.2787 190.766 90.4354C190.538 90.6923 190.367 90.9955 190.266 91.3243C190.165 91.6532 190.137 92 190.182 92.3411C190.237 92.9835 190.178 93.6306 190.008 94.2525C189.619 95.9729 189.229 97.6913 188.915 99.4272C188.842 99.7467 188.817 100.076 188.843 100.402C188.903 100.873 189.163 101.317 189.106 101.787C189.051 102.006 189.01 102.228 188.983 102.452C188.996 102.622 189.036 102.789 189.1 102.946C189.543 104.231 190.737 107.177 190.725 108.538C188.65 108.006 185.591 107.887 183.447 107.877C182.858 107.871 182.268 107.897 181.682 107.955C180.273 108.107 178.831 108.519 177.465 108.138C176.196 107.785 175.074 106.773 173.762 106.9C173.478 106.155 173.813 103.668 174.08 102.915C175.121 99.9502 175.323 96.7554 174.665 93.683C174.425 92.579 174.754 91.4068 174.487 90.3106C174.438 90.0512 174.339 89.804 174.195 89.583C174.122 89.4733 174.023 89.3837 173.907 89.3227C173.79 89.2616 173.66 89.2311 173.528 89.2339C173.504 87.4706 173.668 85.7098 174.016 83.9812C174.144 83.3668 174.405 82.6412 175.035 82.5358C175.592 82.4403 176.06 82.9123 176.508 83.2575C176.968 83.6136 177.5 83.864 178.067 83.9909C178.295 84.0181 178.514 84.0983 178.706 84.225C178.973 84.4473 179.012 84.8472 179.23 85.1183C179.62 85.604 180.491 85.563 180.768 86.1228C180.828 86.2896 180.877 86.4603 180.914 86.6339C181.045 86.9665 181.268 87.2548 181.557 87.4648C181.991 87.8732 182.519 88.168 183.094 88.323Z" fill="#F86D70"/>
<path d="M179.628 77.2987C179.558 77.0315 179.569 76.7136 179.784 76.5341C179.891 76.4503 180.031 76.4191 180.146 76.3391C180.308 76.2028 180.441 76.0349 180.536 75.8456C180.827 75.4383 181.252 75.1472 181.737 75.0241C182.222 74.9009 182.734 74.9535 183.184 75.1727C183.888 75.5413 184.312 76.2786 184.938 76.776C185.256 77.0335 185.624 77.2246 185.943 77.4821C186.583 78.0355 187.038 78.7721 187.247 79.5925C187.454 80.4072 187.575 81.2414 187.608 82.0814C187.641 82.3335 187.631 82.5894 187.578 82.8382C187.514 83.0469 187.417 83.2443 187.292 83.4234C186.649 84.3986 185.801 85.2841 184.739 85.7874C183.677 86.2906 182.385 86.3725 181.337 85.8459C181.231 85.8032 181.141 85.7307 181.076 85.6372C181.016 85.4948 181.002 85.3374 181.035 85.1866C181.092 84.5905 180.974 83.9907 180.696 83.4604C180.501 83.0703 180.208 82.7348 180.053 82.3311C179.908 81.8791 179.846 81.4047 179.869 80.9306C179.852 79.7037 179.936 78.4808 179.628 77.2987Z" fill="#2D293D"/>
</g>
<defs>
<linearGradient id="paint0_linear" x1="194.04" y1="107.621" x2="163.534" y2="107.621" gradientUnits="userSpaceOnUse">
<stop stop-color="#808080" stop-opacity="0.25"/>
<stop offset="0.54" stop-color="#808080" stop-opacity="0.12"/>
<stop offset="1" stop-color="#808080" stop-opacity="0.1"/>
</linearGradient>
<clipPath id="clip0">
<rect width="217" height="153" fill="white"/>
</clipPath>
</defs>
</svg>
