<svg width="220" height="141" viewBox="0 0 220 141" fill="none" xmlns="http://www.w3.org/2000/svg">
<g clip-path="url(#clip0)">
<path d="M60.3402 140.815L54.6262 123.725C54.6262 123.725 60.9116 127.082 61.1973 131.354C61.1973 131.354 59.7688 109.992 56.9118 105.414C56.9118 105.414 61.483 106.024 66.6257 129.829C66.6257 129.829 67.4828 102.362 59.7688 94.4276C59.7688 94.4276 70.3398 103.583 71.1969 123.42V140.815H60.3402Z" fill="#70B696"/>
<path d="M167.5 140.815L166.126 136.706C166.126 136.706 167.637 137.513 167.706 138.54C167.706 138.54 167.362 133.404 166.676 132.303C166.676 132.303 167.775 132.45 169.011 138.173C169.011 138.173 169.217 131.569 167.362 129.661C167.362 129.661 169.904 131.863 170.11 136.632V140.815L167.5 140.815Z" fill="#70B696"/>
<path d="M142.047 105.472C155.92 105.472 167.165 93.4599 167.165 78.6417C167.165 63.8236 155.92 51.811 142.047 51.811C128.175 51.811 116.929 63.8236 116.929 78.6417C116.929 93.4599 128.175 105.472 142.047 105.472Z" fill="#F2F2F2"/>
<path d="M59 2H0V45H59V2Z" fill="#F2F2F2"/>
<path d="M139.622 2.0354H80.3779V37.1929H139.622V2.0354Z" fill="#F2F2F2"/>
<path d="M220 2.0354H160.756V37.1929H220V2.0354Z" fill="#F2F2F2"/>
<path d="M152.293 140.911C152.253 140.842 151.316 139.17 150.991 135.699C150.693 132.513 150.885 127.145 153.491 119.656C158.429 105.469 152.353 94.0219 152.291 93.9079L152.591 93.7221C152.607 93.751 154.174 96.6695 155.101 101.317C156.324 107.478 155.879 113.885 153.816 119.785C148.886 133.948 152.551 140.653 152.589 140.719L152.293 140.911Z" fill="#3F3D56"/>
<path d="M150.5 94C151.881 94 153 92.8807 153 91.5C153 90.1193 151.881 89 150.5 89C149.119 89 148 90.1193 148 91.5C148 92.8807 149.119 94 150.5 94Z" fill="#FF5722"/>
<path d="M157.465 101.957C158.708 101.957 159.717 100.88 159.717 99.5512C159.717 98.2227 158.708 97.1457 157.465 97.1457C156.221 97.1457 155.213 98.2227 155.213 99.5512C155.213 100.88 156.221 101.957 157.465 101.957Z" fill="#3F3D56"/>
<path d="M152.5 108C153.881 108 155 106.881 155 105.5C155 104.119 153.881 103 152.5 103C151.119 103 150 104.119 150 105.5C150 106.881 151.119 108 152.5 108Z" fill="#FF5722"/>
<path d="M158.5 113C159.881 113 161 111.881 161 110.5C161 109.119 159.881 108 158.5 108C157.119 108 156 109.119 156 110.5C156 111.881 157.119 113 158.5 113Z" fill="#FF5722"/>
<path d="M150.882 120.646C152.126 120.646 153.134 119.569 153.134 118.24C153.134 116.912 152.126 115.835 150.882 115.835C149.638 115.835 148.63 116.912 148.63 118.24C148.63 119.569 149.638 120.646 150.882 120.646Z" fill="#3F3D56"/>
<path d="M153.654 141C153.654 141 151.402 135.079 158.157 130.638L153.654 141Z" fill="#3F3D56"/>
<path d="M150.884 140.893C150.884 140.893 149.859 134.596 141.927 134.65L150.884 140.893Z" fill="#3F3D56"/>
<path d="M59.1575 0H0.0866699V3.14567H59.1575V0Z" fill="#3F3D56"/>
<path d="M139.709 0H80.4646V3.14567H139.709V0Z" fill="#3F3D56"/>
<path d="M219.913 0H160.843V3.14567H219.913V0Z" fill="#3F3D56"/>
<path d="M15.2441 8.04919H4.50391V16.1909H15.2441V8.04919Z" fill="white"/>
<path d="M54.7402 8.04919H25.1182V8.97439H54.7402V8.04919Z" fill="white"/>
<path d="M54.7402 11.75H25.1182V12.6752H54.7402V11.75Z" fill="white"/>
<path d="M54.7402 15.4508H25.1182V16.376H54.7402V15.4508Z" fill="white"/>
<path d="M95.622 8.04919H84.8818V16.1909H95.622V8.04919Z" fill="white"/>
<path d="M135.118 8.04919H105.496V8.97439H135.118V8.04919Z" fill="white"/>
<path d="M135.118 11.75H105.496V12.6752H135.118V11.75Z" fill="white"/>
<path d="M135.118 15.4508H105.496V16.376H135.118V15.4508Z" fill="white"/>
<path d="M176 8.04919H165.26V16.1909H176V8.04919Z" fill="white"/>
<path d="M215.496 8.04919H185.874V8.97439H215.496V8.04919Z" fill="white"/>
<path d="M215.496 11.75H185.874V12.6752H215.496V11.75Z" fill="white"/>
<path d="M215.496 15.4508H185.874V16.376H215.496V15.4508Z" fill="white"/>
<path d="M9.90942 15.5118C11.8424 15.5118 13.4094 13.9448 13.4094 12.0118C13.4094 10.0788 11.8424 8.51184 9.90942 8.51184C7.97643 8.51184 6.40942 10.0788 6.40942 12.0118C6.40942 13.9448 7.97643 15.5118 9.90942 15.5118Z" fill="#2196F3"/>
<path d="M170.665 15.5118C172.598 15.5118 174.165 13.9448 174.165 12.0118C174.165 10.0788 172.598 8.51184 170.665 8.51184C168.732 8.51184 167.165 10.0788 167.165 12.0118C167.165 13.9448 168.732 15.5118 170.665 15.5118Z" fill="#2196F3"/>
<path d="M27.3465 87.189H27V84.9685H27.3465V87.189ZM27.3465 82.748H27V80.5276H27.3465V82.748ZM27.3465 78.3071H27V76.0866H27.3465V78.3071ZM27.3465 73.8661H27V71.6457H27.3465V73.8661ZM27.3465 69.4252H27V67.2047H27.3465V69.4252ZM27.3465 64.9843H27V62.7638H27.3465V64.9843ZM27.3465 60.5433H27V58.3228H27.3465V60.5433ZM27.3465 56.1024H27V53.8819H27.3465V56.1024ZM27.3465 51.6614H27V49.4409H27.3465V51.6614ZM27.3465 47.2205H27V45H27.3465V47.2205Z" fill="#3F3D56"/>
<path d="M28.543 86.2284H27.3304V84.9332H27.6768V85.8582H28.543V86.2284Z" fill="#3F3D56"/>
<path d="M187.25 86.2284H185.162V85.8583H187.25V86.2284ZM183.074 86.2284H180.986V85.8583H183.074V86.2284ZM178.897 86.2284H176.809V85.8583H178.897V86.2284ZM174.721 86.2284H172.633V85.8583H174.721V86.2284ZM170.544 86.2284H168.456V85.8583H170.544V86.2284ZM166.368 86.2284H164.28V85.8583H166.368V86.2284ZM162.191 86.2284H160.103V85.8583H162.191V86.2284ZM158.015 86.2284H155.927V85.8583H158.015V86.2284ZM153.838 86.2284H151.75V85.8583H153.838V86.2284ZM149.662 86.2284H147.574V85.8583H149.662L149.662 86.2284ZM145.485 86.2284H143.397V85.8583H145.485V86.2284ZM141.309 86.2284H139.221V85.8583H141.309V86.2284ZM137.132 86.2284H135.044V85.8583H137.132V86.2284ZM132.956 86.2284H130.868V85.8583H132.956V86.2284ZM128.779 86.2284H126.691V85.8583H128.779V86.2284ZM124.603 86.2284H122.515V85.8583H124.603V86.2284ZM120.426 86.2284H118.338V85.8583H120.426V86.2284ZM116.25 86.2284H114.162V85.8583H116.25V86.2284ZM112.073 86.2284H109.985V85.8583H112.073V86.2284ZM107.897 86.2284H105.808V85.8583H107.897V86.2284ZM103.72 86.2284H101.632V85.8583H103.72V86.2284ZM99.5438 86.2284H97.4555V85.8583H99.5438V86.2284ZM95.3673 86.2284H93.2789V85.8583H95.3673V86.2284ZM91.1907 86.2284H89.1024V85.8583H91.1907V86.2284ZM87.0142 86.2284H84.9259V85.8583H87.0142V86.2284ZM82.8377 86.2284H80.7494V85.8583H82.8377V86.2284ZM78.6612 86.2284H76.5729V85.8583H78.6612V86.2284ZM74.4847 86.2284H72.3964V85.8583H74.4847V86.2284ZM70.3082 86.2284H68.2199V85.8583H70.3082V86.2284ZM66.1317 86.2284H64.0434V85.8583H66.1317V86.2284ZM61.9551 86.2284H59.8668V85.8583H61.9551V86.2284ZM57.7786 86.2284H55.6904V85.8583H57.7786V86.2284ZM53.6021 86.2284H51.5139V85.8583H53.6021V86.2284ZM49.4256 86.2284H47.3374V85.8583H49.4256V86.2284ZM45.2491 86.2284H43.1609V85.8583H45.2491V86.2284ZM41.0726 86.2284H38.9844V85.8583H41.0726V86.2284ZM36.8961 86.2284H34.8079V85.8583H36.8961V86.2284ZM32.7196 86.2284H30.6313V85.8583H32.7196L32.7196 86.2284Z" fill="#3F3D56"/>
<path d="M190.551 86.2284H189.339V85.8582H190.205V84.9332H190.551V86.2284Z" fill="#3F3D56"/>
<path d="M190.551 82.7127H190.205V80.4922H190.551V82.7127ZM190.551 78.2717H190.205V76.0512H190.551V78.2717ZM190.551 73.8308H190.205V71.6103H190.551V73.8308ZM190.551 69.3898H190.205V67.1694H190.551V69.3898ZM190.551 64.9489H190.205V62.7284H190.551V64.9489ZM190.551 60.5079H190.205V58.2875H190.551V60.5079ZM190.551 56.067H190.205V53.8465H190.551V56.067ZM190.551 51.626H190.205V49.4056H190.551V51.626ZM190.551 47.1851H190.205V44.9646H190.551V47.1851ZM190.551 42.7442H190.205V40.5237H190.551V42.7442Z" fill="#3F3D56"/>
<path d="M190.551 37.1929H190.205V38.3031H190.551V37.1929Z" fill="#3F3D56"/>
<path d="M139.622 74.941H80.3779V140.815H139.622V74.941Z" fill="#3F3D56"/>
<path d="M95.622 83.5453H84.8818V91.687H95.622V83.5453Z" fill="white"/>
<path d="M135.118 83.5453H105.496V84.4705H135.118V83.5453Z" fill="white"/>
<path d="M135.118 87.246H105.496V88.1712H135.118V87.246Z" fill="white"/>
<path d="M135.118 90.9468H105.496V91.8721H135.118V90.9468Z" fill="white"/>
<path d="M95.622 112.874H84.8818V121.016H95.622V112.874Z" fill="white"/>
<path d="M135.118 112.874H105.496V113.799H135.118V112.874Z" fill="white"/>
<path d="M135.118 116.575H105.496V117.5H135.118V116.575Z" fill="white"/>
<path d="M135.118 120.276H105.496V121.201H135.118V120.276Z" fill="white"/>
<path d="M90.2975 89.6753L86.6211 84.4394L87.492 83.7418L90.4868 88.0073L98.1206 81.4031L98.81 82.303L90.2975 89.6753Z" fill="#2196F3"/>
<path d="M90.2975 118.727L86.6211 113.491L87.492 112.793L90.4868 117.058L98.1206 110.454L98.81 111.354L90.2975 118.727Z" fill="#2196F3"/>
<path d="M215.496 140.63H1.55908V141H215.496V140.63Z" fill="#3F3D56"/>
<path d="M117.457 39.2283C117.457 39.2283 123.174 36.5675 125.859 39.3782C128.544 42.1889 118.67 41.2637 117.457 39.2283Z" fill="#3F3D56"/>
<path d="M127.328 26.6095C125.407 23.1422 121.606 22.9806 121.606 22.9806C121.606 22.9806 117.903 22.4747 115.527 27.7555C113.313 32.6777 110.256 37.4301 115.035 38.5823L115.898 35.7126L116.433 38.796C117.113 38.8483 117.796 38.8607 118.477 38.8333C123.595 38.6568 128.468 38.8849 128.312 36.9234C128.103 34.3157 129.177 29.9458 127.328 26.6095Z" fill="#2F2E41"/>
<path d="M130.016 89.4666C130.016 89.4666 127.591 94.2776 126.032 94.2776C124.473 94.2776 124.646 97.4233 124.993 98.1634C125.339 98.9036 126.205 100.569 124.819 102.974C124.335 103.815 124.422 104.768 124.74 105.652C125.63 108.131 129.092 107.38 128.981 104.728C128.98 104.699 128.979 104.669 128.977 104.64C128.804 101.679 130.189 97.0532 131.575 95.943C132.961 94.8327 134.174 91.8721 134.174 91.8721L130.016 89.4666Z" fill="#FFB8B8"/>
<path d="M113.386 88.3563C113.386 88.3563 115.811 93.1673 117.37 93.1673C118.93 93.1673 118.756 96.313 118.41 97.0532C118.063 97.7933 117.197 99.4587 118.583 101.864C119.067 102.704 118.981 103.658 118.663 104.542C117.773 107.021 114.311 106.27 114.421 103.618C114.422 103.589 114.424 103.559 114.426 103.53C114.599 100.569 113.213 95.9429 111.827 94.8327C110.441 93.7225 109.229 90.7618 109.229 90.7618L113.386 88.3563Z" fill="#FFB8B8"/>
<path d="M115.292 64.6712L114.252 67.0767C114.252 67.0767 99.0083 72.4429 100.394 78.7342C101.78 85.0256 108.536 94.8326 109.575 94.4626C110.615 94.0925 116.158 92.9823 116.331 89.8366C116.504 86.6909 112.347 81.1397 112.347 81.1397L118.063 75.5886L126.382 75.4035L133.481 81.1397C133.481 81.1397 126.032 88.1712 129.323 90.9468C132.615 93.7224 137.465 95.5728 138.158 94.4626C138.851 93.3523 146.646 76.8838 145.433 75.4035C144.221 73.9232 131.922 68.372 131.922 68.372L128.63 63.376L115.811 62.6358L115.292 64.6712Z" fill="#2F2E41"/>
<path d="M118.41 34.1398C118.41 34.1398 119.276 40.2461 117.544 40.9862C115.811 41.7264 121.008 44.8721 121.008 44.8721H123.953L125.859 40.6162C125.859 40.6162 124.126 37.2854 125.166 34.1398C126.205 30.9941 118.41 34.1398 118.41 34.1398Z" fill="#FFB8B8"/>
<path opacity="0.1" d="M118.41 34.1398C118.41 34.1398 119.276 40.2461 117.544 40.9862C115.811 41.7264 121.008 44.8721 121.008 44.8721H123.953L125.859 40.6162C125.859 40.6162 124.126 37.2854 125.166 34.1398C126.205 30.9941 118.41 34.1398 118.41 34.1398Z" fill="black"/>
<path d="M117.197 39.3209C117.197 39.3209 119.103 41.5414 119.449 41.9115C119.796 42.2816 121.355 44.317 124.646 41.3564C127.937 38.3957 128.284 41.9115 128.284 41.9115V64.1162C128.284 64.1162 125.512 62.821 123.26 64.1162C121.008 65.4115 116.331 63.7462 116.331 63.7462L115.465 40.8013L117.197 39.3209Z" fill="white"/>
<path d="M118.47 39.3209C118.47 39.3209 116.851 38.5807 115.465 39.3209C114.079 40.0611 109.229 43.7618 109.575 45.4272C109.922 47.0926 114.426 58.75 111.307 64.3012C108.189 69.8524 107.67 71.3327 107.67 71.3327L115.292 67.0768C115.292 67.0768 121.181 63.191 120.662 60.7855C120.142 58.38 118.47 39.3209 118.47 39.3209Z" fill="#FF5722"/>
<path d="M125.341 39.3209C125.341 39.3209 128.977 39.691 129.15 40.0611C129.323 40.4312 134.607 42.004 134.26 43.6694C133.914 45.3347 129.15 60.2304 131.229 63.006C133.307 65.7816 136.772 69.6674 135.559 70.0375C134.347 70.4076 132.268 69.4824 130.189 70.0375C128.111 70.5926 123.26 65.9666 123.78 60.9705C124.3 55.9745 123.784 40.6162 125.341 39.3209Z" fill="#FF5722"/>
<path d="M116.678 74.6634V76.5137C116.678 76.5137 115.811 80.7697 118.583 80.5846C121.355 80.3996 119.622 75.4035 119.622 75.4035L119.449 73.7382L116.678 74.6634Z" fill="#FFB8B8"/>
<path d="M124.473 74.8484C124.473 74.8484 122.567 79.1044 124.473 79.4744C126.378 79.8445 127.764 77.0689 127.764 76.3288C127.764 75.5886 124.473 74.8484 124.473 74.8484Z" fill="#FFB8B8"/>
<path d="M126.985 32.3819C127.176 32.3819 127.331 32.0505 127.331 31.6417C127.331 31.2329 127.176 30.9016 126.985 30.9016C126.793 30.9016 126.638 31.2329 126.638 31.6417C126.638 32.0505 126.793 32.3819 126.985 32.3819Z" fill="#FFB8B8"/>
<path d="M116.764 32.3819C116.956 32.3819 117.111 32.0505 117.111 31.6417C117.111 31.2329 116.956 30.9016 116.764 30.9016C116.573 30.9016 116.418 31.2329 116.418 31.6417C116.418 32.0505 116.573 32.3819 116.764 32.3819Z" fill="#FFB8B8"/>
<path d="M130.016 41.7263C130.016 41.7263 134.347 41.7263 134.174 43.5767C134 45.4271 128.284 77.2539 128.284 77.2539C128.284 77.2539 125.859 74.8484 123.78 75.4035L130.016 41.7263Z" fill="#FF5722"/>
<path d="M113.213 42.2814C113.213 42.2814 108.882 43.2066 108.882 45.9822C108.882 48.7578 115.119 75.4035 115.985 75.4035C116.851 75.4035 120.142 74.8484 120.142 73.9232C120.142 72.998 113.213 42.2814 113.213 42.2814Z" fill="#FF5722"/>
<path opacity="0.2" d="M114.166 47.7401L118.063 64.0219C118.063 64.0219 116.245 49.7755 114.166 47.7401Z" fill="black"/>
<path opacity="0.2" d="M129.326 45.4523L125.384 66.7399C125.384 66.7399 126.644 46.6803 129.326 45.4523Z" fill="black"/>
<path d="M121.874 37.1004C124.649 37.1004 126.898 34.6979 126.898 31.7343C126.898 28.7707 124.649 26.3682 121.874 26.3682C119.1 26.3682 116.851 28.7707 116.851 31.7343C116.851 34.6979 119.1 37.1004 121.874 37.1004Z" fill="#FFB8B8"/>
<path d="M126.479 26.2753L122.724 24.1744L117.538 25.0337L116.466 30.0952L119.136 29.9856L119.882 28.1261V29.9549L121.114 29.9042L121.83 26.9437L122.277 30.0952L126.657 29.9998L126.479 26.2753Z" fill="#2F2E41"/>
</g>
<defs>
<clipPath id="clip0">
<rect width="220" height="141" fill="white"/>
</clipPath>
</defs>
</svg>
